Urbanist-MediumItalic.ufo
<glyph name="exclam" format="2">
  <advance width="394.0"/>
  <unicode hex="0021"/>
  <outline>
    <contour>
      <point x="89.0" y="420.0" type="line"/>
      <point x="243.8" y="420.0" type="line"/>
      <point x="380.8" y="1400.0" type="line"/>
      <point x="226.0" y="1400.0" type="line"/>
    </contour>
    <contour>
      <point x="113.8" y="-26.0" type="curve" smooth="yes"/>
      <point x="162.0" y="-26.0"/>
      <point x="205.6" y="12.0"/>
      <point x="212.6" y="63.400000000000006" type="curve" smooth="yes"/>
      <point x="220.8" y="120.80000000000001"/>
      <point x="179.2" y="169.2"/>
      <point x="121.0" y="169.2" type="curve" smooth="yes"/>
      <point x="71.6" y="169.2"/>
      <point x="28.0" y="131.20000000000002"/>
      <point x="21.2" y="83.0" type="curve" smooth="yes"/>
      <point x="13.0" y="22.400000000000002"/>
      <point x="54.4" y="-26.0"/>
    </contour>
  </outline>
</glyph>
<glyph name="numbersign" format="2">
  <advance width="1535.0"/>
  <unicode hex="0023"/>
  <outline>
    <contour>
      <point x="1466.2" y="909.2" type="line"/>
      <point x="1538.0" y="1083.2" type="line"/>
      <point x="1350.0" y="1083.2" type="line"/>
      <point x="1478.8" y="1400.0" type="line"/>
      <point x="1296.6" y="1400.0" type="line"/>
      <point x="1168.3999999999999" y="1083.2" type="line"/>
      <point x="736.8" y="1083.2" type="line"/>
      <point x="866.8" y="1400.0" type="line"/>
      <point x="684.4" y="1400.0" type="line"/>
      <point x="555.1999999999999" y="1083.2" type="line"/>
      <point x="366.40000000000003" y="1083.2" type="line"/>
      <point x="293.8" y="909.2" type="line"/>
      <point x="483.8" y="909.2" type="line"/>
      <point x="312.6" y="492.4" type="line"/>
      <point x="124.6" y="492.4" type="line"/>
      <point x="52.8" y="318.4" type="line"/>
      <point x="242.4" y="318.4" type="line"/>
      <point x="112.8" y="0.0" type="line"/>
      <point x="295.2" y="0.0" type="line"/>
      <point x="424.8" y="318.4" type="line"/>
      <point x="854.8" y="318.4" type="line"/>
      <point x="724.8" y="0.0" type="line"/>
      <point x="907.2" y="0.0" type="line"/>
      <point x="1037.2" y="318.4" type="line"/>
      <point x="1225.2" y="318.4" type="line"/>
      <point x="1297.0" y="492.4" type="line"/>
      <point x="1107.0" y="492.4" type="line"/>
      <point x="1278.2" y="909.2" type="line"/>
    </contour>
    <contour>
      <point x="924.5999999999999" y="492.4" type="line"/>
      <point x="495.0" y="492.4" type="line"/>
      <point x="666.2" y="909.2" type="line"/>
      <point x="1095.8" y="909.2" type="line"/>
    </contour>
  </outline>
</glyph>
<glyph name="dollar" format="2">
  <advance width="1191.0"/>
  <unicode hex="0024"/>
  <outline>
    <contour>
      <point x="708.8000000000001" y="1240.8" type="curve"/>
      <point x="860.4" y="1240.8"/>
      <point x="999.4" y="1176.3999999999999"/>
      <point x="1022.6" y="1068.0" type="curve"/>
      <point x="1197.4" y="1118.8000000000002" type="line"/>
      <point x="1157.2" y="1290.4"/>
      <point x="979.4" y="1399.8"/>
      <point x="785.0" y="1417.4" type="curve"/>
      <point x="818.8" y="1624.0" type="line"/>
      <point x="689.2" y="1624.0" type="line"/>
      <point x="655.4000000000001" y="1418.6000000000001" type="line"/>
      <point x="408.8" y="1395.4"/>
      <point x="189.20000000000002" y="1246.3999999999999"/>
      <point x="159.0" y="1025.0" type="curve"/>
      <point x="121.39999999999999" y="757.1999999999999"/>
      <point x="330.8" y="656.6"/>
      <point x="620.8000000000001" y="609.8" type="curve"/>
      <point x="775.4000000000001" y="580.6"/>
      <point x="929.8" y="526.4"/>
      <point x="910.8" y="391.40000000000003" type="curve"/>
      <point x="890.6" y="249.20000000000002"/>
      <point x="714.4" y="154.0"/>
      <point x="535.8000000000001" y="154.0" type="curve"/>
      <point x="385.2" y="154.0"/>
      <point x="246.20000000000002" y="220.39999999999998"/>
      <point x="223.0" y="328.0" type="curve"/>
      <point x="49.8" y="275.2" type="line"/>
      <point x="87.4" y="108.0"/>
      <point x="261.2" y="-3.4000000000000004"/>
      <point x="463.20000000000005" y="-21.8" type="curve"/>
      <point x="429.20000000000005" y="-224.0" type="line"/>
      <point x="558.8" y="-224.0" type="line"/>
      <point x="592.5999999999999" y="-22.2" type="line"/>
      <point x="838.4" y="1.8"/>
      <point x="1056.4" y="150.0"/>
      <point x="1087.4" y="371.0" type="curve"/>
      <point x="1122.2" y="618.0"/>
      <point x="897.4" y="744.5999999999999"/>
      <point x="625.6" y="787.8" type="curve"/>
      <point x="449.0" y="821.4"/>
      <point x="314.40000000000003" y="848.0"/>
      <point x="336.40000000000003" y="1005.4000000000001" type="curve"/>
      <point x="355.6" y="1144.4"/>
      <point x="532.0" y="1242.0"/>
    </contour>
  </outline>
</glyph>
<glyph name="percent" format="2">
  <advance width="1369.0"/>
  <unicode hex="0025"/>
  <outline>
    <contour>
      <point x="104.2" y="0.0" type="line"/>
      <point x="315.4" y="0.0" type="line"/>
      <point x="1320.4" y="1400.0" type="line"/>
      <point x="1108.2" y="1400.0" type="line"/>
    </contour>
    <contour>
      <point x="399.8" y="830.4" type="curve" smooth="yes"/>
      <point x="535.8" y="830.4"/>
      <point x="666.6" y="938.8"/>
      <point x="687.0" y="1082.2" type="curve" smooth="yes"/>
      <point x="708.4000000000001" y="1233.2"/>
      <point x="601.8000000000001" y="1355.2"/>
      <point x="453.40000000000003" y="1355.2" type="curve" smooth="yes"/>
      <point x="316.2" y="1355.2"/>
      <point x="184.6" y="1246.3999999999999"/>
      <point x="165.2" y="1101.8" type="curve" smooth="yes"/>
      <point x="143.6" y="950.8"/>
      <point x="250.6" y="830.4"/>
    </contour>
    <contour>
      <point x="397.2" y="960.0" type="curve" smooth="yes"/>
      <point x="328.8" y="960.0"/>
      <point x="282.4" y="1014.0"/>
      <point x="292.2" y="1082.2" type="curve" smooth="yes"/>
      <point x="302.4" y="1161.2"/>
      <point x="376.40000000000003" y="1224.8"/>
      <point x="455.40000000000003" y="1224.8" type="curve" smooth="yes"/>
      <point x="523.1999999999999" y="1224.8"/>
      <point x="569.8" y="1170.8"/>
      <point x="560.0" y="1101.8" type="curve" smooth="yes"/>
      <point x="548.8" y="1024.3999999999999"/>
      <point x="475.59999999999997" y="960.0"/>
    </contour>
    <contour>
      <point x="971.8000000000001" y="44.4" type="curve" smooth="yes"/>
      <point x="1111.6000000000001" y="44.4"/>
      <point x="1240.8" y="158.39999999999998"/>
      <point x="1260.8" y="297.0" type="curve" smooth="yes"/>
      <point x="1281.2" y="442.79999999999995"/>
      <point x="1179.8" y="570.4"/>
      <point x="1026.2" y="570.4" type="curve" smooth="yes"/>
      <point x="889.4" y="570.4"/>
      <point x="757.8000000000001" y="460.0"/>
      <point x="737.4000000000001" y="317.40000000000003" type="curve" smooth="yes"/>
      <point x="716.2" y="172.0"/>
      <point x="820.8" y="44.4"/>
    </contour>
    <contour>
      <point x="969.8000000000001" y="174.0" type="curve" smooth="yes"/>
      <point x="902.8" y="174.0"/>
      <point x="854.5999999999999" y="229.2"/>
      <point x="864.4" y="297.0" type="curve" smooth="yes"/>
      <point x="875.5999999999999" y="375.2"/>
      <point x="949.5999999999999" y="440.0"/>
      <point x="1027.2" y="440.0" type="curve" smooth="yes"/>
      <point x="1095.6" y="440.0"/>
      <point x="1142.8" y="384.8"/>
      <point x="1133.0" y="317.40000000000003" type="curve" smooth="yes"/>
      <point x="1122.8" y="238.8"/>
      <point x="1048.8" y="174.0"/>
    </contour>
  </outline>
</glyph>
<glyph name="ampersand" format="2">
  <advance width="1422.0"/>
  <unicode hex="0026"/>
  <outline>
    <contour>
      <point x="431.0" y="-26.0" type="curve" smooth="yes"/>
      <point x="598.0" y="-26.0"/>
      <point x="656.8" y="22.799999999999997"/>
      <point x="923.1999999999999" y="256.79999999999995" type="curve"/>
      <point x="1148.3999999999999" y="0.0" type="line"/>
      <point x="1290.0" y="127.2" type="line"/>
      <point x="1064.0" y="388.4" type="line"/>
      <point x="1188.3999999999999" y="495.2" type="line"/>
      <point x="1219.8" y="748.8" type="line"/>
      <point x="952.8" y="517.2" type="line"/>
      <point x="673.0" y="844.8" type="line"/>
      <point x="822.1999999999999" y="973.1999999999999"/>
      <point x="865.1999999999999" y="1018.8000000000001"/>
      <point x="880.1999999999999" y="1129.4" type="curve" smooth="yes"/>
      <point x="904.1999999999999" y="1300.0"/>
      <point x="784.1999999999999" y="1436.4"/>
      <point x="616.8000000000001" y="1436.4" type="curve" smooth="yes"/>
      <point x="462.2" y="1436.4"/>
      <point x="314.0" y="1312.3999999999999"/>
      <point x="291.0" y="1149.0" type="curve" smooth="yes"/>
      <point x="274.8" y="1032.0"/>
      <point x="307.0" y="985.6"/>
      <point x="417.8" y="854.8" type="curve"/>
      <point x="151.8" y="621.1999999999999"/>
      <point x="89.8" y="566.8"/>
      <point x="66.2" y="399.8" type="curve" smooth="yes"/>
      <point x="34.4" y="176.8"/>
      <point x="184.8" y="-26.0"/>
    </contour>
    <contour>
      <point x="435.8" y="154.0" type="curve" smooth="yes"/>
      <point x="314.4" y="154.0"/>
      <point x="226.20000000000002" y="250.39999999999998"/>
      <point x="244.4" y="377.79999999999995" type="curve" smooth="yes"/>
      <point x="260.2" y="498.0"/>
      <point x="306.8" y="521.6"/>
      <point x="529.2" y="717.6" type="curve"/>
      <point x="810.0" y="392.8" type="line"/>
      <point x="593.1999999999999" y="202.79999999999998"/>
      <point x="558.4" y="154.0"/>
    </contour>
    <contour>
      <point x="550.8000000000001" y="952.0" type="curve"/>
      <point x="463.4" y="1054.8000000000002"/>
      <point x="439.8" y="1068.8000000000002"/>
      <point x="448.6" y="1132.2" type="curve" smooth="yes"/>
      <point x="459.8" y="1210.4"/>
      <point x="533.8" y="1278.0"/>
      <point x="614.8000000000001" y="1278.0" type="curve" smooth="yes"/>
      <point x="679.0" y="1278.0"/>
      <point x="733.2" y="1227.2"/>
      <point x="722.4000000000001" y="1151.8" type="curve" smooth="yes"/>
      <point x="712.2" y="1080.0"/>
      <point x="684.0" y="1066.8"/>
    </contour>
  </outline>
</glyph>
<glyph name="quotesingle" format="2">
  <advance width="270.0"/>
  <unicode hex="0027"/>
  <outline>
    <contour>
      <point x="123.4" y="878.0" type="line"/>
      <point x="253.0" y="878.0" type="line"/>
      <point x="326.0" y="1400.0" type="line"/>
      <point x="196.4" y="1400.0" type="line"/>
    </contour>
  </outline>
</glyph>
<glyph name="parenleft" format="2">
  <advance width="687.0"/>
  <unicode hex="0028"/>
  <outline>
    <contour>
      <point x="325.0" y="-108.4" type="curve"/>
      <point x="497.6" y="-115.6" type="line"/>
      <point x="362.6" y="59.6"/>
      <point x="281.4" y="324.79999999999995"/>
      <point x="318.8" y="634.2" type="curve" smooth="yes"/>
      <point x="364.2" y="913.2"/>
      <point x="541.4" y="1260.3999999999999"/>
      <point x="717.0" y="1397.6" type="curve"/>
      <point x="529.4000000000001" y="1402.2" type="line"/>
      <point x="333.4" y="1285.4"/>
      <point x="177.0" y="907.1999999999999"/>
      <point x="142.2" y="653.8" type="curve" smooth="yes"/>
      <point x="99.4" y="350.0"/>
      <point x="148.0" y="85.6"/>
    </contour>
  </outline>
</glyph>
<glyph name="parenright" format="2">
  <advance width="687.0"/>
  <unicode hex="0029"/>
  <outline>
    <contour>
      <point x="11.4" y="-108.4" type="curve"/>
      <point x="197.4" y="-115.6" type="line"/>
      <point x="428.59999999999997" y="78.4"/>
      <point x="544.4000000000001" y="340.4"/>
      <point x="586.0" y="634.2" type="curve" smooth="yes"/>
      <point x="622.2" y="896.8"/>
      <point x="565.2" y="1281.0"/>
      <point x="401.2" y="1397.8" type="curve"/>
      <point x="230.8" y="1402.4" type="line"/>
      <point x="368.8" y="1265.2"/>
      <point x="440.6" y="922.8"/>
      <point x="409.4" y="653.8" type="curve" smooth="yes"/>
      <point x="358.0" y="335.2"/>
      <point x="195.0" y="66.8"/>
    </contour>
  </outline>
</glyph>
<glyph name="asterisk" format="2">
  <advance width="712.0"/>
  <unicode hex="002A"/>
  <outline>
    <contour>
      <point x="277.40000000000003" y="846.0" type="line"/>
      <point x="416.2" y="1005.2" type="line"/>
      <point x="507.40000000000003" y="846.0" type="line"/>
      <point x="620.4" y="923.2" type="line"/>
      <point x="525.8" y="1080.8" type="line"/>
      <point x="721.1999999999999" y="1140.8" type="line"/>
      <point x="697.8" y="1264.8" type="line"/>
      <point x="504.2" y="1205.2" type="line"/>
      <point x="532.6" y="1400.0" type="line"/>
      <point x="402.0" y="1400.0" type="line"/>
      <point x="374.6" y="1205.2" type="line"/>
      <point x="194.2" y="1264.8" type="line"/>
      <point x="138.8" y="1140.8" type="line"/>
      <point x="315.8" y="1080.8" type="line"/>
      <point x="178.20000000000002" y="923.2" type="line"/>
    </contour>
  </outline>
</glyph>
<glyph name="plus" format="2">
  <advance width="1160.0"/>
  <unicode hex="002B"/>
  <outline>
    <contour>
      <point x="434.0" y="100.0" type="line"/>
      <point x="614.0" y="100.0" type="line"/>
      <point x="671.8" y="510.0" type="line"/>
      <point x="1081.8" y="510.0" type="line"/>
      <point x="1106.2" y="690.0" type="line"/>
      <point x="696.2" y="690.0" type="line"/>
      <point x="754.0" y="1100.0" type="line"/>
      <point x="574.0" y="1100.0" type="line"/>
      <point x="516.2" y="690.0" type="line"/>
      <point x="106.2" y="690.0" type="line"/>
      <point x="81.8" y="510.0" type="line"/>
      <point x="491.8" y="510.0" type="line"/>
    </contour>
  </outline>
</glyph>
<glyph name="comma" format="2">
  <advance width="442.0"/>
  <unicode hex="002C"/>
  <outline>
    <contour>
      <point x="-6.2" y="-112.0" type="line"/>
      <point x="115.4" y="-112.0" type="line"/>
      <point x="285.2" y="226.0" type="line"/>
      <point x="102.8" y="226.0" type="line"/>
    </contour>
  </outline>
</glyph>
<glyph name="hyphen" format="2">
  <advance width="880.0"/>
  <unicode hex="002D"/>
  <outline>
    <contour>
      <point x="146.2" y="690.0" type="line"/>
      <point x="121.8" y="510.0" type="line"/>
      <point x="761.8" y="510.0" type="line"/>
      <point x="786.2" y="690.0" type="line"/>
    </contour>
  </outline>
</glyph>
<glyph name="period" format="2">
  <advance width="395.0"/>
  <unicode hex="002E"/>
  <outline>
    <contour>
      <point x="112.99999999999999" y="-26.0" type="curve" smooth="yes"/>
      <point x="162.0" y="-26.0"/>
      <point x="206.79999999999998" y="12.0"/>
      <point x="213.79999999999998" y="62.2" type="curve" smooth="yes"/>
      <point x="222.0" y="120.4"/>
      <point x="179.2" y="169.2"/>
      <point x="120.19999999999999" y="169.2" type="curve" smooth="yes"/>
      <point x="71.6" y="169.2"/>
      <point x="28.0" y="130.0"/>
      <point x="21.2" y="81.8" type="curve" smooth="yes"/>
      <point x="13.0" y="22.400000000000002"/>
      <point x="54.4" y="-26.0"/>
    </contour>
  </outline>
</glyph>
<glyph name="slash" format="2">
  <advance width="745.0"/>
  <unicode hex="002F"/>
  <outline>
    <contour>
      <point x="793.4000000000001" y="1400.0" type="line"/>
      <point x="610.0" y="1400.0" type="line"/>
      <point x="-7.2" y="-112.0" type="line"/>
      <point x="175.2" y="-112.0" type="line"/>
    </contour>
  </outline>
</glyph>
<glyph name="zero" format="2">
  <advance width="1198.0"/>
  <unicode hex="0030"/>
  <outline>
    <contour>
      <point x="536.1999999999999" y="-26.0" type="curve" smooth="yes"/>
      <point x="860.8" y="-26.0"/>
      <point x="1109.8" y="295.2"/>
      <point x="1164.8" y="690.2" type="curve" smooth="yes"/>
      <point x="1221.8" y="1096.0"/>
      <point x="1055.2" y="1426.0"/>
      <point x="719.8" y="1426.0" type="curve" smooth="yes"/>
      <point x="394.4" y="1426.0"/>
      <point x="145.2" y="1106.3999999999999"/>
      <point x="89.2" y="709.8" type="curve" smooth="yes"/>
      <point x="32.2" y="304.8"/>
      <point x="200.0" y="-26.0"/>
    </contour>
    <contour>
      <point x="541.0" y="154.0" type="curve" smooth="yes"/>
      <point x="302.79999999999995" y="154.0"/>
      <point x="216.20000000000002" y="403.2"/>
      <point x="257.2" y="690.2" type="curve" smooth="yes"/>
      <point x="298.0" y="982.8"/>
      <point x="459.2" y="1246.0"/>
      <point x="715.0" y="1246.0" type="curve" smooth="yes"/>
      <point x="947.1999999999999" y="1246.0"/>
      <point x="1040.0" y="1010.8"/>
      <point x="997.6" y="709.8" type="curve" smooth="yes"/>
      <point x="956.1999999999999" y="414.0"/>
      <point x="791.1999999999999" y="154.0"/>
    </contour>
  </outline>
</glyph>
<glyph name="one" format="2">
  <advance width="580.0"/>
  <unicode hex="0031"/>
  <outline>
    <contour>
      <point x="170.4" y="0.0" type="line"/>
      <point x="350.4" y="0.0" type="line"/>
      <point x="546.4" y="1400.0" type="line"/>
      <point x="255.20000000000002" y="1400.0" type="line"/>
      <point x="180.4" y="1220.0" type="line"/>
      <point x="341.2" y="1220.0" type="line"/>
    </contour>
  </outline>
</glyph>
<glyph name="two" format="2">
  <advance width="1110.0"/>
  <unicode hex="0032"/>
  <outline>
    <contour>
      <point x="10.0" y="0.0" type="line"/>
      <point x="920.4" y="0.0" type="line"/>
      <point x="944.8" y="180.0" type="line"/>
      <point x="363.40000000000003" y="176.4" type="line"/>
      <point x="671.5999999999999" y="433.2"/>
      <point x="1008.1999999999999" y="744.4000000000001"/>
      <point x="1039.8000000000002" y="973.4000000000001" type="curve" smooth="yes"/>
      <point x="1075.8000000000002" y="1222.8000000000002"/>
      <point x="900.8" y="1426.0"/>
      <point x="653.8" y="1426.0" type="curve" smooth="yes"/>
      <point x="418.4" y="1426.0"/>
      <point x="195.20000000000002" y="1236.0"/>
      <point x="160.20000000000002" y="988.0" type="curve"/>
      <point x="339.79999999999995" y="978.4000000000001" type="line"/>
      <point x="359.4" y="1122.0"/>
      <point x="499.6" y="1246.0"/>
      <point x="649.0" y="1246.0" type="curve" smooth="yes"/>
      <point x="787.6" y="1246.0"/>
      <point x="882.6" y="1132.3999999999999"/>
      <point x="863.1999999999999" y="993.0" type="curve" smooth="yes"/>
      <point x="833.4" y="782.4"/>
      <point x="311.8" y="380.79999999999995"/>
      <point x="28.2" y="162.4" type="curve"/>
    </contour>
  </outline>
</glyph>
<glyph name="three" format="2">
  <advance width="998.0"/>
  <unicode hex="0033"/>
  <outline>
    <contour>
      <point x="435.40000000000003" y="-26.0" type="curve" smooth="yes"/>
      <point x="666.0" y="-26.0"/>
      <point x="890.8" y="162.0"/>
      <point x="923.4" y="393.4" type="curve" smooth="yes"/>
      <point x="944.6" y="546.4000000000001"/>
      <point x="884.4" y="689.0"/>
      <point x="753.4" y="737.0" type="curve"/>
      <point x="873.8" y="782.8000000000001"/>
      <point x="953.0" y="898.8"/>
      <point x="969.8000000000001" y="1021.4000000000001" type="curve" smooth="yes"/>
      <point x="1001.6" y="1244.8000000000002"/>
      <point x="831.2" y="1427.2"/>
      <point x="610.8" y="1427.2" type="curve" smooth="yes"/>
      <point x="396.0" y="1427.2"/>
      <point x="179.20000000000002" y="1254.0"/>
      <point x="148.60000000000002" y="1036.0" type="curve"/>
      <point x="327.40000000000003" y="1026.4" type="line"/>
      <point x="343.8" y="1144.0"/>
      <point x="482.2" y="1247.2"/>
      <point x="607.4" y="1247.2" type="curve" smooth="yes"/>
      <point x="720.1999999999999" y="1247.2"/>
      <point x="809.4000000000001" y="1154.3999999999999"/>
      <point x="793.2" y="1041.0" type="curve" smooth="yes"/>
      <point x="771.8000000000001" y="888.0"/>
      <point x="634.4" y="806.0"/>
      <point x="449.2" y="806.0" type="curve"/>
      <point x="439.0" y="662.0" type="line"/>
      <point x="641.8" y="662.0"/>
      <point x="769.0" y="581.1999999999999"/>
      <point x="745.8" y="413.0" type="curve" smooth="yes"/>
      <point x="726.4" y="271.2"/>
      <point x="581.1999999999999" y="154.0"/>
      <point x="440.2" y="154.0" type="curve" smooth="yes"/>
      <point x="288.4" y="154.0"/>
      <point x="205.8" y="260.79999999999995"/>
      <point x="225.2" y="398.4" type="curve"/>
      <point x="47.2" y="408.0" type="line"/>
      <point x="13.6" y="171.20000000000002"/>
      <point x="175.20000000000002" y="-26.0"/>
    </contour>
  </outline>
</glyph>
<glyph name="four" format="2">
  <advance width="1117.0"/>
  <unicode hex="0034"/>
  <outline>
    <contour>
      <point x="610.8" y="0.0" type="line"/>
      <point x="790.8" y="0.0" type="line"/>
      <point x="843.4" y="372.4" type="line"/>
      <point x="979.0" y="372.4" type="line"/>
      <point x="1004.2" y="552.4" type="line"/>
      <point x="867.8" y="552.4" type="line"/>
      <point x="986.8" y="1400.0" type="line"/>
      <point x="761.4" y="1400.0" type="line"/>
      <point x="85.6" y="554.0" type="line"/>
      <point x="61.8" y="372.4" type="line"/>
      <point x="663.4" y="372.4" type="line"/>
    </contour>
    <contour>
      <point x="300.2" y="554.0" type="line"/>
      <point x="772.2" y="1148.8" type="line"/>
      <point x="687.8" y="552.4" type="line"/>
    </contour>
  </outline>
</glyph>
<glyph name="five" format="2">
  <advance width="1123.0"/>
  <unicode hex="0035"/>
  <outline>
    <contour>
      <point x="473.00000000000006" y="-26.0" type="curve" smooth="yes"/>
      <point x="724.8" y="-26.0"/>
      <point x="958.4000000000001" y="179.2"/>
      <point x="993.8000000000001" y="430.2" type="curve" smooth="yes"/>
      <point x="1031.0" y="702.4000000000001"/>
      <point x="856.4" y="902.0"/>
      <point x="572.8" y="908.4" type="curve"/>
      <point x="440.4" y="908.8" type="line"/>
      <point x="546.4" y="1220.0" type="line"/>
      <point x="1067.2" y="1220.0" type="line"/>
      <point x="1092.4" y="1400.0" type="line"/>
      <point x="423.8" y="1400.0" type="line"/>
      <point x="191.8" y="728.8" type="line"/>
      <point x="545.4" y="728.8" type="line" smooth="yes"/>
      <point x="750.1999999999999" y="728.8"/>
      <point x="837.4000000000001" y="602.8"/>
      <point x="816.2" y="449.8" type="curve" smooth="yes"/>
      <point x="793.0" y="286.8"/>
      <point x="640.4" y="154.0"/>
      <point x="477.80000000000007" y="154.0" type="curve" smooth="yes"/>
      <point x="324.79999999999995" y="154.0"/>
      <point x="218.6" y="277.2"/>
      <point x="240.8" y="435.2" type="curve"/>
      <point x="62.0" y="444.8" type="line"/>
      <point x="26.6" y="191.20000000000002"/>
      <point x="206.0" y="-26.0"/>
    </contour>
  </outline>
</glyph>
<glyph name="six" format="2">
  <advance width="1085.0"/>
  <unicode hex="0036"/>
  <outline>
    <contour>
      <point x="471.8" y="-26.0" type="curve" smooth="yes"/>
      <point x="736.8" y="-26.0"/>
      <point x="981.4000000000001" y="188.8"/>
      <point x="1018.4000000000001" y="452.2" type="curve" smooth="yes"/>
      <point x="1063.4" y="770.0"/>
      <point x="791.6" y="993.0"/>
      <point x="497.59999999999997" y="915.0" type="curve"/>
      <point x="852.8" y="1400.0" type="line"/>
      <point x="639.4" y="1400.0" type="line"/>
      <point x="146.6" y="718.1999999999999" type="line" smooth="yes"/>
      <point x="89.60000000000001" y="632.1999999999999"/>
      <point x="59.2" y="564.8"/>
      <point x="45.8" y="471.8" type="curve" smooth="yes"/>
      <point x="7.4" y="198.0"/>
      <point x="201.2" y="-26.0"/>
    </contour>
    <contour>
      <point x="477.4" y="154.0" type="curve" smooth="yes"/>
      <point x="320.4" y="154.0"/>
      <point x="199.4" y="282.0"/>
      <point x="223.2" y="451.79999999999995" type="curve" smooth="yes"/>
      <point x="247.2" y="619.2"/>
      <point x="403.0" y="769.2"/>
      <point x="586.2" y="769.2" type="curve" smooth="yes"/>
      <point x="752.1999999999999" y="769.2"/>
      <point x="864.6" y="636.4"/>
      <point x="840.8000000000001" y="472.2" type="curve" smooth="yes"/>
      <point x="817.8000000000001" y="307.2"/>
      <point x="661.6" y="154.0"/>
    </contour>
  </outline>
</glyph>
<glyph name="seven" format="2">
  <advance width="1081.0"/>
  <unicode hex="0037"/>
  <outline>
    <contour>
      <point x="56.999999999999986" y="0.0" type="line"/>
      <point x="267.4" y="0.0" type="line"/>
      <point x="1143.8" y="1220.0" type="line"/>
      <point x="1166.8" y="1400.0" type="line"/>
      <point x="166.0" y="1400.0" type="line"/>
      <point x="140.8" y="1220.0" type="line"/>
      <point x="931.4" y="1220.0" type="line"/>
    </contour>
  </outline>
</glyph>
<glyph name="eight" format="2">
  <advance width="1067.0"/>
  <unicode hex="0038"/>
  <outline>
    <contour>
      <point x="469.00000000000006" y="-26.0" type="curve" smooth="yes"/>
      <point x="715.1999999999999" y="-26.0"/>
      <point x="939.0" y="159.2"/>
      <point x="971.4" y="388.2" type="curve" smooth="yes"/>
      <point x="991.8" y="534.0"/>
      <point x="927.0" y="661.1999999999999"/>
      <point x="819.0" y="730.4" type="curve"/>
      <point x="930.8000000000001" y="798.4"/>
      <point x="1010.1999999999999" y="906.0"/>
      <point x="1026.3999999999999" y="1024.2" type="curve" smooth="yes"/>
      <point x="1057.2" y="1244.8000000000002"/>
      <point x="889.2" y="1426.0"/>
      <point x="653.4000000000001" y="1426.0" type="curve" smooth="yes"/>
      <point x="426.79999999999995" y="1426.0"/>
      <point x="219.4" y="1255.2"/>
      <point x="189.8" y="1043.8" type="curve" smooth="yes"/>
      <point x="171.60000000000002" y="916.4"/>
      <point x="227.2" y="805.6"/>
      <point x="313.2" y="743.1999999999999" type="curve"/>
      <point x="180.4" y="668.4"/>
      <point x="86.2" y="544.4"/>
      <point x="67.2" y="407.8" type="curve" smooth="yes"/>
      <point x="33.4" y="168.4"/>
      <point x="212.8" y="-26.0"/>
    </contour>
    <contour>
      <point x="473.80000000000007" y="154.0" type="curve" smooth="yes"/>
      <point x="335.59999999999997" y="154.0"/>
      <point x="235.8" y="258.0"/>
      <point x="253.8" y="388.2" type="curve" smooth="yes"/>
      <point x="274.0" y="528.4000000000001"/>
      <point x="413.8" y="642.0"/>
      <point x="562.8000000000001" y="642.0" type="curve" smooth="yes"/>
      <point x="704.1999999999999" y="642.0"/>
      <point x="801.8" y="538.0"/>
      <point x="782.8" y="407.8" type="curve" smooth="yes"/>
      <point x="763.4" y="268.40000000000003"/>
      <point x="625.1999999999999" y="154.0"/>
    </contour>
    <contour>
      <point x="568.4000000000001" y="822.0" type="curve" smooth="yes"/>
      <point x="446.2" y="822.0"/>
      <point x="362.4" y="912.4000000000001"/>
      <point x="377.6" y="1024.2" type="curve" smooth="yes"/>
      <point x="395.0" y="1146.0"/>
      <point x="515.6" y="1246.0"/>
      <point x="647.8000000000001" y="1246.0" type="curve" smooth="yes"/>
      <point x="769.1999999999999" y="1246.0"/>
      <point x="853.8" y="1156.3999999999999"/>
      <point x="838.6" y="1043.8" type="curve" smooth="yes"/>
      <point x="821.1999999999999" y="922.0"/>
      <point x="700.6" y="822.0"/>
    </contour>
  </outline>
</glyph>
<glyph name="nine" format="2">
  <advance width="1070.0"/>
  <unicode hex="0039"/>
  <outline>
    <contour>
      <point x="255.8" y="0.0" type="line"/>
      <point x="467.4" y="0.0" type="line"/>
      <point x="973.8000000000001" y="701.0" type="line" smooth="yes"/>
      <point x="1029.4" y="785.4000000000001"/>
      <point x="1059.8000000000002" y="850.4000000000001"/>
      <point x="1072.4" y="940.2" type="curve" smooth="yes"/>
      <point x="1109.0" y="1206.8000000000002"/>
      <point x="920.0" y="1426.0"/>
      <point x="655.8" y="1426.0" type="curve" smooth="yes"/>
      <point x="398.0" y="1426.0"/>
      <point x="160.8" y="1216.0"/>
      <point x="124.4" y="959.8" type="curve" smooth="yes"/>
      <point x="81.8" y="652.4"/>
      <point x="343.40000000000003" y="435.0"/>
      <point x="628.4" y="508.2" type="curve"/>
    </contour>
    <contour>
      <point x="545.4" y="654.0" type="curve" smooth="yes"/>
      <point x="385.8" y="654.0"/>
      <point x="278.4" y="782.0"/>
      <point x="300.4" y="939.8" type="curve" smooth="yes"/>
      <point x="322.59999999999997" y="1100.0"/>
      <point x="473.2" y="1246.8"/>
      <point x="651.0" y="1246.8" type="curve" smooth="yes"/>
      <point x="802.4" y="1246.8"/>
      <point x="918.6" y="1124.3999999999999"/>
      <point x="895.8000000000001" y="960.1999999999999" type="curve" smooth="yes"/>
      <point x="873.4000000000001" y="799.1999999999999"/>
      <point x="722.1999999999999" y="654.0"/>
    </contour>
  </outline>
</glyph>
<glyph name="colon" format="2">
  <advance width="395.0"/>
  <unicode hex="003A"/>
  <outline>
    <contour>
      <point x="230.2" y="804.8" type="curve" smooth="yes"/>
      <point x="278.4" y="804.8"/>
      <point x="323.2" y="842.8"/>
      <point x="330.2" y="893.0" type="curve" smooth="yes"/>
      <point x="338.4" y="951.2"/>
      <point x="296.4" y="1000.0"/>
      <point x="237.6" y="1000.0" type="curve" smooth="yes"/>
      <point x="188.8" y="1000.0"/>
      <point x="145.2" y="960.8"/>
      <point x="138.4" y="913.4" type="curve" smooth="yes"/>
      <point x="130.2" y="853.1999999999999"/>
      <point x="170.8" y="804.8"/>
    </contour>
    <contour>
      <point x="112.99999999999999" y="-26.0" type="curve" smooth="yes"/>
      <point x="162.0" y="-26.0"/>
      <point x="206.79999999999998" y="12.0"/>
      <point x="213.79999999999998" y="62.2" type="curve" smooth="yes"/>
      <point x="222.0" y="120.4"/>
      <point x="179.2" y="169.2"/>
      <point x="120.19999999999999" y="169.2" type="curve" smooth="yes"/>
      <point x="71.6" y="169.2"/>
      <point x="28.0" y="130.0"/>
      <point x="21.2" y="81.8" type="curve" smooth="yes"/>
      <point x="13.0" y="22.400000000000002"/>
      <point x="54.4" y="-26.0"/>
    </contour>
  </outline>
</glyph>
<glyph name="semicolon" format="2">
  <advance width="448.0"/>
  <unicode hex="003B"/>
  <outline>
    <contour>
      <point x="-6.2" y="-112.0" type="line"/>
      <point x="115.4" y="-112.0" type="line"/>
      <point x="285.2" y="226.0" type="line"/>
      <point x="102.8" y="226.0" type="line"/>
    </contour>
    <contour>
      <point x="284.2" y="804.8" type="curve" smooth="yes"/>
      <point x="331.59999999999997" y="804.8"/>
      <point x="376.4" y="842.8"/>
      <point x="383.4" y="892.2" type="curve" smooth="yes"/>
      <point x="391.59999999999997" y="951.2"/>
      <point x="349.59999999999997" y="1000.0"/>
      <point x="291.59999999999997" y="1000.0" type="curve" smooth="yes"/>
      <point x="241.2" y="1000.0"/>
      <point x="198.39999999999998" y="960.8"/>
      <point x="190.79999999999998" y="911.8" type="curve" smooth="yes"/>
      <point x="183.39999999999998" y="853.1999999999999"/>
      <point x="223.2" y="804.8"/>
    </contour>
  </outline>
</glyph>
<glyph name="less" format="2">
  <advance width="1160.0"/>
  <unicode hex="003C"/>
  <outline>
    <contour>
      <point x="1033.4" y="166.4" type="line"/>
      <point x="1058.8" y="352.8" type="line"/>
      <point x="228.0" y="600.0" type="line"/>
      <point x="1129.2" y="846.4" type="line"/>
      <point x="1155.4" y="1034.4" type="line"/>
      <point x="114.6" y="748.4" type="line"/>
      <point x="73.4" y="450.4" type="line"/>
    </contour>
  </outline>
</glyph>
<glyph name="equal" format="2">
  <advance width="1160.0"/>
  <unicode hex="003D"/>
  <outline>
    <contour>
      <point x="52.4" y="303.2" type="line"/>
      <point x="1052.4" y="303.2" type="line"/>
      <point x="1077.6" y="483.2" type="line"/>
      <point x="77.6" y="483.2" type="line"/>
    </contour>
    <contour>
      <point x="110.4" y="716.8" type="line"/>
      <point x="1110.4" y="716.8" type="line"/>
      <point x="1135.6" y="896.8" type="line"/>
      <point x="135.6" y="896.8" type="line"/>
    </contour>
  </outline>
</glyph>
<glyph name="greater" format="2">
  <advance width="1160.0"/>
  <unicode hex="003E"/>
  <outline>
    <contour>
      <point x="34.6" y="172.0" type="line"/>
      <point x="1073.4" y="450.4" type="line"/>
      <point x="1114.6" y="748.4" type="line"/>
      <point x="154.2" y="1028.0" type="line"/>
      <point x="128.0" y="840.0" type="line"/>
      <point x="960.0" y="600.0" type="line"/>
      <point x="60.0" y="359.2" type="line"/>
    </contour>
  </outline>
</glyph>
<glyph name="question" format="2">
  <advance width="1043.0"/>
  <unicode hex="003F"/>
  <outline>
    <contour>
      <point x="420.2" y="466.40000000000003" type="curve"/>
      <point x="599.0" y="456.0" type="line"/>
      <point x="609.2" y="529.4000000000001"/>
      <point x="661.2" y="595.8000000000001"/>
      <point x="733.6" y="626.8" type="curve" smooth="yes"/>
      <point x="874.2" y="701.6"/>
      <point x="971.2" y="842.4000000000001"/>
      <point x="992.8000000000001" y="996.2" type="curve" smooth="yes"/>
      <point x="1026.2" y="1233.2"/>
      <point x="859.6" y="1426.8"/>
      <point x="621.4000000000001" y="1426.8" type="curve" smooth="yes"/>
      <point x="394.8" y="1426.8"/>
      <point x="184.2" y="1242.8"/>
      <point x="152.0" y="1010.8" type="curve"/>
      <point x="330.8" y="1001.2" type="line"/>
      <point x="349.6" y="1134.8000000000002"/>
      <point x="478.0" y="1246.8"/>
      <point x="615.8000000000001" y="1246.8" type="curve" smooth="yes"/>
      <point x="744.4" y="1246.8"/>
      <point x="833.2" y="1145.2"/>
      <point x="815.4000000000001" y="1015.8" type="curve" smooth="yes"/>
      <point x="802.0" y="918.0"/>
      <point x="739.8000000000001" y="833.6"/>
      <point x="654.4" y="796.4" type="curve" smooth="yes"/>
      <point x="526.8000000000001" y="726.6"/>
      <point x="440.0" y="605.0"/>
    </contour>
    <contour>
      <point x="451.8" y="-26.0" type="curve" smooth="yes"/>
      <point x="500.8" y="-26.0"/>
      <point x="544.4" y="12.799999999999999"/>
      <point x="551.4" y="63.400000000000006" type="curve" smooth="yes"/>
      <point x="560.4" y="120.80000000000001"/>
      <point x="518.8" y="169.2"/>
      <point x="459.0" y="169.2" type="curve" smooth="yes"/>
      <point x="410.4" y="169.2"/>
      <point x="366.8" y="131.20000000000002"/>
      <point x="360.8" y="83.0" type="curve" smooth="yes"/>
      <point x="351.8" y="23.2"/>
      <point x="393.2" y="-26.0"/>
    </contour>
  </outline>
</glyph>
<glyph name="at" format="2">
  <advance width="1770.5"/>
  <unicode hex="0040"/>
  <outline>
    <contour>
      <point x="790.1999999999999" y="-210.8" type="curve"/>
      <point x="805.5999999999999" y="-30.799999999999997" type="line"/>
      <point x="459.59999999999997" y="-30.799999999999997"/>
      <point x="218.0" y="200.2"/>
      <point x="265.8" y="540.1999999999999" type="curve" smooth="yes"/>
      <point x="314.8" y="892.8000000000001"/>
      <point x="642.8000000000001" y="1176.0"/>
      <point x="990.4" y="1176.0" type="curve" smooth="yes"/>
      <point x="1328.8" y="1176.0"/>
      <point x="1566.8" y="901.8"/>
      <point x="1519.0" y="560.5999999999999" type="curve" smooth="yes"/>
      <point x="1499.8" y="428.2"/>
      <point x="1424.6000000000001" y="248.8"/>
      <point x="1310.8000000000002" y="248.8" type="curve" smooth="yes"/>
      <point x="1259.2" y="248.8"/>
      <point x="1219.2" y="285.4"/>
      <point x="1227.6" y="344.4" type="curve" smooth="yes"/>
      <point x="1306.0" y="902.6" type="line"/>
      <point x="1169.8" y="927.8" type="line"/>
      <point x="1153.3999999999999" y="835.4" type="line"/>
      <point x="1110.4" y="902.8000000000001"/>
      <point x="1016.8" y="948.0"/>
      <point x="911.4000000000001" y="948.0" type="curve" smooth="yes"/>
      <point x="697.4000000000001" y="948.0"/>
      <point x="499.4" y="774.8"/>
      <point x="469.4" y="560.5999999999999" type="curve" smooth="yes"/>
      <point x="437.4" y="335.8"/>
      <point x="595.0" y="152.8"/>
      <point x="819.8000000000001" y="152.8" type="curve" smooth="yes"/>
      <point x="920.4" y="152.8"/>
      <point x="1008.3999999999999" y="194.79999999999998"/>
      <point x="1073.8" y="271.40000000000003" type="curve"/>
      <point x="1068.4" y="162.20000000000002"/>
      <point x="1192.3999999999999" y="68.8"/>
      <point x="1315.6" y="68.8" type="curve" smooth="yes"/>
      <point x="1517.6" y="68.8"/>
      <point x="1664.2" y="313.4"/>
      <point x="1696.6" y="540.1999999999999" type="curve" smooth="yes"/>
      <point x="1759.0" y="987.4000000000001"/>
      <point x="1449.2" y="1356.0"/>
      <point x="996.1999999999999" y="1356.0" type="curve" smooth="yes"/>
      <point x="555.8000000000001" y="1356.0"/>
      <point x="150.4" y="1000.1999999999999"/>
      <point x="88.2" y="560.5999999999999" type="curve" smooth="yes"/>
      <point x="25.8" y="111.0"/>
      <point x="345.59999999999997" y="-210.8"/>
    </contour>
    <contour>
      <point x="831.6" y="291.8" type="curve" smooth="yes"/>
      <point x="696.8" y="291.8"/>
      <point x="598.8000000000001" y="400.79999999999995"/>
      <point x="619.0" y="540.1999999999999" type="curve" smooth="yes"/>
      <point x="639.6" y="689.2"/>
      <point x="776.8" y="808.2"/>
      <point x="924.4" y="808.2" type="curve" smooth="yes"/>
      <point x="1070.4" y="808.2"/>
      <point x="1134.8" y="696.4"/>
      <point x="1117.0" y="569.4" type="curve" smooth="yes"/>
      <point x="1097.2" y="428.8"/>
      <point x="979.2" y="291.8"/>
    </contour>
  </outline>
</glyph>
<glyph name="A" format="2">
  <advance width="1393.0"/>
  <unicode hex="0041"/>
  <outline>
    <contour>
      <point x="714.4" y="1400.0" type="line"/>
      <point x="7.8" y="0.0" type="line"/>
      <point x="202.0" y="0.0" type="line"/>
      <point x="343.4" y="280.0" type="line"/>
      <point x="990.2" y="280.0" type="line"/>
      <point x="1052.8000000000002" y="0.0" type="line"/>
      <point x="1241.0" y="0.0" type="line"/>
      <point x="929.1999999999999" y="1400.0" type="line"/>
    </contour>
    <contour>
      <point x="434.59999999999997" y="460.0" type="line"/>
      <point x="792.2" y="1167.2" type="line"/>
      <point x="949.4" y="460.0" type="line"/>
    </contour>
  </outline>
</glyph>
<glyph name="B" format="2">
  <advance width="1138.0"/>
  <unicode hex="0042"/>
  <outline>
    <contour>
      <point x="50.0" y="0.0" type="line"/>
      <point x="601.2" y="0.0" type="line" smooth="yes"/>
      <point x="816.4" y="0.0"/>
      <point x="1009.2" y="156.39999999999998"/>
      <point x="1041.4" y="381.79999999999995" type="curve" smooth="yes"/>
      <point x="1062.8" y="530.8"/>
      <point x="1027.0" y="725.4"/>
      <point x="868.4" y="767.2" type="curve"/>
      <point x="967.4000000000001" y="798.8000000000001"/>
      <point x="1044.6000000000001" y="914.0"/>
      <point x="1060.4" y="1027.4" type="curve" smooth="yes"/>
      <point x="1092.8000000000002" y="1260.0"/>
      <point x="939.6" y="1399.2"/>
      <point x="728.8" y="1399.2" type="curve" smooth="yes"/>
      <point x="246.0" y="1399.2" type="line"/>
    </contour>
    <contour>
      <point x="251.4" y="157.2" type="line"/>
      <point x="326.0" y="682.6" type="line"/>
      <point x="681.2" y="682.6" type="line" smooth="yes"/>
      <point x="816.4" y="682.6"/>
      <point x="903.6" y="562.4"/>
      <point x="885.2" y="433.0" type="curve" smooth="yes"/>
      <point x="863.6" y="274.8"/>
      <point x="732.1999999999999" y="157.2"/>
      <point x="597.8000000000001" y="157.2" type="curve" smooth="yes"/>
    </contour>
    <contour>
      <point x="347.4" y="837.4" type="line"/>
      <point x="404.6" y="1240.8" type="line"/>
      <point x="697.8000000000001" y="1240.8" type="line" smooth="yes"/>
      <point x="817.0" y="1240.8"/>
      <point x="901.8" y="1178.8"/>
      <point x="883.0" y="1048.2" type="curve" smooth="yes"/>
      <point x="864.4" y="917.1999999999999"/>
      <point x="750.0" y="837.4"/>
      <point x="630.8000000000001" y="837.4" type="curve" smooth="yes"/>
    </contour>
  </outline>
</glyph>
<glyph name="C" format="2">
  <advance width="1398.0"/>
  <unicode hex="0043"/>
  <outline>
    <contour>
      <point x="683.8" y="-26.0" type="curve"/>
      <point x="904.8" y="-26.0"/>
      <point x="1116.4" y="83.4"/>
      <point x="1267.4" y="258.2" type="curve"/>
      <point x="1113.4" y="352.40000000000003" type="line"/>
      <point x="1007.8" y="235.20000000000002"/>
      <point x="852.8" y="154.0"/>
      <point x="689.4" y="154.0" type="curve"/>
      <point x="414.79999999999995" y="154.0"/>
      <point x="225.2" y="394.0"/>
      <point x="266.8" y="690.2" type="curve"/>
      <point x="308.8" y="992.0"/>
      <point x="574.8000000000001" y="1246.0"/>
      <point x="863.4" y="1246.0" type="curve"/>
      <point x="1010.4" y="1246.0"/>
      <point x="1143.8000000000002" y="1173.6"/>
      <point x="1219.6" y="1054.3999999999999" type="curve"/>
      <point x="1385.4" y="1133.4" type="line"/>
      <point x="1282.4" y="1308.2"/>
      <point x="1099.2" y="1426.0"/>
      <point x="868.2" y="1426.0" type="curve"/>
      <point x="493.2" y="1426.0"/>
      <point x="145.2" y="1106.0"/>
      <point x="89.2" y="709.8" type="curve"/>
      <point x="32.2" y="304.0"/>
      <point x="298.8" y="-26.0"/>
    </contour>
  </outline>
</glyph>
<glyph name="D" format="2">
  <advance width="1343.0"/>
  <unicode hex="0044"/>
  <outline>
    <contour>
      <point x="50.0" y="0.0" type="line"/>
      <point x="517.2" y="0.0" type="line" smooth="yes"/>
      <point x="904.8" y="0.0"/>
      <point x="1256.2" y="309.2"/>
      <point x="1310.0" y="690.2" type="curve" smooth="yes"/>
      <point x="1364.2" y="1081.2"/>
      <point x="1091.2" y="1400.0"/>
      <point x="704.4000000000001" y="1400.0" type="curve" smooth="yes"/>
      <point x="246.0" y="1400.0" type="line"/>
    </contour>
    <contour>
      <point x="255.2" y="180.0" type="line"/>
      <point x="400.8" y="1220.0" type="line"/>
      <point x="689.8000000000001" y="1220.0" type="line" smooth="yes"/>
      <point x="975.8000000000001" y="1220.0"/>
      <point x="1172.0" y="992.0"/>
      <point x="1132.4" y="709.8" type="curve" smooth="yes"/>
      <point x="1091.6000000000001" y="417.2"/>
      <point x="819.1999999999999" y="180.0"/>
      <point x="532.8000000000001" y="180.0" type="curve" smooth="yes"/>
    </contour>
  </outline>
</glyph>
<glyph name="E" format="2">
  <advance width="1082.0"/>
  <unicode hex="0045"/>
  <outline>
    <contour>
      <point x="50.0" y="0.0" type="line"/>
      <point x="912.4" y="0.0" type="line"/>
      <point x="936.8" y="180.0" type="line"/>
      <point x="255.2" y="180.0" type="line"/>
      <point x="322.8" y="660.0" type="line"/>
      <point x="878.8" y="660.0" type="line"/>
      <point x="903.2" y="840.0" type="line"/>
      <point x="347.2" y="840.0" type="line"/>
      <point x="400.8" y="1220.0" type="line"/>
      <point x="1083.2" y="1220.0" type="line"/>
      <point x="1108.4" y="1400.0" type="line"/>
      <point x="246.0" y="1400.0" type="line"/>
    </contour>
  </outline>
</glyph>
<glyph name="F" format="2">
  <advance width="962.0"/>
  <unicode hex="0046"/>
  <outline>
    <contour>
      <point x="50.0" y="0.0" type="line"/>
      <point x="230.0" y="0.0" type="line"/>
      <point x="322.8" y="660.0" type="line"/>
      <point x="868.4" y="660.0" type="line"/>
      <point x="893.6" y="840.0" type="line"/>
      <point x="347.2" y="840.0" type="line"/>
      <point x="400.8" y="1220.0" type="line"/>
      <point x="1043.2" y="1220.0" type="line"/>
      <point x="1068.4" y="1400.0" type="line"/>
      <point x="246.0" y="1400.0" type="line"/>
    </contour>
  </outline>
</glyph>
<glyph name="G" format="2">
  <advance width="1496.5"/>
  <unicode hex="0047"/>
  <outline>
    <contour>
      <point x="685.4" y="-26.0" type="curve" smooth="yes"/>
      <point x="1058.0" y="-26.0"/>
      <point x="1404.2" y="292.4"/>
      <point x="1462.4" y="686.4000000000001" type="curve"/>
      <point x="922.4" y="691.2" type="line"/>
      <point x="899.8" y="531.2" type="line"/>
      <point x="1228.0" y="535.8000000000001" type="line"/>
      <point x="1132.3999999999999" y="314.6"/>
      <point x="915.6" y="154.0"/>
      <point x="691.8000000000001" y="154.0" type="curve" smooth="yes"/>
      <point x="415.2" y="154.0"/>
      <point x="225.0" y="392.79999999999995"/>
      <point x="266.6" y="687.8" type="curve" smooth="yes"/>
      <point x="310.0" y="1000.0"/>
      <point x="583.6" y="1246.0"/>
      <point x="865.4" y="1246.0" type="curve" smooth="yes"/>
      <point x="1003.1999999999999" y="1246.0"/>
      <point x="1136.2" y="1181.2"/>
      <point x="1219.6" y="1053.2" type="curve"/>
      <point x="1386.2" y="1133.0" type="line"/>
      <point x="1272.4" y="1321.4"/>
      <point x="1085.8" y="1424.8"/>
      <point x="871.8" y="1424.8" type="curve" smooth="yes"/>
      <point x="507.8" y="1424.8"/>
      <point x="147.6" y="1120.3999999999999"/>
      <point x="90.2" y="711.0" type="curve" smooth="yes"/>
      <point x="33.2" y="307.2"/>
      <point x="293.2" y="-26.0"/>
    </contour>
  </outline>
</glyph>
<glyph name="H" format="2">
  <advance width="1275.0"/>
  <unicode hex="0048"/>
  <outline>
    <contour>
      <point x="1101.2" y="1400.0" type="line"/>
      <point x="1022.4000000000001" y="840.0" type="line"/>
      <point x="347.2" y="840.0" type="line"/>
      <point x="426.0" y="1400.0" type="line"/>
      <point x="246.0" y="1400.0" type="line"/>
      <point x="50.0" y="0.0" type="line"/>
      <point x="230.0" y="0.0" type="line"/>
      <point x="322.8" y="660.0" type="line"/>
      <point x="997.2" y="660.0" type="line"/>
      <point x="905.2" y="0.0" type="line"/>
      <point x="1085.2" y="0.0" type="line"/>
      <point x="1281.2" y="1400.0" type="line"/>
    </contour>
  </outline>
</glyph>
<glyph name="I" format="2">
  <advance width="480.0"/>
  <unicode hex="0049"/>
  <outline>
    <contour>
      <point x="80.0" y="0.0" type="line"/>
      <point x="260.0" y="0.0" type="line"/>
      <point x="456.0" y="1400.0" type="line"/>
      <point x="276.0" y="1400.0" type="line"/>
    </contour>
  </outline>
</glyph>
<glyph name="J" format="2">
  <advance width="836.0"/>
  <unicode hex="004A"/>
  <outline>
    <contour>
      <point x="239.4" y="-26.0" type="curve" smooth="yes"/>
      <point x="462.4" y="-26.0"/>
      <point x="669.0" y="164.39999999999998"/>
      <point x="700.1999999999999" y="390.79999999999995" type="curve" smooth="yes"/>
      <point x="842.4" y="1400.0" type="line"/>
      <point x="662.4" y="1400.0" type="line"/>
      <point x="522.4" y="401.2" type="line" smooth="yes"/>
      <point x="504.4" y="272.8"/>
      <point x="377.59999999999997" y="154.0"/>
      <point x="244.20000000000002" y="154.0" type="curve" smooth="yes"/>
      <point x="189.20000000000002" y="154.0"/>
      <point x="142.0" y="174.20000000000002"/>
      <point x="110.19999999999999" y="205.0" type="curve"/>
      <point x="-18.0" y="73.0" type="line"/>
      <point x="47.8" y="9.799999999999999"/>
      <point x="138.0" y="-26.0"/>
    </contour>
  </outline>
</glyph>
<glyph name="K" format="2">
  <advance width="1107.0"/>
  <unicode hex="004B"/>
  <outline>
    <contour>
      <point x="995.4" y="0.0" type="line"/>
      <point x="550.8" y="739.2" type="line"/>
      <point x="1200.8000000000002" y="1400.0" type="line"/>
      <point x="961.8000000000001" y="1400.0" type="line"/>
      <point x="334.4" y="759.2" type="line"/>
      <point x="426.2" y="1400.0" type="line"/>
      <point x="246.0" y="1400.0" type="line"/>
      <point x="50.0" y="0.0" type="line"/>
      <point x="230.0" y="0.0" type="line"/>
      <point x="299.4" y="478.8" type="line"/>
      <point x="416.59999999999997" y="598.0" type="line"/>
      <point x="764.6" y="0.0" type="line"/>
    </contour>
  </outline>
</glyph>
<glyph name="L" format="2">
  <advance width="1020.0"/>
  <unicode hex="004C"/>
  <outline>
    <contour>
      <point x="50.0" y="0.0" type="line"/>
      <point x="850.4" y="0.0" type="line"/>
      <point x="874.8" y="180.0" type="line"/>
      <point x="255.2" y="180.0" type="line"/>
      <point x="426.0" y="1400.0" type="line"/>
      <point x="246.0" y="1400.0" type="line"/>
    </contour>
  </outline>
</glyph>
<glyph name="M" format="2">
  <advance width="1808.0"/>
  <unicode hex="004D"/>
  <outline>
    <contour>
      <point x="48.8" y="0.0" type="line"/>
      <point x="233.8" y="0.0" type="line"/>
      <point x="566.4000000000001" y="992.0" type="line"/>
      <point x="785.1999999999999" y="68.8" type="line"/>
      <point x="904.4" y="68.8" type="line"/>
      <point x="1383.2" y="992.0" type="line"/>
      <point x="1434.6000000000001" y="0.0" type="line"/>
      <point x="1616.8" y="0.0" type="line"/>
      <point x="1541.8" y="1400.0" type="line"/>
      <point x="1400.0" y="1400.0" type="line"/>
      <point x="889.4" y="421.2" type="line"/>
      <point x="656.8" y="1400.0" type="line"/>
      <point x="516.2" y="1400.0" type="line"/>
    </contour>
  </outline>
</glyph>
<glyph name="N" format="2">
  <advance width="1327.0"/>
  <unicode hex="004E"/>
  <outline>
    <contour>
      <point x="65.19999999999999" y="0.0" type="line"/>
      <point x="245.2" y="0.0" type="line"/>
      <point x="397.8" y="1074.8" type="line"/>
      <point x="929.8" y="0.0" type="line"/>
      <point x="1122.0" y="0.0" type="line"/>
      <point x="1318.0" y="1400.0" type="line"/>
      <point x="1138.0" y="1400.0" type="line"/>
      <point x="985.4" y="325.2" type="line"/>
      <point x="454.2" y="1400.0" type="line"/>
      <point x="261.2" y="1400.0" type="line"/>
    </contour>
  </outline>
</glyph>
<glyph name="O" format="2">
  <advance width="1540.0"/>
  <unicode hex="004F"/>
  <outline>
    <contour>
      <point x="705.8" y="-26.0" type="curve" smooth="yes"/>
      <point x="1080.8" y="-26.0"/>
      <point x="1431.8" y="295.2"/>
      <point x="1486.8" y="690.2" type="curve" smooth="yes"/>
      <point x="1543.8" y="1095.2"/>
      <point x="1275.2" y="1426.0"/>
      <point x="890.2" y="1426.0" type="curve" smooth="yes"/>
      <point x="515.2" y="1426.0"/>
      <point x="165.2" y="1104.8"/>
      <point x="109.2" y="709.8" type="curve" smooth="yes"/>
      <point x="52.2" y="304.8"/>
      <point x="320.8" y="-26.0"/>
    </contour>
    <contour>
      <point x="711.4" y="154.0" type="curve" smooth="yes"/>
      <point x="435.2" y="154.0"/>
      <point x="245.2" y="394.79999999999995"/>
      <point x="286.8" y="690.2" type="curve" smooth="yes"/>
      <point x="328.8" y="992.4000000000001"/>
      <point x="596.8000000000001" y="1246.0"/>
      <point x="885.4" y="1246.0" type="curve" smooth="yes"/>
      <point x="1160.8" y="1246.0"/>
      <point x="1350.8" y="1004.4"/>
      <point x="1309.2" y="709.8" type="curve" smooth="yes"/>
      <point x="1267.2" y="408.40000000000003"/>
      <point x="999.1999999999999" y="154.0"/>
    </contour>
  </outline>
</glyph>
<glyph name="P" format="2">
  <advance width="1070.0"/>
  <unicode hex="0050"/>
  <outline>
    <contour>
      <point x="50.0" y="0.0" type="line"/>
      <point x="230.0" y="0.0" type="line"/>
      <point x="310.0" y="572.0" type="line"/>
      <point x="603.8" y="572.0" type="line" smooth="yes"/>
      <point x="821.8" y="572.0"/>
      <point x="1024.8000000000002" y="748.0"/>
      <point x="1056.8000000000002" y="975.8" type="curve" smooth="yes"/>
      <point x="1090.0" y="1211.2"/>
      <point x="934.4000000000001" y="1400.0"/>
      <point x="709.2" y="1400.0" type="curve" smooth="yes"/>
      <point x="246.0" y="1400.0" type="line"/>
    </contour>
    <contour>
      <point x="335.2" y="752.0" type="line"/>
      <point x="404.6" y="1242.4" type="line"/>
      <point x="680.1999999999999" y="1242.4" type="line" smooth="yes"/>
      <point x="811.4" y="1242.4"/>
      <point x="900.4" y="1140.8"/>
      <point x="881.6" y="1007.0" type="curve" smooth="yes"/>
      <point x="861.4" y="863.1999999999999"/>
      <point x="732.4" y="752.0"/>
      <point x="601.1999999999999" y="752.0" type="curve" smooth="yes"/>
    </contour>
  </outline>
</glyph>
<glyph name="Q" format="2">
  <advance width="1561.0"/>
  <unicode hex="0051"/>
  <outline>
    <contour>
      <point x="1280.8" y="-31.2" type="line"/>
      <point x="1422.4" y="96.0" type="line"/>
      <point x="1279.2" y="257.4" type="line"/>
      <point x="1389.4" y="379.4"/>
      <point x="1463.2" y="530.8"/>
      <point x="1486.2" y="694.2" type="curve" smooth="yes"/>
      <point x="1543.2" y="1099.2"/>
      <point x="1275.4" y="1430.0"/>
      <point x="891.4" y="1430.0" type="curve" smooth="yes"/>
      <point x="514.6" y="1430.0"/>
      <point x="166.2" y="1108.8"/>
      <point x="110.4" y="713.8" type="curve" smooth="yes"/>
      <point x="53.2" y="308.40000000000003"/>
      <point x="321.2" y="-22.0"/>
      <point x="706.8" y="-22.0" type="curve" smooth="yes"/>
      <point x="860.0" y="-22.0"/>
      <point x="1011.8000000000001" y="31.800000000000004"/>
      <point x="1140.6000000000001" y="127.79999999999998" type="curve"/>
    </contour>
    <contour>
      <point x="711.8" y="158.0" type="curve" smooth="yes"/>
      <point x="437.0" y="158.0"/>
      <point x="245.4" y="398.4"/>
      <point x="287.8" y="694.2" type="curve" smooth="yes"/>
      <point x="329.8" y="994.8"/>
      <point x="597.0" y="1250.0"/>
      <point x="885.6" y="1250.0" type="curve" smooth="yes"/>
      <point x="1159.3999999999999" y="1250.0"/>
      <point x="1350.2" y="1009.1999999999999"/>
      <point x="1309.6000000000001" y="713.8" type="curve" smooth="yes"/>
      <point x="1292.4" y="596.8"/>
      <point x="1240.4" y="487.6"/>
      <point x="1163.4" y="399.6" type="curve"/>
      <point x="1014.8" y="566.4" type="line"/>
      <point x="873.1999999999999" y="438.4" type="line"/>
      <point x="1022.8000000000001" y="263.79999999999995" type="line"/>
      <point x="932.0" y="197.8"/>
      <point x="821.0" y="158.0"/>
    </contour>
  </outline>
</glyph>
<glyph name="R" format="2">
  <advance width="1168.0"/>
  <unicode hex="0052"/>
  <outline>
    <contour>
      <point x="65.19999999999999" y="0.0" type="line"/>
      <point x="245.2" y="0.0" type="line"/>
      <point x="325.2" y="572.0" type="line"/>
      <point x="545.0" y="572.0" type="line"/>
      <point x="796.1999999999999" y="0.0" type="line"/>
      <point x="1001.0" y="0.0" type="line"/>
      <point x="747.2" y="584.8000000000001" type="line"/>
      <point x="929.4000000000001" y="628.8000000000001"/>
      <point x="1074.4" y="782.4000000000001"/>
      <point x="1102.4" y="975.8" type="curve" smooth="yes"/>
      <point x="1134.8" y="1212.4"/>
      <point x="980.4000000000001" y="1400.0"/>
      <point x="755.2" y="1400.0" type="curve" smooth="yes"/>
      <point x="261.2" y="1400.0" type="line"/>
    </contour>
    <contour>
      <point x="350.4" y="752.0" type="line"/>
      <point x="419.8" y="1242.4" type="line"/>
      <point x="725.8" y="1242.4" type="line" smooth="yes"/>
      <point x="856.1999999999999" y="1242.4"/>
      <point x="945.2" y="1140.8"/>
      <point x="926.4000000000001" y="1007.0" type="curve" smooth="yes"/>
      <point x="906.2" y="863.1999999999999"/>
      <point x="777.1999999999999" y="752.0"/>
      <point x="646.8" y="752.0" type="curve" smooth="yes"/>
    </contour>
  </outline>
</glyph>
<glyph name="S" format="2">
  <advance width="1231.0"/>
  <unicode hex="0053"/>
  <outline>
    <contour>
      <point x="551.0" y="-26.0" type="curve" smooth="yes"/>
      <point x="819.1999999999999" y="-26.0"/>
      <point x="1074.0" y="130.0"/>
      <point x="1107.4" y="371.0" type="curve" smooth="yes"/>
      <point x="1142.2" y="618.0"/>
      <point x="917.4" y="744.5999999999999"/>
      <point x="645.6" y="787.8" type="curve" smooth="yes"/>
      <point x="469.0" y="821.4"/>
      <point x="334.40000000000003" y="848.0"/>
      <point x="356.40000000000003" y="1005.4000000000001" type="curve" smooth="yes"/>
      <point x="375.6" y="1144.4"/>
      <point x="552.0" y="1242.0"/>
      <point x="728.8000000000001" y="1240.8" type="curve" smooth="yes"/>
      <point x="880.4" y="1240.8"/>
      <point x="1019.4" y="1176.3999999999999"/>
      <point x="1042.6000000000001" y="1068.0" type="curve"/>
      <point x="1217.4" y="1118.8000000000002" type="line"/>
      <point x="1172.8" y="1308.8000000000002"/>
      <point x="961.1999999999999" y="1422.0"/>
      <point x="734.6" y="1422.0" type="curve" smooth="yes"/>
      <point x="469.59999999999997" y="1422.0"/>
      <point x="213.4" y="1266.0"/>
      <point x="179.0" y="1025.0" type="curve" smooth="yes"/>
      <point x="141.4" y="757.1999999999999"/>
      <point x="350.8" y="656.6"/>
      <point x="640.8000000000001" y="609.8" type="curve" smooth="yes"/>
      <point x="795.4000000000001" y="580.6"/>
      <point x="949.8" y="526.4"/>
      <point x="930.8" y="391.40000000000003" type="curve" smooth="yes"/>
      <point x="910.6" y="249.20000000000002"/>
      <point x="734.4" y="154.0"/>
      <point x="555.8000000000001" y="154.0" type="curve" smooth="yes"/>
      <point x="405.2" y="154.0"/>
      <point x="266.2" y="220.39999999999998"/>
      <point x="243.0" y="328.0" type="curve"/>
      <point x="69.8" y="275.2" type="line"/>
      <point x="110.2" y="90.39999999999999"/>
      <point x="318.8" y="-26.0"/>
    </contour>
  </outline>
</glyph>
<glyph name="T" format="2">
  <advance width="1259.0"/>
  <unicode hex="0054"/>
  <outline>
    <contour>
      <point x="1305.2" y="1400.0" type="line"/>
      <point x="206.0" y="1400.0" type="line"/>
      <point x="180.8" y="1220.0" type="line"/>
      <point x="640.0" y="1220.0" type="line"/>
      <point x="469.20000000000005" y="0.0" type="line"/>
      <point x="649.2" y="0.0" type="line"/>
      <point x="820.0" y="1220.0" type="line"/>
      <point x="1280.0" y="1220.0" type="line"/>
    </contour>
  </outline>
</glyph>
<glyph name="U" format="2">
  <advance width="1339.0"/>
  <unicode hex="0055"/>
  <outline>
    <contour>
      <point x="605.8" y="-26.0" type="curve" smooth="yes"/>
      <point x="936.8" y="-26.0"/>
      <point x="1182.6" y="241.2"/>
      <point x="1230.6" y="579.2" type="curve" smooth="yes"/>
      <point x="1344.8" y="1400.0" type="line"/>
      <point x="1164.8" y="1400.0" type="line"/>
      <point x="1051.8" y="588.8" type="line" smooth="yes"/>
      <point x="1018.1999999999999" y="355.2"/>
      <point x="856.4" y="154.0"/>
      <point x="611.4" y="154.0" type="curve" smooth="yes"/>
      <point x="379.2" y="154.0"/>
      <point x="278.2" y="344.4"/>
      <point x="311.8" y="579.2" type="curve" smooth="yes"/>
      <point x="426.0" y="1400.0" type="line"/>
      <point x="246.0" y="1400.0" type="line"/>
      <point x="132.2" y="588.8" type="line" smooth="yes"/>
      <point x="85.0" y="250.8"/>
      <point x="264.8" y="-26.0"/>
    </contour>
  </outline>
</glyph>
<glyph name="V" format="2">
  <advance width="1281.0"/>
  <unicode hex="0056"/>
  <outline>
    <contour>
      <point x="459.2" y="0.0" type="line"/>
      <point x="683.2" y="0.0" type="line"/>
      <point x="1389.0" y="1400.0" type="line"/>
      <point x="1194.8" y="1400.0" type="line"/>
      <point x="597.4" y="218.4" type="line"/>
      <point x="336.40000000000003" y="1400.0" type="line"/>
      <point x="148.2" y="1400.0" type="line"/>
    </contour>
  </outline>
</glyph>
<glyph name="W" format="2">
  <advance width="1836.0"/>
  <unicode hex="0057"/>
  <outline>
    <contour>
      <point x="389.2" y="0.0" type="line"/>
      <point x="596.8" y="0.0" type="line"/>
      <point x="988.8" y="988.4" type="line"/>
      <point x="1102.0" y="0.0" type="line"/>
      <point x="1311.2" y="0.0" type="line"/>
      <point x="1863.2" y="1400.0" type="line"/>
      <point x="1675.8" y="1400.0" type="line"/>
      <point x="1247.3999999999999" y="319.2" type="line"/>
      <point x="1124.6" y="1400.0" type="line"/>
      <point x="962.2" y="1400.0" type="line"/>
      <point x="533.8" y="319.2" type="line"/>
      <point x="411.8" y="1400.0" type="line"/>
      <point x="227.2" y="1400.0" type="line"/>
    </contour>
  </outline>
</glyph>
<glyph name="X" format="2">
  <advance width="1368.0"/>
  <unicode hex="0058"/>
  <outline>
    <contour>
      <point x="-12.2" y="0.0" type="line"/>
      <point x="215.4" y="0.0" type="line"/>
      <point x="695.4" y="550.4" type="line"/>
      <point x="1016.1999999999999" y="0.0" type="line"/>
      <point x="1235.8" y="0.0" type="line"/>
      <point x="825.0" y="704.0" type="line"/>
      <point x="1432.4" y="1402.0" type="line"/>
      <point x="1206.8" y="1402.0" type="line"/>
      <point x="730.4" y="856.4" type="line"/>
      <point x="410.8" y="1402.0" type="line"/>
      <point x="192.4" y="1402.0" type="line"/>
      <point x="601.8" y="704.0" type="line"/>
    </contour>
  </outline>
</glyph>
<glyph name="Y" format="2">
  <advance width="1250.0"/>
  <unicode hex="0059"/>
  <outline>
    <contour>
      <point x="1102.6" y="1400.0" type="line"/>
      <point x="667.5999999999999" y="828.8" type="line"/>
      <point x="396.2" y="1400.0" type="line"/>
      <point x="188.4" y="1400.0" type="line"/>
      <point x="555.8" y="633.2" type="line"/>
      <point x="464.79999999999995" y="0.0" type="line"/>
      <point x="644.8" y="0.0" type="line"/>
      <point x="735.8" y="633.2" type="line"/>
      <point x="1318.8000000000002" y="1400.0" type="line"/>
    </contour>
  </outline>
</glyph>
<glyph name="Z" format="2">
  <advance width="1372.0"/>
  <unicode hex="005A"/>
  <outline>
    <contour>
      <point x="50.0" y="0.0" type="line"/>
      <point x="1182.0" y="0.0" type="line"/>
      <point x="1207.2" y="180.0" type="line"/>
      <point x="319.4" y="180.0" type="line"/>
      <point x="1355.0" y="1220.0" type="line"/>
      <point x="1378.0" y="1400.0" type="line"/>
      <point x="246.0" y="1400.0" type="line"/>
      <point x="220.8" y="1220.0" type="line"/>
      <point x="1109.4" y="1220.0" type="line"/>
      <point x="73.8" y="180.0" type="line"/>
    </contour>
  </outline>
</glyph>
<glyph name="bracketleft" format="2">
  <advance width="578.0"/>
  <unicode hex="005B"/>
  <outline>
    <contour>
      <point x="416.79999999999995" y="68.0" type="line"/>
      <point x="239.2" y="68.0" type="line"/>
      <point x="400.8" y="1220.0" type="line"/>
      <point x="579.1999999999999" y="1220.0" type="line"/>
      <point x="604.4" y="1400.0" type="line"/>
      <point x="246.0" y="1400.0" type="line"/>
      <point x="34.0" y="-112.0" type="line"/>
      <point x="392.4" y="-112.0" type="line"/>
    </contour>
  </outline>
</glyph>
<glyph name="bracketright" format="2">
  <advance width="579.0"/>
  <unicode hex="005D"/>
  <outline>
    <contour>
      <point x="14.0" y="-112.0" type="line"/>
      <point x="372.8" y="-112.0" type="line"/>
      <point x="584.8" y="1400.0" type="line"/>
      <point x="226.0" y="1400.0" type="line"/>
      <point x="200.8" y="1220.0" type="line"/>
      <point x="380.40000000000003" y="1220.0" type="line"/>
      <point x="218.0" y="68.0" type="line"/>
      <point x="39.2" y="68.0" type="line"/>
    </contour>
  </outline>
</glyph>
<glyph name="asciicircum" format="2">
  <advance width="852.0"/>
  <unicode hex="005E"/>
  <outline>
    <contour>
      <point x="148.8" y="1000.0" type="line"/>
      <point x="343.4" y="1000.0" type="line"/>
      <point x="558.8" y="1424.8" type="line"/>
      <point x="652.2" y="1000.0" type="line"/>
      <point x="840.8" y="1000.0" type="line"/>
      <point x="695.8" y="1650.0" type="line"/>
      <point x="475.8" y="1650.0" type="line"/>
    </contour>
  </outline>
</glyph>
<glyph name="underscore" format="2">
  <advance width="1240.0"/>
  <unicode hex="005F"/>
  <outline>
    <contour>
      <point x="59.2" y="68.0" type="line"/>
      <point x="34.0" y="-112.0" type="line"/>
      <point x="1034.0" y="-112.0" type="line"/>
      <point x="1059.2" y="68.0" type="line"/>
    </contour>
  </outline>
</glyph>
<glyph name="grave" format="2">
  <advance width="1060.0"/>
  <unicode hex="0060"/>
  <outline>
    <contour>
      <point x="452.2" y="1426.0" type="line"/>
      <point x="581.8" y="1138.0" type="line"/>
      <point x="668.8" y="1138.0" type="line"/>
      <point x="628.8" y="1426.0" type="line"/>
    </contour>
  </outline>
</glyph>
<glyph name="a" format="2">
  <advance width="1227.0"/>
  <unicode hex="0061"/>
  <outline>
    <contour>
      <point x="996.8" y="1000.0" type="line"/>
      <point x="971.4" y="834.0" type="line"/>
      <point x="920.2" y="947.2"/>
      <point x="816.4" y="1028.0"/>
      <point x="660.2" y="1028.0" type="curve"/>
      <point x="375.2" y="1028.0"/>
      <point x="111.2" y="796.8"/>
      <point x="71.2" y="509.8" type="curve"/>
      <point x="29.200000000000003" y="214.8"/>
      <point x="236.8" y="-26.0"/>
      <point x="531.8" y="-26.0" type="curve"/>
      <point x="678.0" y="-26.0"/>
      <point x="799.6" y="46.8"/>
      <point x="882.8" y="160.0" type="curve"/>
      <point x="856.6" y="0.0" type="line"/>
      <point x="1036.8" y="0.0" type="line"/>
      <point x="1176.8" y="1000.0" type="line"/>
    </contour>
    <contour>
      <point x="538.8" y="148.4" type="curve"/>
      <point x="357.6" y="148.4"/>
      <point x="226.2" y="298.8"/>
      <point x="252.8" y="490.2" type="curve"/>
      <point x="280.6" y="690.4"/>
      <point x="462.4" y="853.2"/>
      <point x="657.2" y="853.2" type="curve"/>
      <point x="841.2" y="853.2"/>
      <point x="940.8" y="702.4"/>
      <point x="913.2" y="509.8" type="curve"/>
      <point x="885.4" y="312.4"/>
      <point x="734.8" y="148.4"/>
    </contour>
  </outline>
</glyph>
<glyph name="b" format="2">
  <advance width="1217.0"/>
  <unicode hex="0062"/>
  <outline>
    <contour>
      <point x="693.8" y="1028.0" type="curve"/>
      <point x="549.6" y="1028.0"/>
      <point x="428.2" y="955.1999999999999"/>
      <point x="345.0" y="842.0" type="curve"/>
      <point x="441.0" y="1500.0" type="line"/>
      <point x="261.0" y="1500.0" type="line"/>
      <point x="50.0" y="0.0" type="line"/>
      <point x="230.0" y="0.0" type="line"/>
      <point x="256.2" y="168.0" type="line"/>
      <point x="308.40000000000003" y="54.800000000000004"/>
      <point x="411.2" y="-26.0"/>
      <point x="566.1999999999999" y="-26.0" type="curve"/>
      <point x="852.4" y="-26.0"/>
      <point x="1115.6" y="205.2"/>
      <point x="1156.3999999999999" y="491.4" type="curve"/>
      <point x="1197.6" y="787.2"/>
      <point x="990.8" y="1028.0"/>
    </contour>
    <contour>
      <point x="568.4" y="148.8" type="curve"/>
      <point x="385.59999999999997" y="148.8"/>
      <point x="287.0" y="300.4"/>
      <point x="314.40000000000003" y="491.4" type="curve"/>
      <point x="341.40000000000003" y="688.8"/>
      <point x="492.8" y="854.4"/>
      <point x="687.6" y="854.4" type="curve"/>
      <point x="869.2" y="854.4"/>
      <point x="1001.5999999999999" y="703.1999999999999"/>
      <point x="974.1999999999999" y="511.0" type="curve"/>
      <point x="946.1999999999999" y="312.40000000000003"/>
      <point x="764.4000000000001" y="148.8"/>
    </contour>
  </outline>
</glyph>
<glyph name="c" format="2">
  <advance width="1019.0"/>
  <unicode hex="0063"/>
  <outline>
    <contour>
      <point x="761.4" y="273.2" type="line"/>
      <point x="696.0" y="204.79999999999998"/>
      <point x="600.8" y="154.0"/>
      <point x="501.4" y="154.0" type="curve"/>
      <point x="328.4" y="154.0"/>
      <point x="213.2" y="306.79999999999995"/>
      <point x="238.8" y="490.2" type="curve"/>
      <point x="265.6" y="682.4000000000001"/>
      <point x="432.40000000000003" y="848.0"/>
      <point x="619.4" y="848.0" type="curve"/>
      <point x="701.6" y="848.0"/>
      <point x="784.4000000000001" y="809.1999999999999"/>
      <point x="834.6" y="734.8000000000001" type="curve"/>
      <point x="1000.8000000000001" y="814.2" type="line"/>
      <point x="927.4" y="942.2"/>
      <point x="792.4000000000001" y="1028.0"/>
      <point x="624.2" y="1028.0" type="curve"/>
      <point x="353.2" y="1028.0"/>
      <point x="101.2" y="796.8"/>
      <point x="61.2" y="509.8" type="curve"/>
      <point x="19.2" y="214.8"/>
      <point x="214.8" y="-26.0"/>
      <point x="495.8" y="-26.0" type="curve"/>
      <point x="654.0" y="-26.0"/>
      <point x="808.4" y="52.2"/>
      <point x="916.6" y="179.0" type="curve"/>
    </contour>
  </outline>
</glyph>
<glyph name="d" format="2">
  <advance width="1222.0"/>
  <unicode hex="0064"/>
  <outline>
    <contour>
      <point x="1057.6" y="1500.0" type="line"/>
      <point x="961.4" y="834.0" type="line"/>
      <point x="910.2" y="947.1999999999999"/>
      <point x="806.4000000000001" y="1026.8"/>
      <point x="650.2" y="1026.8" type="curve"/>
      <point x="365.2" y="1026.8"/>
      <point x="101.2" y="796.4"/>
      <point x="61.2" y="509.8" type="curve"/>
      <point x="19.2" y="214.8"/>
      <point x="226.8" y="-26.0"/>
      <point x="521.8" y="-26.0" type="curve"/>
      <point x="668.0" y="-26.0"/>
      <point x="789.4" y="46.4"/>
      <point x="871.8" y="158.79999999999998" type="curve"/>
      <point x="846.5999999999999" y="0.0" type="line"/>
      <point x="1026.8" y="0.0" type="line"/>
      <point x="1237.8" y="1500.0" type="line"/>
    </contour>
    <contour>
      <point x="528.8" y="148.4" type="curve"/>
      <point x="347.59999999999997" y="148.4"/>
      <point x="215.2" y="298.4"/>
      <point x="242.8" y="490.2" type="curve"/>
      <point x="270.6" y="690.4000000000001"/>
      <point x="453.2" y="853.2"/>
      <point x="647.1999999999999" y="853.2" type="curve"/>
      <point x="831.2" y="853.2"/>
      <point x="930.8" y="702.4"/>
      <point x="903.2" y="509.8" type="curve"/>
      <point x="875.4" y="311.2"/>
      <point x="724.8" y="148.4"/>
    </contour>
  </outline>
</glyph>
<glyph name="e" format="2">
  <advance width="1119.0"/>
  <unicode hex="0065"/>
  <outline>
    <contour>
      <point x="495.8" y="-26.0" type="curve" smooth="yes"/>
      <point x="690.8" y="-26.0"/>
      <point x="877.2" y="93.2"/>
      <point x="982.4000000000001" y="271.2" type="curve"/>
      <point x="801.8" y="321.8" type="line"/>
      <point x="728.4" y="219.20000000000002"/>
      <point x="620.4" y="153.8"/>
      <point x="501.4" y="154.0" type="curve" smooth="yes"/>
      <point x="345.4" y="155.2"/>
      <point x="242.4" y="270.0"/>
      <point x="240.4" y="430.59999999999997" type="curve"/>
      <point x="1045.8" y="430.59999999999997" type="line"/>
      <point x="1118.0" y="756.6"/>
      <point x="932.2" y="1028.0"/>
      <point x="624.2" y="1028.0" type="curve" smooth="yes"/>
      <point x="353.2" y="1028.0"/>
      <point x="101.2" y="796.8"/>
      <point x="61.2" y="510.8" type="curve" smooth="yes"/>
      <point x="19.2" y="214.8"/>
      <point x="214.8" y="-26.0"/>
    </contour>
    <contour>
      <point x="258.40000000000003" y="570.6" type="line"/>
      <point x="303.4" y="734.1999999999999"/>
      <point x="455.4" y="868.0"/>
      <point x="621.2" y="868.0" type="curve" smooth="yes"/>
      <point x="777.6" y="868.0"/>
      <point x="889.6" y="740.5999999999999"/>
      <point x="885.8" y="580.1999999999999" type="curve"/>
    </contour>
  </outline>
</glyph>
<glyph name="f" format="2">
  <advance width="691.0"/>
  <unicode hex="0066"/>
  <outline>
    <contour>
      <point x="459.8" y="1237.2" type="line"/>
      <point x="468.4" y="1294.0"/>
      <point x="526.0" y="1344.0"/>
      <point x="587.8" y="1344.0" type="curve"/>
      <point x="613.1999999999999" y="1344.0"/>
      <point x="639.0" y="1334.0"/>
      <point x="654.1999999999999" y="1309.2" type="curve"/>
      <point x="797.1999999999999" y="1428.8000000000002" type="line"/>
      <point x="747.8" y="1490.6000000000001"/>
      <point x="676.0" y="1524.0"/>
      <point x="595.8" y="1524.0" type="curve"/>
      <point x="442.8" y="1524.0"/>
      <point x="302.2" y="1401.2"/>
      <point x="281.0" y="1245.2" type="curve"/>
      <point x="246.8" y="1000.0" type="line"/>
      <point x="120.8" y="1000.0" type="line"/>
      <point x="94.8" y="820.0" type="line"/>
      <point x="220.8" y="820.0" type="line"/>
      <point x="106.0" y="0.0" type="line"/>
      <point x="286.0" y="0.0" type="line"/>
      <point x="400.8" y="820.0" type="line"/>
      <point x="690.8" y="820.0" type="line"/>
      <point x="716.8" y="1000.0" type="line"/>
      <point x="426.8" y="1000.0" type="line"/>
    </contour>
  </outline>
</glyph>
<glyph name="g" format="2">
  <advance width="1195.0"/>
  <unicode hex="0067"/>
  <outline>
    <contour>
      <point x="964.8" y="1000.0" type="line"/>
      <point x="939.4" y="837.1999999999999" type="line"/>
      <point x="887.8" y="948.4"/>
      <point x="786.8" y="1026.8"/>
      <point x="637.4000000000001" y="1026.8" type="curve" smooth="yes"/>
      <point x="359.59999999999997" y="1026.8"/>
      <point x="101.2" y="796.4"/>
      <point x="61.2" y="509.8" type="curve" smooth="yes"/>
      <point x="19.2" y="214.8"/>
      <point x="221.2" y="-26.0"/>
      <point x="509.00000000000006" y="-26.0" type="curve" smooth="yes"/>
      <point x="648.4" y="-26.0"/>
      <point x="767.0" y="45.199999999999996"/>
      <point x="849.8" y="156.4" type="curve"/>
      <point x="821.4" y="-25.2" type="line" smooth="yes"/>
      <point x="797.8" y="-190.39999999999998"/>
      <point x="609.1999999999999" y="-318.8"/>
      <point x="431.80000000000007" y="-318.8" type="curve" smooth="yes"/>
      <point x="301.2" y="-318.8"/>
      <point x="179.8" y="-222.8"/>
      <point x="160.20000000000002" y="-88.0" type="curve"/>
      <point x="-10.799999999999994" y="-152.8" type="line"/>
      <point x="30.400000000000013" y="-345.2"/>
      <point x="211.60000000000002" y="-500.0"/>
      <point x="426.80000000000007" y="-500.0" type="curve" smooth="yes"/>
      <point x="691.5999999999999" y="-500.0"/>
      <point x="962.0" y="-302.8"/>
      <point x="999.4" y="-34.8" type="curve" smooth="yes"/>
      <point x="1144.8" y="1000.0" type="line"/>
    </contour>
    <contour>
      <point x="515.1999999999999" y="148.4" type="curve" smooth="yes"/>
      <point x="339.59999999999997" y="148.4"/>
      <point x="215.2" y="299.2"/>
      <point x="242.8" y="490.2" type="curve" smooth="yes"/>
      <point x="270.6" y="690.4000000000001"/>
      <point x="445.2" y="853.2"/>
      <point x="634.4" y="853.2" type="curve" smooth="yes"/>
      <point x="813.5999999999999" y="853.2"/>
      <point x="912.4" y="698.4"/>
      <point x="884.8" y="509.8" type="curve" smooth="yes"/>
      <point x="857.8" y="315.2"/>
      <point x="706.4000000000001" y="148.4"/>
    </contour>
  </outline>
</glyph>
<glyph name="h" format="2">
  <advance width="1108.0"/>
  <unicode hex="0068"/>
  <outline>
    <contour>
      <point x="1031.4" y="524.0" type="line"/>
      <point x="1065.2" y="794.4000000000001"/>
      <point x="918.8" y="1026.8"/>
      <point x="649.0" y="1026.8" type="curve"/>
      <point x="530.8" y="1026.8"/>
      <point x="426.8" y="985.5999999999999"/>
      <point x="350.2" y="871.5999999999999" type="curve"/>
      <point x="441.0" y="1500.0" type="line"/>
      <point x="261.0" y="1500.0" type="line"/>
      <point x="50.0" y="0.0" type="line"/>
      <point x="231.2" y="0.0" type="line"/>
      <point x="304.2" y="520.0" type="line"/>
      <point x="329.4" y="700.8"/>
      <point x="459.6" y="853.2"/>
      <point x="628.4" y="853.2" type="curve"/>
      <point x="777.5999999999999" y="853.2"/>
      <point x="878.0" y="711.1999999999999"/>
      <point x="851.8" y="530.4" type="curve"/>
      <point x="778.4" y="0.0" type="line"/>
      <point x="958.4000000000001" y="0.0" type="line"/>
    </contour>
  </outline>
</glyph>
<glyph name="i" format="2">
  <advance width="436.0"/>
  <unicode hex="0069"/>
  <outline>
    <contour>
      <point x="194.4" y="1000.0" type="line"/>
      <point x="54.400000000000006" y="0.0" type="line"/>
      <point x="234.39999999999998" y="0.0" type="line"/>
      <point x="374.4" y="1000.0" type="line"/>
    </contour>
    <contour>
      <point x="318.2" y="1150.4" type="curve"/>
      <point x="367.8" y="1150.4"/>
      <point x="412.0" y="1190.0"/>
      <point x="418.2" y="1237.0" type="curve"/>
      <point x="427.2" y="1295.2"/>
      <point x="384.8" y="1344.8"/>
      <point x="326.4" y="1344.8" type="curve"/>
      <point x="277.2" y="1344.8"/>
      <point x="233.2" y="1304.8"/>
      <point x="226.4" y="1257.3999999999999" type="curve"/>
      <point x="218.2" y="1200.3999999999999"/>
      <point x="260.2" y="1150.4"/>
    </contour>
  </outline>
</glyph>
<glyph name="j" format="2">
  <advance width="497.0"/>
  <unicode hex="006A"/>
  <outline>
    <contour>
      <point x="-221.0" y="-500.0" type="curve"/>
      <point x="21.19999999999999" y="-500.0"/>
      <point x="223.2" y="-320.8"/>
      <point x="256.2" y="-92.8" type="curve"/>
      <point x="409.2" y="1000.0" type="line"/>
      <point x="229.2" y="1000.0" type="line"/>
      <point x="77.39999999999999" y="-83.2" type="line"/>
      <point x="58.59999999999999" y="-214.39999999999998"/>
      <point x="-65.8" y="-320.0"/>
      <point x="-194.8" y="-320.0" type="curve"/>
      <point x="-190.0" y="-320.0"/>
      <point x="-225.8" y="-500.0"/>
    </contour>
    <contour>
      <point x="350.2" y="1150.4" type="curve"/>
      <point x="398.59999999999997" y="1150.4"/>
      <point x="444.2" y="1188.8000000000002"/>
      <point x="450.2" y="1237.0" type="curve"/>
      <point x="459.2" y="1296.4"/>
      <point x="415.59999999999997" y="1344.8"/>
      <point x="358.4" y="1344.8" type="curve"/>
      <point x="308.8" y="1344.8"/>
      <point x="265.2" y="1306.0"/>
      <point x="258.4" y="1257.3999999999999" type="curve"/>
      <point x="250.2" y="1199.2"/>
      <point x="291.8" y="1150.4"/>
    </contour>
  </outline>
</glyph>
<glyph name="k" format="2">
  <advance width="1031.0"/>
  <unicode hex="006B"/>
  <outline>
    <contour>
      <point x="887.4" y="0.0" type="line"/>
      <point x="628.4" y="595.2" type="line"/>
      <point x="1027.0" y="1000.0" type="line"/>
      <point x="788.1999999999999" y="1000.0" type="line"/>
      <point x="315.59999999999997" y="517.2" type="line"/>
      <point x="456.2" y="1500.0" type="line"/>
      <point x="276.2" y="1500.0" type="line"/>
      <point x="65.19999999999999" y="0.0" type="line"/>
      <point x="245.2" y="0.0" type="line"/>
      <point x="279.8" y="236.8" type="line"/>
      <point x="488.8" y="448.0" type="line"/>
      <point x="683.4" y="0.0" type="line"/>
    </contour>
  </outline>
</glyph>
<glyph name="l" format="2">
  <advance width="450.0"/>
  <unicode hex="006C"/>
  <outline>
    <contour>
      <point x="65.19999999999999" y="0.8" type="line"/>
      <point x="245.2" y="0.8" type="line"/>
      <point x="456.2" y="1500.0" type="line"/>
      <point x="276.2" y="1500.0" type="line"/>
    </contour>
  </outline>
</glyph>
<glyph name="m" format="2">
  <advance width="1719.0"/>
  <unicode hex="006D"/>
  <outline>
    <contour>
      <point x="20.400000000000006" y="0.0" type="line"/>
      <point x="200.39999999999998" y="0.0" type="line"/>
      <point x="273.4" y="526.4000000000001" type="line" smooth="yes"/>
      <point x="296.2" y="688.6"/>
      <point x="424.4" y="835.8"/>
      <point x="572.2" y="835.8" type="curve" smooth="yes"/>
      <point x="718.2" y="835.8"/>
      <point x="798.8" y="708.5999999999999"/>
      <point x="776.1999999999999" y="546.4" type="curve" smooth="yes"/>
      <point x="699.4" y="0.0" type="line"/>
      <point x="879.4" y="0.0" type="line"/>
      <point x="954.8" y="536.0" type="line" smooth="yes"/>
      <point x="977.6" y="698.1999999999999"/>
      <point x="1105.0" y="835.8"/>
      <point x="1261.4" y="835.8" type="curve" smooth="yes"/>
      <point x="1407.6000000000001" y="835.8"/>
      <point x="1478.6000000000001" y="708.5999999999999"/>
      <point x="1455.2" y="546.4" type="curve" smooth="yes"/>
      <point x="1379.2" y="0.0" type="line"/>
      <point x="1559.2" y="0.0" type="line"/>
      <point x="1633.8" y="536.0" type="line" smooth="yes"/>
      <point x="1670.8" y="794.4000000000001"/>
      <point x="1525.8" y="1015.8"/>
      <point x="1266.4" y="1015.8" type="curve" smooth="yes"/>
      <point x="1119.2" y="1015.8"/>
      <point x="993.6" y="943.4"/>
      <point x="896.4" y="810.6" type="curve"/>
      <point x="843.2" y="933.8"/>
      <point x="737.1999999999999" y="1015.8"/>
      <point x="577.2" y="1015.8" type="curve" smooth="yes"/>
      <point x="472.40000000000003" y="1015.8"/>
      <point x="396.2" y="965.8000000000001"/>
      <point x="318.59999999999997" y="874.4" type="curve"/>
      <point x="340.79999999999995" y="1000.0" type="line"/>
      <point x="160.4" y="1000.0" type="line"/>
    </contour>
  </outline>
</glyph>
<glyph name="n" format="2">
  <advance width="1127.0"/>
  <unicode hex="006E"/>
  <outline>
    <contour>
      <point x="1030.4" y="525.2" type="line"/>
      <point x="1065.2" y="794.8"/>
      <point x="918.8" y="1028.0"/>
      <point x="649.0" y="1028.0" type="curve"/>
      <point x="526.8" y="1028.0"/>
      <point x="414.59999999999997" y="964.4"/>
      <point x="327.4" y="855.6" type="curve"/>
      <point x="350.2" y="1000.0" type="line"/>
      <point x="170.0" y="1000.0" type="line"/>
      <point x="30.0" y="0.0" type="line"/>
      <point x="210.0" y="0.0" type="line"/>
      <point x="283.0" y="521.2" type="line"/>
      <point x="308.2" y="700.8"/>
      <point x="449.2" y="854.4"/>
      <point x="617.6" y="854.4" type="curve"/>
      <point x="777.5999999999999" y="854.4"/>
      <point x="876.8000000000001" y="711.1999999999999"/>
      <point x="851.4000000000001" y="530.8" type="curve"/>
      <point x="777.2" y="0.0" type="line"/>
      <point x="957.2" y="0.0" type="line"/>
    </contour>
  </outline>
</glyph>
<glyph name="o" format="2">
  <advance width="1120.0"/>
  <unicode hex="006F"/>
  <outline>
    <contour>
      <point x="495.8" y="-26.0" type="curve" smooth="yes"/>
      <point x="766.8" y="-26.0"/>
      <point x="1018.8" y="205.2"/>
      <point x="1058.8" y="490.2" type="curve" smooth="yes"/>
      <point x="1100.8" y="787.2"/>
      <point x="905.2" y="1028.0"/>
      <point x="624.2" y="1028.0" type="curve" smooth="yes"/>
      <point x="353.2" y="1028.0"/>
      <point x="101.2" y="796.8"/>
      <point x="61.2" y="509.8" type="curve" smooth="yes"/>
      <point x="19.2" y="214.8"/>
      <point x="214.8" y="-26.0"/>
    </contour>
    <contour>
      <point x="501.4" y="154.0" type="curve" smooth="yes"/>
      <point x="332.79999999999995" y="154.0"/>
      <point x="212.2" y="300.79999999999995"/>
      <point x="238.8" y="490.2" type="curve" smooth="yes"/>
      <point x="265.6" y="682.0"/>
      <point x="432.8" y="848.0"/>
      <point x="619.4" y="848.0" type="curve" smooth="yes"/>
      <point x="791.1999999999999" y="848.0"/>
      <point x="907.8" y="694.0"/>
      <point x="881.2" y="509.8" type="curve" smooth="yes"/>
      <point x="854.4" y="318.8"/>
      <point x="687.6" y="154.0"/>
    </contour>
  </outline>
</glyph>
<glyph name="p" format="2">
  <advance width="1236.0"/>
  <unicode hex="0070"/>
  <outline>
    <contour>
      <point x="159.2" y="-500.0" type="line"/>
      <point x="256.2" y="166.0" type="line"/>
      <point x="307.40000000000003" y="52.800000000000004"/>
      <point x="409.2" y="-28.0"/>
      <point x="566.1999999999999" y="-28.0" type="curve"/>
      <point x="851.5999999999999" y="-28.0"/>
      <point x="1114.4" y="203.2"/>
      <point x="1155.2" y="490.2" type="curve"/>
      <point x="1196.4" y="785.2"/>
      <point x="990.0" y="1026.0"/>
      <point x="693.8" y="1026.0" type="curve"/>
      <point x="548.4000000000001" y="1026.0"/>
      <point x="427.2" y="953.1999999999999"/>
      <point x="344.8" y="840.0" type="curve"/>
      <point x="370.2" y="1000.0" type="line"/>
      <point x="190.0" y="1000.0" type="line"/>
      <point x="-21.0" y="-500.0" type="line"/>
    </contour>
    <contour>
      <point x="687.6" y="852.4" type="curve"/>
      <point x="873.2" y="852.4"/>
      <point x="1000.5999999999999" y="698.0"/>
      <point x="974.0" y="509.8" type="curve"/>
      <point x="946.1999999999999" y="307.2"/>
      <point x="760.4000000000001" y="146.8"/>
      <point x="568.4" y="146.8" type="curve"/>
      <point x="383.2" y="146.8"/>
      <point x="286.8" y="300.79999999999995"/>
      <point x="314.40000000000003" y="490.2" type="curve"/>
      <point x="341.40000000000003" y="690.0"/>
      <point x="494.4" y="852.4"/>
    </contour>
  </outline>
</glyph>
<glyph name="q" format="2">
  <advance width="1236.0"/>
  <unicode hex="0071"/>
  <outline>
    <contour>
      <point x="541.8" y="-28.0" type="curve"/>
      <point x="687.2" y="-28.0"/>
      <point x="808.1999999999999" y="44.800000000000004"/>
      <point x="891.4" y="158.0" type="curve"/>
      <point x="795.4" y="-500.0" type="line"/>
      <point x="975.4000000000001" y="-500.0" type="line"/>
      <point x="1186.4" y="1000.0" type="line"/>
      <point x="1006.4" y="1000.0" type="line"/>
      <point x="979.4" y="832.0" type="line"/>
      <point x="928.0" y="945.1999999999999"/>
      <point x="826.4000000000001" y="1026.0"/>
      <point x="670.2" y="1026.0" type="curve"/>
      <point x="385.2" y="1026.0"/>
      <point x="121.2" y="794.8"/>
      <point x="81.2" y="509.8" type="curve"/>
      <point x="39.2" y="212.8"/>
      <point x="246.8" y="-28.0"/>
    </contour>
    <contour>
      <point x="667.1999999999999" y="852.4" type="curve"/>
      <point x="851.2" y="852.4"/>
      <point x="949.4" y="700.4"/>
      <point x="922.0" y="509.8" type="curve"/>
      <point x="894.1999999999999" y="311.2"/>
      <point x="744.8" y="146.8"/>
      <point x="548.8" y="146.8" type="curve"/>
      <point x="366.4" y="146.8"/>
      <point x="235.2" y="296.79999999999995"/>
      <point x="262.8" y="490.2" type="curve"/>
      <point x="290.6" y="688.4000000000001"/>
      <point x="471.2" y="852.4"/>
    </contour>
  </outline>
</glyph>
<glyph name="r" format="2">
  <advance width="757.0"/>
  <unicode hex="0072"/>
  <outline>
    <contour>
      <point x="747.2" y="824.1999999999999" type="curve"/>
      <point x="794.1999999999999" y="1010.4" type="line"/>
      <point x="759.2" y="1022.4000000000001"/>
      <point x="718.4000000000001" y="1026.8"/>
      <point x="669.8" y="1026.8" type="curve" smooth="yes"/>
      <point x="547.6" y="1026.8"/>
      <point x="434.59999999999997" y="963.1999999999999"/>
      <point x="347.4" y="855.6" type="curve"/>
      <point x="370.2" y="998.8" type="line"/>
      <point x="190.0" y="998.8" type="line"/>
      <point x="50.0" y="0.0" type="line"/>
      <point x="231.2" y="0.0" type="line"/>
      <point x="304.2" y="520.0" type="line" smooth="yes"/>
      <point x="329.4" y="700.8"/>
      <point x="469.2" y="853.2"/>
      <point x="638.4" y="853.2" type="curve" smooth="yes"/>
      <point x="678.8" y="853.2"/>
      <point x="716.8" y="844.1999999999999"/>
    </contour>
  </outline>
</glyph>
<glyph name="s" format="2">
  <advance width="883.0"/>
  <unicode hex="0073"/>
  <outline>
    <contour>
      <point x="370.8" y="-18.400000000000002" type="curve" smooth="yes"/>
      <point x="563.8000000000001" y="-28.2"/>
      <point x="763.4000000000001" y="90.0"/>
      <point x="788.8000000000001" y="269.79999999999995" type="curve" smooth="yes"/>
      <point x="815.8" y="444.4"/>
      <point x="657.0" y="526.1999999999999"/>
      <point x="480.0" y="582.4" type="curve" smooth="yes"/>
      <point x="373.4" y="620.8000000000001"/>
      <point x="272.4" y="629.2"/>
      <point x="285.8" y="722.2" type="curve" smooth="yes"/>
      <point x="299.8" y="825.2"/>
      <point x="409.40000000000003" y="880.6"/>
      <point x="528.0" y="878.0" type="curve" smooth="yes"/>
      <point x="611.8" y="874.2"/>
      <point x="695.6" y="829.8000000000001"/>
      <point x="718.5999999999999" y="761.4" type="curve"/>
      <point x="869.4" y="837.8" type="line"/>
      <point x="817.6" y="955.4"/>
      <point x="683.4000000000001" y="1034.0"/>
      <point x="516.8" y="1034.0" type="curve" smooth="yes"/>
      <point x="329.4" y="1034.0"/>
      <point x="143.20000000000002" y="921.1999999999999"/>
      <point x="116.80000000000001" y="737.8" type="curve" smooth="yes"/>
      <point x="92.2" y="558.4"/>
      <point x="239.6" y="476.2"/>
      <point x="441.8" y="427.0" type="curve" smooth="yes"/>
      <point x="531.4" y="399.59999999999997"/>
      <point x="635.8000000000001" y="378.8"/>
      <point x="623.2" y="287.8" type="curve" smooth="yes"/>
      <point x="610.4000000000001" y="192.8"/>
      <point x="498.80000000000007" y="137.2"/>
      <point x="390.0" y="137.2" type="curve" smooth="yes"/>
      <point x="292.8" y="137.2"/>
      <point x="197.39999999999998" y="192.79999999999998"/>
      <point x="177.20000000000002" y="258.0" type="curve"/>
      <point x="19.4" y="200.6" type="line"/>
      <point x="55.199999999999996" y="75.39999999999999"/>
      <point x="205.59999999999997" y="-11.8"/>
    </contour>
  </outline>
</glyph>
<glyph name="t" format="2">
  <advance width="700.0"/>
  <unicode hex="0074"/>
  <outline>
    <contour>
      <point x="686.8000000000001" y="820.0" type="line"/>
      <point x="711.2" y="1000.0" type="line"/>
      <point x="489.2" y="1000.0" type="line"/>
      <point x="537.1999999999999" y="1349.2" type="line"/>
      <point x="357.2" y="1349.2" type="line"/>
      <point x="309.2" y="1000.0" type="line"/>
      <point x="141.60000000000002" y="1000.0" type="line"/>
      <point x="116.39999999999999" y="820.0" type="line"/>
      <point x="284.8" y="820.0" type="line"/>
      <point x="168.4" y="0.0" type="line"/>
      <point x="348.4" y="0.0" type="line"/>
      <point x="464.8" y="820.0" type="line"/>
    </contour>
  </outline>
</glyph>
<glyph name="u" format="2">
  <advance width="1167.0"/>
  <unicode hex="0075"/>
  <outline>
    <contour>
      <point x="117.0" y="476.8" type="line"/>
      <point x="82.0" y="206.0"/>
      <point x="229.2" y="-27.2"/>
      <point x="498.2" y="-27.2" type="curve"/>
      <point x="621.1999999999999" y="-27.2"/>
      <point x="733.4" y="37.6"/>
      <point x="819.8000000000001" y="145.20000000000002" type="curve"/>
      <point x="796.2" y="0.0" type="line"/>
      <point x="977.2" y="0.0" type="line"/>
      <point x="1117.2" y="1000.0" type="line"/>
      <point x="937.2" y="1000.0" type="line"/>
      <point x="864.2" y="480.8" type="line"/>
      <point x="839.0" y="300.0"/>
      <point x="697.2" y="148.4"/>
      <point x="529.6" y="148.4" type="curve"/>
      <point x="369.59999999999997" y="148.4"/>
      <point x="270.4" y="290.4"/>
      <point x="295.8" y="471.2" type="curve"/>
      <point x="370.0" y="1000.0" type="line"/>
      <point x="190.0" y="1000.0" type="line"/>
    </contour>
  </outline>
</glyph>
<glyph name="v" format="2">
  <advance width="1080.0"/>
  <unicode hex="0076"/>
  <outline>
    <contour>
      <point x="586.4000000000001" y="0.0" type="line"/>
      <point x="1092.2" y="1002.4" type="line"/>
      <point x="896.8" y="1002.4" type="line"/>
      <point x="495.79999999999995" y="208.8" type="line"/>
      <point x="320.8" y="1002.4" type="line"/>
      <point x="132.2" y="1002.4" type="line"/>
      <point x="356.0" y="0.0" type="line"/>
    </contour>
  </outline>
</glyph>
<glyph name="w" format="2">
  <advance width="1656.0"/>
  <unicode hex="0077"/>
  <outline>
    <contour>
      <point x="507.2" y="0.0" type="line"/>
      <point x="865.4" y="750.8" type="line"/>
      <point x="1010.4000000000001" y="0.0" type="line"/>
      <point x="1192.4" y="0.0" type="line"/>
      <point x="1668.2" y="1000.8" type="line"/>
      <point x="1488.3999999999999" y="1000.8" type="line"/>
      <point x="1132.2" y="254.8" type="line"/>
      <point x="988.8" y="1000.8" type="line"/>
      <point x="804.8" y="1000.8" type="line"/>
      <point x="449.8" y="254.8" type="line"/>
      <point x="305.2" y="1000.8" type="line"/>
      <point x="132.2" y="1000.8" type="line"/>
      <point x="326.0" y="0.0" type="line"/>
    </contour>
  </outline>
</glyph>
<glyph name="x" format="2">
  <advance width="1114.0"/>
  <unicode hex="0078"/>
  <outline>
    <contour>
      <point x="7.8" y="0.0" type="line"/>
      <point x="233.4" y="0.0" type="line"/>
      <point x="540.2" y="350.4" type="line"/>
      <point x="743.4" y="0.0" type="line"/>
      <point x="961.8" y="0.0" type="line"/>
      <point x="668.0" y="502.0" type="line"/>
      <point x="1103.8000000000002" y="1002.4" type="line"/>
      <point x="878.1999999999999" y="1002.4" type="line"/>
      <point x="575.2" y="656.4" type="line"/>
      <point x="372.2" y="1002.4" type="line"/>
      <point x="153.8" y="1002.4" type="line"/>
      <point x="446.0" y="502.0" type="line"/>
    </contour>
  </outline>
</glyph>
<glyph name="y" format="2">
  <advance width="1076.0"/>
  <unicode hex="0079"/>
  <outline>
    <contour>
      <point x="874.0" y="1000.0" type="line"/>
      <point x="491.40000000000003" y="246.8" type="line"/>
      <point x="346.40000000000003" y="1000.0" type="line"/>
      <point x="152.2" y="1000.0" type="line"/>
      <point x="369.2" y="0.8" type="line"/>
      <point x="116.19999999999997" y="-500.0" type="line"/>
      <point x="310.4" y="-500.0" type="line"/>
      <point x="1067.8000000000002" y="1000.0" type="line"/>
    </contour>
  </outline>
</glyph>
<glyph name="z" format="2">
  <advance width="1074.0"/>
  <unicode hex="007A"/>
  <outline>
    <contour>
      <point x="1010.6" y="820.0" type="line"/>
      <point x="1034.4" y="1000.0" type="line"/>
      <point x="180.4" y="1000.0" type="line"/>
      <point x="155.20000000000002" y="820.0" type="line"/>
      <point x="749.8000000000001" y="820.0" type="line"/>
      <point x="63.400000000000006" y="180.0" type="line"/>
      <point x="40.400000000000006" y="0.0" type="line"/>
      <point x="894.4" y="0.0" type="line"/>
      <point x="918.8" y="180.0" type="line"/>
      <point x="324.2" y="180.0" type="line"/>
    </contour>
  </outline>
</glyph>
<glyph name="braceleft" format="2">
  <advance width="810.0"/>
  <unicode hex="007B"/>
  <outline>
    <contour>
      <point x="541.2" y="-112.8" type="curve" smooth="yes"/>
      <point x="624.0" y="-112.8" type="line"/>
      <point x="649.2" y="67.2" type="line"/>
      <point x="556.8000000000001" y="67.2" type="line" smooth="yes"/>
      <point x="463.19999999999993" y="67.2"/>
      <point x="402.4" y="138.0"/>
      <point x="415.2" y="232.39999999999998" type="curve" smooth="yes"/>
      <point x="450.2" y="484.4" type="line" smooth="yes"/>
      <point x="456.8" y="558.8"/>
      <point x="410.2" y="574.4000000000001"/>
      <point x="361.2" y="633.4000000000001" type="curve" smooth="yes"/>
      <point x="427.0" y="698.8"/>
      <point x="480.4" y="719.2"/>
      <point x="494.2" y="793.2" type="curve" smooth="yes"/>
      <point x="529.2" y="1045.2" type="line" smooth="yes"/>
      <point x="542.8000000000001" y="1138.8000000000002"/>
      <point x="636.1999999999999" y="1220.0"/>
      <point x="729.8000000000001" y="1220.0" type="curve" smooth="yes"/>
      <point x="810.8" y="1220.0" type="line"/>
      <point x="836.0" y="1400.0" type="line"/>
      <point x="744.4000000000001" y="1400.0" type="line" smooth="yes"/>
      <point x="550.4000000000001" y="1400.0"/>
      <point x="378.2" y="1246.8"/>
      <point x="351.2" y="1054.8" type="curve" smooth="yes"/>
      <point x="316.4" y="808.8" type="line" smooth="yes"/>
      <point x="302.8" y="732.4"/>
      <point x="152.8" y="732.0"/>
      <point x="141.4" y="653.0" type="curve" smooth="yes"/>
      <point x="129.2" y="564.0"/>
      <point x="280.4" y="569.1999999999999"/>
      <point x="271.4" y="486.8" type="curve" smooth="yes"/>
      <point x="236.39999999999998" y="242.0" type="line" smooth="yes"/>
      <point x="209.39999999999998" y="48.8"/>
      <point x="347.2" y="-112.8"/>
    </contour>
  </outline>
</glyph>
<glyph name="braceright" format="2">
  <advance width="810.0"/>
  <unicode hex="007D"/>
  <outline>
    <contour>
      <point x="14.0" y="-112.8" type="line"/>
      <point x="105.60000000000001" y="-112.8" type="line" smooth="yes"/>
      <point x="299.6" y="-112.8"/>
      <point x="472.59999999999997" y="39.2"/>
      <point x="499.59999999999997" y="232.39999999999998" type="curve" smooth="yes"/>
      <point x="533.5999999999999" y="477.2" type="line" smooth="yes"/>
      <point x="548.2" y="558.8"/>
      <point x="697.8" y="554.4000000000001"/>
      <point x="708.8" y="633.4000000000001" type="curve" smooth="yes"/>
      <point x="721.6" y="722.4000000000001"/>
      <point x="570.8" y="722.0"/>
      <point x="578.8" y="799.2" type="curve" smooth="yes"/>
      <point x="613.5999999999999" y="1045.2" type="line" smooth="yes"/>
      <point x="640.5999999999999" y="1237.2"/>
      <point x="502.8" y="1400.0"/>
      <point x="308.8" y="1400.0" type="curve" smooth="yes"/>
      <point x="226.0" y="1400.0" type="line"/>
      <point x="200.8" y="1220.0" type="line"/>
      <point x="293.40000000000003" y="1220.0" type="line" smooth="yes"/>
      <point x="386.2" y="1220.0"/>
      <point x="448.40000000000003" y="1149.2"/>
      <point x="434.8" y="1054.8" type="curve" smooth="yes"/>
      <point x="399.8" y="802.8" type="line"/>
      <point x="393.2" y="728.8"/>
      <point x="442.2" y="707.5999999999999"/>
      <point x="489.79999999999995" y="652.2" type="curve" smooth="yes"/>
      <point x="421.4" y="583.2"/>
      <point x="370.6" y="569.1999999999999"/>
      <point x="356.0" y="494.0" type="curve"/>
      <point x="320.8" y="242.0" type="line" smooth="yes"/>
      <point x="307.2" y="148.4"/>
      <point x="214.79999999999998" y="67.2"/>
      <point x="121.20000000000002" y="67.2" type="curve" smooth="yes"/>
      <point x="39.2" y="67.2" type="line"/>
    </contour>
  </outline>
</glyph>
<glyph name="asciitilde" format="2">
  <advance width="1255.0"/>
  <unicode hex="007E"/>
  <outline>
    <contour>
      <point x="919.2" y="413.6" type="curve" smooth="yes"/>
      <point x="1083.2" y="413.6"/>
      <point x="1211.8" y="560.4000000000001"/>
      <point x="1200.2" y="729.1999999999999" type="curve"/>
      <point x="1026.3999999999999" y="734.8000000000001" type="line"/>
      <point x="1029.8" y="656.8000000000001"/>
      <point x="966.0" y="580.8"/>
      <point x="880.6" y="580.8" type="curve" smooth="yes"/>
      <point x="740.0" y="580.8"/>
      <point x="557.6" y="786.4"/>
      <point x="386.79999999999995" y="786.4" type="curve" smooth="yes"/>
      <point x="218.79999999999998" y="786.4"/>
      <point x="71.4" y="630.8000000000001"/>
      <point x="81.2" y="467.6" type="curve"/>
      <point x="256.0" y="460.4" type="line"/>
      <point x="252.39999999999998" y="537.6"/>
      <point x="313.8" y="616.8"/>
      <point x="398.40000000000003" y="615.2" type="curve" smooth="yes"/>
      <point x="528.6" y="616.8"/>
      <point x="743.5999999999999" y="413.6"/>
    </contour>
  </outline>
</glyph>
<glyph name="exclamdown" format="2">
  <advance width="374.0"/>
  <unicode hex="00A1"/>
  <outline>
    <contour>
      <point x="240.2" y="1026.0" type="curve"/>
      <point x="192.0" y="1026.0"/>
      <point x="148.4" y="988.0"/>
      <point x="141.4" y="937.4" type="curve"/>
      <point x="133.2" y="879.1999999999999"/>
      <point x="174.8" y="830.8"/>
      <point x="233.0" y="830.8" type="curve"/>
      <point x="282.4" y="830.8"/>
      <point x="326.0" y="868.8"/>
      <point x="332.8" y="917.0" type="curve"/>
      <point x="341.0" y="978.4000000000001"/>
      <point x="300.4" y="1026.0"/>
    </contour>
    <contour>
      <point x="265.0" y="580.0" type="line"/>
      <point x="110.2" y="580.0" type="line"/>
      <point x="-26.799999999999997" y="-400.0" type="line"/>
      <point x="128.0" y="-400.0" type="line"/>
    </contour>
  </outline>
</glyph>
<glyph name="cent" format="2">
  <advance width="1092.0"/>
  <unicode hex="00A2"/>
  <outline>
    <contour>
      <point x="444.59999999999997" y="0.0" type="line"/>
      <point x="575.2" y="0.0" type="line"/>
      <point x="608.2" y="202.8" type="line"/>
      <point x="765.8" y="221.20000000000002"/>
      <point x="909.1999999999999" y="307.79999999999995"/>
      <point x="1005.4" y="436.2" type="curve"/>
      <point x="857.4" y="533.8" type="line"/>
      <point x="787.0" y="441.8"/>
      <point x="668.1999999999999" y="378.0"/>
      <point x="555.4" y="378.0" type="curve" smooth="yes"/>
      <point x="385.4" y="378.0"/>
      <point x="262.2" y="516.4000000000001"/>
      <point x="286.8" y="692.2" type="curve" smooth="yes"/>
      <point x="312.6" y="874.4000000000001"/>
      <point x="484.2" y="1024.0"/>
      <point x="666.4" y="1024.0" type="curve" smooth="yes"/>
      <point x="769.4" y="1024.0"/>
      <point x="866.2" y="967.8"/>
      <point x="912.4" y="875.8" type="curve"/>
      <point x="1074.6" y="958.2" type="line"/>
      <point x="1013.6" y="1085.8000000000002"/>
      <point x="890.1999999999999" y="1179.2"/>
      <point x="738.2" y="1196.8" type="curve"/>
      <point x="772.2" y="1400.0" type="line"/>
      <point x="640.8" y="1400.0" type="line"/>
      <point x="608.8" y="1199.2" type="line"/>
      <point x="358.6" y="1166.8000000000002"/>
      <point x="144.8" y="960.8"/>
      <point x="110.2" y="711.8" type="curve" smooth="yes"/>
      <point x="73.4" y="452.40000000000003"/>
      <point x="238.4" y="238.0"/>
      <point x="478.59999999999997" y="205.2" type="curve"/>
    </contour>
  </outline>
</glyph>
<glyph name="sterling" format="2">
  <advance width="1174.0"/>
  <unicode hex="00A3"/>
  <outline>
    <contour>
      <point x="34.0" y="0.0" type="line"/>
      <point x="1010.8" y="0.0" type="line"/>
      <point x="1036.0" y="180.0" type="line"/>
      <point x="427.2" y="175.2" type="line"/>
      <point x="475.2" y="199.2"/>
      <point x="532.6" y="264.4"/>
      <point x="541.2" y="327.79999999999995" type="curve" smooth="yes"/>
      <point x="586.8" y="643.8"/>
      <point x="276.4" y="617.8"/>
      <point x="317.2" y="910.2" type="curve" smooth="yes"/>
      <point x="343.2" y="1094.4"/>
      <point x="516.4" y="1246.0"/>
      <point x="701.4" y="1246.0" type="curve" smooth="yes"/>
      <point x="876.8000000000001" y="1246.0"/>
      <point x="999.4" y="1104.0"/>
      <point x="973.4" y="924.8" type="curve"/>
      <point x="1152.2" y="915.2" type="line"/>
      <point x="1191.6" y="1194.0"/>
      <point x="990.8" y="1426.0"/>
      <point x="706.2" y="1426.0" type="curve" smooth="yes"/>
      <point x="432.79999999999995" y="1426.0"/>
      <point x="178.8" y="1203.2"/>
      <point x="140.6" y="929.8" type="curve" smooth="yes"/>
      <point x="100.4" y="645.1999999999999"/>
      <point x="367.4" y="604.1999999999999"/>
      <point x="368.59999999999997" y="394.79999999999995" type="curve" smooth="yes"/>
      <point x="380.79999999999995" y="264.8"/>
      <point x="201.20000000000002" y="180.0"/>
      <point x="54.4" y="180.0" type="curve"/>
    </contour>
    <contour>
      <point x="96.8" y="448.0" type="line"/>
      <point x="854.4" y="448.0" type="line"/>
      <point x="872.8" y="578.4" type="line"/>
      <point x="115.2" y="578.4" type="line"/>
    </contour>
  </outline>
</glyph>
<glyph name="currency" format="2">
  <advance width="1000.0"/>
  <unicode hex="00A4"/>
  <outline>
    <contour>
      <point x="144.20000000000002" y="279.8" type="line"/>
      <point x="290.2" y="408.2" type="line"/>
      <point x="399.4" y="319.0"/>
      <point x="559.2" y="313.8"/>
      <point x="695.2" y="401.40000000000003" type="curve"/>
      <point x="802.0" y="279.8" type="line"/>
      <point x="902.4" y="371.4" type="line"/>
      <point x="797.2" y="491.59999999999997" type="line"/>
      <point x="901.5999999999999" y="612.4000000000001"/>
      <point x="919.5999999999999" y="778.4000000000001"/>
      <point x="848.8000000000001" y="899.1999999999999" type="curve"/>
      <point x="994.6" y="1029.8" type="line"/>
      <point x="913.4000000000001" y="1120.2" type="line"/>
      <point x="765.4" y="991.8000000000001" type="line"/>
      <point x="660.8" y="1075.0"/>
      <point x="494.4" y="1079.0"/>
      <point x="365.4" y="995.4000000000001" type="curve"/>
      <point x="255.8" y="1120.2" type="line"/>
      <point x="154.2" y="1029.8" type="line"/>
      <point x="264.4" y="904.4" type="line"/>
      <point x="159.2" y="784.8000000000001"/>
      <point x="142.0" y="622.8000000000001"/>
      <point x="209.0" y="502.40000000000003" type="curve"/>
      <point x="61.8" y="371.4" type="line"/>
    </contour>
    <contour>
      <point x="487.4" y="468.6" type="curve" smooth="yes"/>
      <point x="369.8" y="467.4"/>
      <point x="282.0" y="564.6"/>
      <point x="299.6" y="688.4000000000001" type="curve" smooth="yes"/>
      <point x="317.2" y="816.6"/>
      <point x="437.0" y="927.8"/>
      <point x="571.8" y="926.6" type="curve" smooth="yes"/>
      <point x="691.1999999999999" y="925.4"/>
      <point x="777.8" y="834.1999999999999"/>
      <point x="760.0" y="708.8000000000001" type="curve" smooth="yes"/>
      <point x="741.1999999999999" y="575.4"/>
      <point x="618.6" y="469.8"/>
    </contour>
  </outline>
</glyph>
<glyph name="yen" format="2">
  <advance width="1270.0"/>
  <unicode hex="00A5"/>
  <outline>
    <contour>
      <point x="475.20000000000005" y="0.0" type="line"/>
      <point x="655.2" y="0.0" type="line"/>
      <point x="679.4000000000001" y="175.2" type="line"/>
      <point x="953.4000000000001" y="175.2" type="line"/>
      <point x="971.8000000000001" y="305.6" type="line"/>
      <point x="697.8000000000001" y="305.6" type="line"/>
      <point x="717.4000000000001" y="441.2" type="line"/>
      <point x="991.4000000000001" y="441.2" type="line"/>
      <point x="1009.0" y="571.6" type="line"/>
      <point x="735.0" y="571.6" type="line"/>
      <point x="745.4000000000001" y="633.2" type="line"/>
      <point x="1328.4" y="1400.0" type="line"/>
      <point x="1112.2" y="1400.0" type="line"/>
      <point x="677.2" y="828.8" type="line"/>
      <point x="406.6" y="1400.0" type="line"/>
      <point x="198.8" y="1400.0" type="line"/>
      <point x="565.4000000000001" y="633.2" type="line"/>
      <point x="554.8000000000001" y="571.6" type="line"/>
      <point x="281.0" y="571.6" type="line"/>
      <point x="263.4" y="441.2" type="line"/>
      <point x="537.4000000000001" y="441.2" type="line"/>
      <point x="517.8000000000001" y="305.6" type="line"/>
      <point x="243.79999999999998" y="305.6" type="line"/>
      <point x="225.39999999999998" y="175.2" type="line"/>
      <point x="499.40000000000003" y="175.2" type="line"/>
    </contour>
  </outline>
</glyph>
<glyph name="brokenbar" format="2">
  <advance width="420.0"/>
  <unicode hex="00A6"/>
  <outline>
    <contour>
      <point x="113.0" y="448.0" type="line"/>
      <point x="7.0" y="-302.0" type="line"/>
      <point x="187.0" y="-302.0" type="line"/>
      <point x="293.0" y="448.0" type="line"/>
    </contour>
    <contour>
      <point x="246.0" y="1400.0" type="line"/>
      <point x="141.0" y="650.0" type="line"/>
      <point x="321.0" y="650.0" type="line"/>
      <point x="426.0" y="1400.0" type="line"/>
    </contour>
  </outline>
</glyph>
<glyph name="section" format="2">
  <advance width="1086.0"/>
  <unicode hex="00A7"/>
  <outline>
    <contour>
      <point x="428.4" y="-390.4" type="curve" smooth="yes"/>
      <point x="616.8" y="-390.4"/>
      <point x="803.0" y="-276.8"/>
      <point x="828.4" y="-94.2" type="curve" smooth="yes"/>
      <point x="844.1999999999999" y="20.0"/>
      <point x="791.8" y="93.2"/>
      <point x="679.4" y="127.6" type="curve"/>
      <point x="829.8" y="192.0"/>
      <point x="943.1999999999999" y="334.4"/>
      <point x="964.4" y="489.4" type="curve" smooth="yes"/>
      <point x="999.1999999999999" y="738.0"/>
      <point x="856.4" y="892.2"/>
      <point x="617.4" y="941.4" type="curve" smooth="yes"/>
      <point x="505.0" y="968.0"/>
      <point x="411.79999999999995" y="986.0"/>
      <point x="425.2" y="1077.8000000000002" type="curve" smooth="yes"/>
      <point x="439.2" y="1180.8000000000002"/>
      <point x="549.6" y="1236.2"/>
      <point x="668.4000000000001" y="1234.4" type="curve" smooth="yes"/>
      <point x="751.2" y="1230.6000000000001"/>
      <point x="835.8" y="1185.3999999999999"/>
      <point x="859.0" y="1117.8" type="curve"/>
      <point x="1008.8000000000001" y="1193.4" type="line"/>
      <point x="957.0" y="1311.8000000000002"/>
      <point x="822.8" y="1390.4"/>
      <point x="657.2" y="1390.4" type="curve" smooth="yes"/>
      <point x="468.8" y="1390.4"/>
      <point x="283.4" y="1276.8"/>
      <point x="257.2" y="1094.2" type="curve" smooth="yes"/>
      <point x="241.4" y="979.1999999999999"/>
      <point x="293.8" y="906.0"/>
      <point x="405.79999999999995" y="872.8" type="curve"/>
      <point x="254.2" y="806.8"/>
      <point x="143.2" y="664.0"/>
      <point x="121.2" y="509.0" type="curve" smooth="yes"/>
      <point x="87.8" y="275.2"/>
      <point x="233.79999999999998" y="98.2"/>
      <point x="466.2" y="59.6" type="curve" smooth="yes"/>
      <point x="576.8" y="35.400000000000006"/>
      <point x="673.8" y="15.200000000000001"/>
      <point x="661.2" y="-77.80000000000001" type="curve" smooth="yes"/>
      <point x="646.4" y="-180.8"/>
      <point x="536.8000000000001" y="-236.2"/>
      <point x="417.20000000000005" y="-234.39999999999998" type="curve" smooth="yes"/>
      <point x="334.4" y="-230.6"/>
      <point x="250.6" y="-185.4"/>
      <point x="227.39999999999998" y="-117.8" type="curve"/>
      <point x="76.79999999999998" y="-193.4" type="line"/>
      <point x="129.4" y="-311.79999999999995"/>
      <point x="262.8" y="-390.4"/>
    </contour>
    <contour>
      <point x="501.4" y="229.2" type="curve" smooth="yes"/>
      <point x="361.2" y="229.2"/>
      <point x="258.59999999999997" y="342.0"/>
      <point x="279.2" y="489.4" type="curve" smooth="yes"/>
      <point x="300.4" y="639.2"/>
      <point x="440.79999999999995" y="770.8"/>
      <point x="580.2" y="770.8" type="curve" smooth="yes"/>
      <point x="722.4000000000001" y="770.8"/>
      <point x="828.6" y="670.4"/>
      <point x="805.6" y="505.8" type="curve" smooth="yes"/>
      <point x="785.0" y="360.40000000000003"/>
      <point x="646.0" y="229.2"/>
    </contour>
  </outline>
</glyph>
<glyph name="copyright" format="2">
  <advance width="1843.0"/>
  <unicode hex="00A9"/>
  <outline>
    <contour>
      <point x="825.1999999999999" y="-256.4" type="curve" smooth="yes"/>
      <point x="1284.8" y="-256.4"/>
      <point x="1708.3999999999999" y="115.2"/>
      <point x="1773.3999999999999" y="575.4000000000001" type="curve" smooth="yes"/>
      <point x="1839.8" y="1046.0"/>
      <point x="1511.2" y="1426.0"/>
      <point x="1041.0" y="1426.0" type="curve" smooth="yes"/>
      <point x="580.8" y="1426.0"/>
      <point x="158.2" y="1055.2"/>
      <point x="93.2" y="595.0" type="curve" smooth="yes"/>
      <point x="27.8" y="124.8"/>
      <point x="355.2" y="-256.4"/>
    </contour>
    <contour>
      <point x="830.1999999999999" y="-76.4" type="curve" smooth="yes"/>
      <point x="477.40000000000003" y="-76.4"/>
      <point x="219.0" y="206.8"/>
      <point x="270.6" y="575.4000000000001" type="curve" smooth="yes"/>
      <point x="322.4" y="940.4000000000001"/>
      <point x="661.6" y="1244.4"/>
      <point x="1036.2" y="1246.0" type="curve" smooth="yes"/>
      <point x="1395.2" y="1248.4"/>
      <point x="1647.3999999999999" y="954.8"/>
      <point x="1596.8" y="595.0" type="curve" smooth="yes"/>
      <point x="1545.0" y="232.4"/>
      <point x="1207.0" y="-76.4"/>
    </contour>
    <component base="c" xOffset="379.2" yOffset="85.2"/>
  </outline>
</glyph>
<glyph name="logicalnot" format="2">
  <advance width="992.0"/>
  <unicode hex="00AC"/>
  <outline>
    <contour>
      <point x="704.4" y="305.4" type="line"/>
      <point x="884.4" y="305.4" type="line"/>
      <point x="967.6" y="895.4" type="line"/>
      <point x="135.2" y="895.4" type="line"/>
      <point x="110.8" y="715.4" type="line"/>
      <point x="762.4" y="715.4" type="line"/>
    </contour>
  </outline>
</glyph>
<glyph name="registered" format="2">
  <advance width="1045.0"/>
  <unicode hex="00AE"/>
  <outline>
    <contour>
      <point x="523.6" y="438.4" type="curve" smooth="yes"/>
      <point x="772.2" y="439.2"/>
      <point x="1005.4000000000001" y="640.8"/>
      <point x="1040.0" y="891.4000000000001" type="curve" smooth="yes"/>
      <point x="1075.6000000000001" y="1143.2"/>
      <point x="899.4" y="1362.8"/>
      <point x="633.4" y="1362.8" type="curve" smooth="yes"/>
      <point x="382.2" y="1362.8"/>
      <point x="152.6" y="1158.8"/>
      <point x="118.2" y="911.0" type="curve" smooth="yes"/>
      <point x="81.6" y="652.8"/>
      <point x="261.8" y="439.2"/>
    </contour>
    <contour>
      <point x="522.8" y="573.2" type="curve" smooth="yes"/>
      <point x="346.79999999999995" y="573.2"/>
      <point x="225.60000000000002" y="715.2"/>
      <point x="250.4" y="891.4000000000001" type="curve" smooth="yes"/>
      <point x="275.8" y="1076.4"/>
      <point x="449.4" y="1228.0"/>
      <point x="634.1999999999999" y="1228.0" type="curve" smooth="yes"/>
      <point x="810.5999999999999" y="1228.0"/>
      <point x="932.6" y="1086.0"/>
      <point x="907.8" y="911.0" type="curve" smooth="yes"/>
      <point x="881.6" y="724.8"/>
      <point x="708.0" y="573.2"/>
    </contour>
    <contour>
      <point x="422.8" y="706.0" type="line"/>
      <point x="508.0" y="706.0" type="line"/>
      <point x="530.8000000000001" y="865.2" type="line"/>
      <point x="557.4" y="865.2" type="line"/>
      <point x="628.2" y="706.0" type="line"/>
      <point x="721.8000000000001" y="706.0" type="line"/>
      <point x="650.8" y="874.0" type="line"/>
      <point x="699.4" y="890.8000000000001"/>
      <point x="730.6" y="932.8"/>
      <point x="737.4" y="979.8" type="curve" smooth="yes"/>
      <point x="747.8" y="1054.8000000000002"/>
      <point x="698.5999999999999" y="1116.4"/>
      <point x="631.4" y="1116.4" type="curve" smooth="yes"/>
      <point x="480.8" y="1116.4" type="line"/>
    </contour>
    <contour>
      <point x="541.8000000000001" y="950.4" type="line"/>
      <point x="553.2" y="1031.2" type="line"/>
      <point x="630.1999999999999" y="1031.2" type="line" smooth="yes"/>
      <point x="649.0" y="1031.2"/>
      <point x="657.4000000000001" y="1018.0"/>
      <point x="654.8000000000001" y="1000.1999999999999" type="curve" smooth="yes"/>
      <point x="651.6" y="973.1999999999999"/>
      <point x="627.8000000000001" y="950.4"/>
      <point x="608.1999999999999" y="950.4" type="curve" smooth="yes"/>
    </contour>
  </outline>
</glyph>
<glyph name="macron" format="2">
  <advance width="1200.0"/>
  <unicode hex="00AF"/>
  <outline>
    <contour>
      <point x="386.0" y="1382.0" type="line"/>
      <point x="360.8" y="1202.0" type="line"/>
      <point x="1036.8" y="1202.0" type="line"/>
      <point x="1062.0" y="1382.0" type="line"/>
    </contour>
  </outline>
</glyph>
<glyph name="degree" format="2">
  <advance width="785.0"/>
  <unicode hex="00B0"/>
  <outline>
    <contour>
      <point x="440.8" y="768.0" type="curve" smooth="yes"/>
      <point x="604.6" y="768.0"/>
      <point x="760.6" y="898.4000000000001"/>
      <point x="785.0" y="1070.2" type="curve" smooth="yes"/>
      <point x="809.2" y="1242.4"/>
      <point x="690.4" y="1392.0"/>
      <point x="507.8" y="1392.0" type="curve" smooth="yes"/>
      <point x="339.59999999999997" y="1392.0"/>
      <point x="186.4" y="1254.8"/>
      <point x="163.2" y="1089.8" type="curve" smooth="yes"/>
      <point x="139.0" y="918.4"/>
      <point x="259.40000000000003" y="768.0"/>
    </contour>
    <contour>
      <point x="446.4" y="948.0" type="curve" smooth="yes"/>
      <point x="377.4" y="948.0"/>
      <point x="330.8" y="1001.2"/>
      <point x="339.8" y="1070.2" type="curve" smooth="yes"/>
      <point x="351.8" y="1149.2"/>
      <point x="424.0" y="1212.0"/>
      <point x="503.0" y="1212.0" type="curve" smooth="yes"/>
      <point x="570.8" y="1212.0"/>
      <point x="617.4000000000001" y="1158.8"/>
      <point x="608.4000000000001" y="1089.8" type="curve" smooth="yes"/>
      <point x="596.4000000000001" y="1010.8"/>
      <point x="524.2" y="948.0"/>
    </contour>
  </outline>
</glyph>
<glyph name="plusminus" format="2">
  <advance width="1160.0"/>
  <unicode hex="00B1"/>
  <outline>
    <contour>
      <point x="468.8" y="350.4" type="line"/>
      <point x="648.8" y="350.4" type="line"/>
      <point x="706.6" y="760.4" type="line"/>
      <point x="1116.6" y="760.4" type="line"/>
      <point x="1141.8" y="940.4" type="line"/>
      <point x="731.8" y="940.4" type="line"/>
      <point x="788.8" y="1350.4" type="line"/>
      <point x="608.8" y="1350.4" type="line"/>
      <point x="551.8" y="940.4" type="line"/>
      <point x="141.8" y="940.4" type="line"/>
      <point x="116.6" y="760.4" type="line"/>
      <point x="526.6" y="760.4" type="line"/>
    </contour>
    <contour>
      <point x="10.0" y="0.8" type="line"/>
      <point x="1010.0" y="0.8" type="line"/>
      <point x="1035.2" y="180.8" type="line"/>
      <point x="35.2" y="180.8" type="line"/>
    </contour>
  </outline>
</glyph>
<glyph name="twosuperior" format="2">
  <advance width="698.5"/>
  <unicode hex="00B2"/>
  <outline>
    <contour>
      <point x="141.0" y="818.0" type="line"/>
      <point x="593.6" y="818.0" type="line"/>
      <point x="610.2" y="938.0" type="line"/>
      <point x="375.4" y="934.4" type="line"/>
      <point x="491.8" y="1014.4"/>
      <point x="643.8000000000001" y="1132.8000000000002"/>
      <point x="658.4000000000001" y="1239.6000000000001" type="curve"/>
      <point x="676.8000000000001" y="1370.8000000000002"/>
      <point x="583.8000000000001" y="1468.0"/>
      <point x="452.8" y="1468.0" type="curve"/>
      <point x="330.0" y="1468.0"/>
      <point x="219.8" y="1381.2"/>
      <point x="202.4" y="1254.2" type="curve"/>
      <point x="320.4" y="1244.6000000000001" type="line"/>
      <point x="328.8" y="1305.2"/>
      <point x="390.4" y="1354.4"/>
      <point x="456.8" y="1354.4" type="curve"/>
      <point x="511.2" y="1354.4"/>
      <point x="549.2" y="1315.6"/>
      <point x="539.4000000000001" y="1259.0" type="curve"/>
      <point x="484.8" y="1128.3999999999999"/>
      <point x="269.0" y="1003.1999999999999"/>
      <point x="152.6" y="931.4" type="curve"/>
    </contour>
  </outline>
</glyph>
<glyph name="threesuperior" format="2">
  <advance width="564.0"/>
  <unicode hex="00B3"/>
  <outline>
    <contour>
      <point x="334.8" y="798.0" type="curve" smooth="yes"/>
      <point x="444.2" y="798.0"/>
      <point x="544.2" y="875.8"/>
      <point x="560.2" y="988.2" type="curve" smooth="yes"/>
      <point x="570.8" y="1058.4"/>
      <point x="550.1999999999999" y="1106.2"/>
      <point x="510.40000000000003" y="1143.6" type="curve"/>
      <point x="549.4" y="1174.4"/>
      <point x="576.0" y="1225.6000000000001"/>
      <point x="582.6" y="1273.2" type="curve" smooth="yes"/>
      <point x="598.8000000000001" y="1386.0"/>
      <point x="517.1999999999999" y="1467.2"/>
      <point x="403.4" y="1467.2" type="curve" smooth="yes"/>
      <point x="301.4" y="1467.2"/>
      <point x="208.8" y="1396.3999999999999"/>
      <point x="194.4" y="1287.8" type="curve"/>
      <point x="312.2" y="1278.2" type="line"/>
      <point x="318.40000000000003" y="1319.4"/>
      <point x="362.2" y="1352.8"/>
      <point x="408.2" y="1352.8" type="curve" smooth="yes"/>
      <point x="443.59999999999997" y="1352.8"/>
      <point x="470.4" y="1329.0"/>
      <point x="465.2" y="1292.8" type="curve" smooth="yes"/>
      <point x="457.59999999999997" y="1237.2"/>
      <point x="411.2" y="1191.8"/>
      <point x="328.0" y="1191.8" type="curve"/>
      <point x="325.20000000000005" y="1103.6" type="line"/>
      <point x="414.4" y="1103.6"/>
      <point x="450.8" y="1061.6"/>
      <point x="443.6" y="1007.8" type="curve" smooth="yes"/>
      <point x="435.2" y="952.4"/>
      <point x="385.40000000000003" y="912.4"/>
      <point x="330.8" y="912.4" type="curve" smooth="yes"/>
      <point x="283.8" y="912.4"/>
      <point x="254.0" y="942.0"/>
      <point x="261.2" y="993.2" type="curve"/>
      <point x="143.4" y="1002.8" type="line"/>
      <point x="126.4" y="886.1999999999999"/>
      <point x="214.20000000000002" y="798.0"/>
    </contour>
  </outline>
</glyph>
<glyph name="paragraph" format="2">
  <advance width="934.0"/>
  <unicode hex="00B6"/>
  <outline>
    <contour>
      <point x="307.0" y="-302.0" type="line"/>
      <point x="487.0" y="-302.0" type="line"/>
      <point x="726.0" y="1400.0" type="line"/>
      <point x="541.2" y="1400.0" type="line" smooth="yes"/>
      <point x="353.2" y="1400.0"/>
      <point x="185.2" y="1252.0"/>
      <point x="160.2" y="1069.0" type="curve" smooth="yes"/>
      <point x="132.2" y="874.8"/>
      <point x="267.8" y="718.0"/>
      <point x="455.8" y="718.0" type="curve"/>
    </contour>
    <contour>
      <point x="561.0" y="-302.0" type="line"/>
      <point x="741.0" y="-302.0" type="line"/>
      <point x="980.0" y="1400.0" type="line"/>
      <point x="800.0" y="1400.0" type="line"/>
    </contour>
  </outline>
</glyph>
<glyph name="periodcentered" format="2">
  <advance width="355.0"/>
  <unicode hex="00B7"/>
  <outline>
    <contour>
      <point x="187.2" y="502.8" type="curve" smooth="yes"/>
      <point x="236.2" y="502.8"/>
      <point x="280.2" y="540.8000000000001"/>
      <point x="288.0" y="590.1999999999999" type="curve" smooth="yes"/>
      <point x="295.2" y="648.4000000000001"/>
      <point x="254.2" y="697.2"/>
      <point x="194.39999999999998" y="697.2" type="curve" smooth="yes"/>
      <point x="145.8" y="697.2"/>
      <point x="102.2" y="658.8000000000001"/>
      <point x="95.2" y="610.5999999999999" type="curve" smooth="yes"/>
      <point x="87.0" y="550.4"/>
      <point x="127.80000000000001" y="502.8"/>
    </contour>
  </outline>
</glyph>
<glyph name="onesuperior" format="2">
  <advance width="433.5"/>
  <unicode hex="00B9"/>
  <outline>
    <contour>
      <point x="214.2" y="818.0" type="line"/>
      <point x="334.2" y="818.0" type="line"/>
      <point x="422.2" y="1449.0" type="line"/>
      <point x="245.60000000000002" y="1449.0" type="line"/>
      <point x="212.2" y="1329.0" type="line"/>
      <point x="286.4" y="1329.0" type="line"/>
    </contour>
  </outline>
</glyph>
<glyph name="questiondown" format="2">
  <advance width="1024.0"/>
  <unicode hex="00BF"/>
  <outline>
    <contour>
      <point x="381.8" y="-426.8" type="curve" smooth="yes"/>
      <point x="609.2" y="-426.8"/>
      <point x="819.8" y="-242.8"/>
      <point x="852.0" y="-10.8" type="curve"/>
      <point x="673.2" y="-1.2" type="line"/>
      <point x="654.4" y="-134.0"/>
      <point x="525.1999999999999" y="-246.8"/>
      <point x="387.4" y="-246.8" type="curve" smooth="yes"/>
      <point x="258.8" y="-246.8"/>
      <point x="169.2" y="-144.4"/>
      <point x="187.8" y="-15.8" type="curve" smooth="yes"/>
      <point x="201.2" y="82.0"/>
      <point x="263.4" y="166.4"/>
      <point x="348.8" y="205.2" type="curve" smooth="yes"/>
      <point x="477.2" y="275.0"/>
      <point x="563.2" y="397.4"/>
      <point x="583.0" y="535.2" type="curve"/>
      <point x="404.2" y="544.8" type="line"/>
      <point x="394.0" y="471.40000000000003"/>
      <point x="341.2" y="404.2"/>
      <point x="269.6" y="373.2" type="curve" smooth="yes"/>
      <point x="129.8" y="299.2"/>
      <point x="32.0" y="158.4"/>
      <point x="10.4" y="3.8" type="curve" smooth="yes"/>
      <point x="-23.0" y="-233.2"/>
      <point x="143.60000000000002" y="-426.8"/>
    </contour>
    <contour>
      <point x="544.2" y="830.8" type="curve" smooth="yes"/>
      <point x="592.8" y="830.8"/>
      <point x="636.4" y="868.8"/>
      <point x="642.4" y="917.0" type="curve" smooth="yes"/>
      <point x="651.4" y="978.4000000000001"/>
      <point x="610.0" y="1026.0"/>
      <point x="551.4000000000001" y="1026.0" type="curve" smooth="yes"/>
      <point x="502.4" y="1026.0"/>
      <point x="458.79999999999995" y="988.0"/>
      <point x="451.79999999999995" y="937.4" type="curve" smooth="yes"/>
      <point x="442.79999999999995" y="879.1999999999999"/>
      <point x="484.4" y="830.8"/>
    </contour>
  </outline>
</glyph>
<glyph name="AE" format="2">
  <advance width="1641.2"/>
  <unicode hex="00C6"/>
  <outline>
    <contour>
      <point x="7.8" y="0.0" type="line"/>
      <point x="202.0" y="0.0" type="line"/>
      <point x="343.4" y="280.0" type="line"/>
      <point x="789.4" y="280.0" type="line"/>
      <point x="750.4" y="0.0" type="line"/>
      <point x="1472.0" y="0.0" type="line"/>
      <point x="1497.2" y="180.0" type="line"/>
      <point x="954.8" y="180.0" type="line"/>
      <point x="1015.4" y="610.0" type="line"/>
      <point x="1461.8" y="610.0" type="line"/>
      <point x="1486.2" y="790.0" type="line"/>
      <point x="1040.6000000000001" y="790.0" type="line"/>
      <point x="1101.2" y="1220.0" type="line"/>
      <point x="1642.8" y="1220.0" type="line"/>
      <point x="1668.0" y="1400.0" type="line"/>
      <point x="714.4" y="1400.0" type="line"/>
    </contour>
    <contour>
      <point x="434.59999999999997" y="460.0" type="line"/>
      <point x="819.4" y="1220.0" type="line"/>
      <point x="921.1999999999999" y="1220.0" type="line"/>
      <point x="814.6" y="460.0" type="line"/>
    </contour>
  </outline>
</glyph>
<glyph name="Eth" format="2">
  <advance width="1458.0"/>
  <unicode hex="00D0"/>
  <outline>
    <contour>
      <point x="165.20000000000002" y="0.0" type="line"/>
      <point x="632.0" y="0.0" type="line" smooth="yes"/>
      <point x="1018.0" y="0.0"/>
      <point x="1371.0" y="309.2"/>
      <point x="1424.8" y="690.2" type="curve" smooth="yes"/>
      <point x="1479.0" y="1081.2"/>
      <point x="1205.2" y="1400.0"/>
      <point x="819.2" y="1400.0" type="curve" smooth="yes"/>
      <point x="361.2" y="1400.0" type="line"/>
      <point x="282.4" y="840.0" type="line"/>
      <point x="148.0" y="840.0" type="line"/>
      <point x="123.6" y="660.0" type="line"/>
      <point x="257.2" y="660.0" type="line"/>
    </contour>
    <contour>
      <point x="369.59999999999997" y="180.0" type="line"/>
      <point x="437.2" y="660.0" type="line"/>
      <point x="755.1999999999999" y="660.0" type="line"/>
      <point x="780.4" y="840.0" type="line"/>
      <point x="462.4" y="840.0" type="line"/>
      <point x="516.0" y="1220.0" type="line"/>
      <point x="804.6" y="1220.0" type="line" smooth="yes"/>
      <point x="1086.2" y="1220.0"/>
      <point x="1287.6000000000001" y="995.1999999999999"/>
      <point x="1247.2" y="709.8" type="curve" smooth="yes"/>
      <point x="1207.2" y="422.40000000000003"/>
      <point x="938.0" y="180.0"/>
      <point x="647.6" y="180.0" type="curve" smooth="yes"/>
    </contour>
  </outline>
</glyph>
<glyph name="multiply" format="2">
  <advance width="994.0"/>
  <unicode hex="00D7"/>
  <outline>
    <contour>
      <point x="166.2" y="183.2" type="line"/>
      <point x="495.2" y="472.8" type="line"/>
      <point x="745.0" y="183.2" type="line"/>
      <point x="887.4" y="310.4" type="line"/>
      <point x="636.8" y="600.0" type="line"/>
      <point x="969.4" y="890.4" type="line"/>
      <point x="855.0" y="1016.8" type="line"/>
      <point x="524.8" y="727.2" type="line"/>
      <point x="276.2" y="1016.8" type="line"/>
      <point x="135.4" y="890.4" type="line"/>
      <point x="383.2" y="600.0" type="line"/>
      <point x="53.4" y="310.4" type="line"/>
    </contour>
  </outline>
</glyph>
<glyph name="Oslash" format="2">
  <advance width="1540.0"/>
  <unicode hex="00D8"/>
  <outline>
    <contour>
      <point x="338.4" y="-92.4" type="line"/>
      <point x="435.0" y="41.0" type="line"/>
      <point x="512.4" y="-0.20000000000000007"/>
      <point x="602.0" y="-26.0"/>
      <point x="705.8" y="-26.0" type="curve" smooth="yes"/>
      <point x="1080.8" y="-26.0"/>
      <point x="1431.8" y="295.2"/>
      <point x="1486.8" y="690.2" type="curve" smooth="yes"/>
      <point x="1519.2" y="924.4000000000001"/>
      <point x="1442.8" y="1129.2"/>
      <point x="1303.4" y="1261.6000000000001" type="curve"/>
      <point x="1407.2" y="1402.4" type="line"/>
      <point x="1260.6" y="1492.4" type="line"/>
      <point x="1163.0" y="1360.2" type="line"/>
      <point x="1086.4" y="1401.0"/>
      <point x="996.0" y="1426.0"/>
      <point x="890.2" y="1426.0" type="curve" smooth="yes"/>
      <point x="515.2" y="1426.0"/>
      <point x="165.2" y="1104.8"/>
      <point x="109.2" y="709.8" type="curve" smooth="yes"/>
      <point x="76.8" y="477.2"/>
      <point x="155.2" y="271.6"/>
      <point x="294.2" y="139.6" type="curve"/>
      <point x="190.8" y="-2.3999999999999995" type="line"/>
    </contour>
    <contour>
      <point x="403.0" y="297.0" type="line"/>
      <point x="310.8" y="391.79999999999995"/>
      <point x="265.2" y="535.2"/>
      <point x="286.8" y="690.2" type="curve" smooth="yes"/>
      <point x="328.8" y="992.4000000000001"/>
      <point x="596.8000000000001" y="1246.0"/>
      <point x="885.4" y="1246.0" type="curve" smooth="yes"/>
      <point x="946.8000000000001" y="1246.0"/>
      <point x="1008.4000000000001" y="1231.4"/>
      <point x="1060.8" y="1203.4" type="curve"/>
    </contour>
    <contour>
      <point x="711.4" y="154.0" type="curve" smooth="yes"/>
      <point x="651.1999999999999" y="154.0"/>
      <point x="589.5999999999999" y="168.4"/>
      <point x="537.4000000000001" y="197.60000000000002" type="curve"/>
      <point x="1196.0" y="1103.8" type="line"/>
      <point x="1286.6000000000001" y="1008.1999999999999"/>
      <point x="1330.8" y="864.8"/>
      <point x="1309.2" y="709.8" type="curve" smooth="yes"/>
      <point x="1267.2" y="408.40000000000003"/>
      <point x="999.1999999999999" y="154.0"/>
    </contour>
  </outline>
</glyph>
<glyph name="Thorn" format="2">
  <advance width="1070.0"/>
  <unicode hex="00DE"/>
  <outline>
    <contour>
      <point x="50.0" y="0.0" type="line"/>
      <point x="230.0" y="0.0" type="line"/>
      <point x="270.4" y="286.4" type="line"/>
      <point x="563.2" y="286.4" type="line" smooth="yes"/>
      <point x="781.2" y="286.4"/>
      <point x="985.1999999999999" y="462.4"/>
      <point x="1017.1999999999999" y="690.2" type="curve" smooth="yes"/>
      <point x="1050.4" y="924.8"/>
      <point x="894.8000000000001" y="1114.4"/>
      <point x="669.6" y="1114.4" type="curve" smooth="yes"/>
      <point x="386.4" y="1114.4" type="line"/>
      <point x="426.0" y="1400.0" type="line"/>
      <point x="246.0" y="1400.0" type="line"/>
    </contour>
    <contour>
      <point x="294.8" y="466.4" type="line"/>
      <point x="364.0" y="956.0" type="line"/>
      <point x="640.5999999999999" y="956.0" type="line" smooth="yes"/>
      <point x="771.8" y="956.0"/>
      <point x="860.0" y="855.1999999999999"/>
      <point x="841.1999999999999" y="721.4" type="curve" smooth="yes"/>
      <point x="821.0" y="576.8"/>
      <point x="692.8" y="466.4"/>
      <point x="561.5999999999999" y="466.4" type="curve" smooth="yes"/>
    </contour>
  </outline>
</glyph>
<glyph name="germandbls" format="2">
  <advance width="1098.0"/>
  <unicode hex="00DF"/>
  <outline>
    <contour>
      <point x="50.0" y="0.0" type="line"/>
      <point x="230.0" y="0.0" type="line"/>
      <point x="365.2" y="966.8" type="line" smooth="yes"/>
      <point x="386.6" y="1116.4"/>
      <point x="529.0" y="1240.8"/>
      <point x="683.4000000000001" y="1240.8" type="curve" smooth="yes"/>
      <point x="797.0" y="1240.8"/>
      <point x="876.4" y="1143.2"/>
      <point x="859.1999999999999" y="1022.1999999999999" type="curve" smooth="yes"/>
      <point x="841.4" y="891.1999999999999"/>
      <point x="724.0" y="790.2"/>
      <point x="604.4000000000001" y="783.4000000000001" type="curve" smooth="yes"/>
      <point x="581.8" y="780.8" type="line"/>
      <point x="561.5999999999999" y="630.0" type="line"/>
      <point x="654.0" y="628.4" type="line" smooth="yes"/>
      <point x="788.1999999999999" y="624.8"/>
      <point x="878.2" y="527.1999999999999"/>
      <point x="861.6" y="403.40000000000003" type="curve" smooth="yes"/>
      <point x="842.8000000000001" y="268.8"/>
      <point x="712.1999999999999" y="157.2"/>
      <point x="577.8000000000001" y="157.2" type="curve" smooth="yes"/>
      <point x="496.19999999999993" y="157.2" type="line"/>
      <point x="503.40000000000003" y="0.0" type="line"/>
      <point x="581.2" y="0.0" type="line" smooth="yes"/>
      <point x="796.4" y="0.0"/>
      <point x="990.0" y="161.2"/>
      <point x="1020.4" y="372.2" type="curve" smooth="yes"/>
      <point x="1040.8" y="521.2"/>
      <point x="996.2" y="686.5999999999999"/>
      <point x="841.1999999999999" y="718.8000000000001" type="curve"/>
      <point x="959.4" y="774.1999999999999"/>
      <point x="1021.6" y="894.0"/>
      <point x="1036.6000000000001" y="1001.8" type="curve" smooth="yes"/>
      <point x="1068.2" y="1224.8000000000002"/>
      <point x="919.6" y="1399.2"/>
      <point x="703.1999999999999" y="1399.2" type="curve" smooth="yes"/>
      <point x="449.2" y="1399.2"/>
      <point x="217.2" y="1194.0"/>
      <point x="181.8" y="937.1999999999999" type="curve" smooth="yes"/>
    </contour>
  </outline>
</glyph>
<glyph name="ae" format="2">
  <advance width="1862.5"/>
  <unicode hex="00E6"/>
  <outline>
    <contour>
      <point x="414.79999999999995" y="-13.2" type="curve" smooth="yes"/>
      <point x="533.6" y="-13.2" type="line" smooth="yes"/>
      <point x="684.4" y="-13.2"/>
      <point x="804.1999999999999" y="64.0"/>
      <point x="880.4000000000001" y="193.2" type="curve"/>
      <point x="946.8" y="72.8"/>
      <point x="1075.6000000000001" y="-13.2"/>
      <point x="1241.0" y="-13.2" type="curve" smooth="yes"/>
      <point x="1435.2" y="-13.2"/>
      <point x="1622.3999999999999" y="106.0"/>
      <point x="1727.3999999999999" y="284.0" type="curve"/>
      <point x="1545.2" y="335.8" type="line"/>
      <point x="1473.6000000000001" y="233.0"/>
      <point x="1364.8" y="166.8"/>
      <point x="1245.8" y="166.8" type="curve" smooth="yes"/>
      <point x="1088.8" y="168.0"/>
      <point x="986.8" y="282.79999999999995"/>
      <point x="985.5999999999999" y="444.4" type="curve"/>
      <point x="1790.2" y="444.4" type="line"/>
      <point x="1863.2" y="770.8"/>
      <point x="1676.3999999999999" y="1040.8"/>
      <point x="1369.3999999999999" y="1040.8" type="curve" smooth="yes"/>
      <point x="1208.8" y="1040.8"/>
      <point x="1053.6000000000001" y="956.0"/>
      <point x="949.1999999999999" y="819.2" type="curve"/>
      <point x="912.0" y="948.0"/>
      <point x="816.8" y="1040.8"/>
      <point x="607.4" y="1040.8" type="curve" smooth="yes"/>
      <point x="448.40000000000003" y="1040.8"/>
      <point x="294.0" y="1013.4"/>
      <point x="188.4" y="867.4" type="curve"/>
      <point x="335.0" y="767.8" type="line"/>
      <point x="384.6" y="836.2"/>
      <point x="475.2" y="875.2"/>
      <point x="604.1999999999999" y="875.2" type="curve" smooth="yes"/>
      <point x="802.4" y="875.2"/>
      <point x="825.1999999999999" y="756.8"/>
      <point x="818.0" y="594.0" type="curve"/>
      <point x="399.79999999999995" y="589.2" type="line" smooth="yes"/>
      <point x="229.4" y="589.2"/>
      <point x="81.8" y="514.0"/>
      <point x="52.800000000000004" y="341.0" type="curve" smooth="yes"/>
      <point x="22.199999999999996" y="110.0"/>
      <point x="182.8" y="-13.2"/>
    </contour>
    <contour>
      <point x="469.0" y="106.8" type="curve" smooth="yes"/>
      <point x="314.6" y="106.8"/>
      <point x="204.20000000000002" y="158.0"/>
      <point x="222.6" y="304.2" type="curve" smooth="yes"/>
      <point x="242.0" y="420.0"/>
      <point x="344.2" y="449.2"/>
      <point x="476.2" y="449.2" type="curve" smooth="yes"/>
      <point x="792.4" y="449.2" type="line"/>
      <point x="781.4" y="368.8" type="line" smooth="yes"/>
      <point x="770.6" y="293.2"/>
      <point x="699.4" y="106.8"/>
    </contour>
    <contour>
      <point x="1002.6" y="584.4000000000001" type="line"/>
      <point x="1047.3999999999999" y="748.0"/>
      <point x="1199.6" y="880.8"/>
      <point x="1366.3999999999999" y="880.8" type="curve" smooth="yes"/>
      <point x="1522.8" y="880.8"/>
      <point x="1633.8" y="754.4"/>
      <point x="1629.8" y="594.0" type="curve"/>
    </contour>
  </outline>
</glyph>
<glyph name="igrave" format="2">
  <advance width="443.8"/>
  <unicode hex="00EC"/>
  <outline>
    <contour>
      <point x="213.0" y="1000.0" type="line"/>
      <point x="72.99999999999999" y="0.0" type="line"/>
      <point x="253.0" y="0.0" type="line"/>
      <point x="393.0" y="1000.0" type="line"/>
    </contour>
    <component base="grave" xOffset="-302.2"/>
  </outline>
</glyph>
<glyph name="eth" format="2">
  <advance width="1125.0"/>
  <unicode hex="00F0"/>
  <outline>
    <contour>
      <point x="514.1999999999999" y="1044.4" type="line"/>
      <point x="1008.4000000000001" y="1474.8" type="line"/>
      <point x="926.4" y="1567.2" type="line"/>
      <point x="430.2" y="1136.8" type="line"/>
    </contour>
    <component base="partialdiff"/>
  </outline>
</glyph>
<glyph name="divide" format="2">
  <advance width="1160.0"/>
  <unicode hex="00F7"/>
  <outline>
    <contour>
      <point x="81.8" y="510.0" type="line"/>
      <point x="1081.8" y="510.0" type="line"/>
      <point x="1106.2" y="690.0" type="line"/>
      <point x="106.2" y="690.0" type="line"/>
    </contour>
    <contour>
      <point x="651.4" y="1077.2" type="curve"/>
      <point x="589.8" y="1077.2"/>
      <point x="539.0" y="1026.8"/>
      <point x="531.4000000000001" y="971.4" type="curve"/>
      <point x="521.6" y="902.8"/>
      <point x="567.1999999999999" y="846.0"/>
      <point x="638.4" y="846.0" type="curve"/>
      <point x="695.6" y="846.0"/>
      <point x="749.2" y="893.2"/>
      <point x="756.8" y="951.0" type="curve"/>
      <point x="766.6" y="1017.2"/>
      <point x="718.2" y="1077.2"/>
    </contour>
    <contour>
      <point x="549.6" y="353.2" type="curve"/>
      <point x="488.0" y="353.2"/>
      <point x="437.2" y="304.40000000000003"/>
      <point x="429.59999999999997" y="247.4" type="curve"/>
      <point x="419.8" y="178.8"/>
      <point x="466.2" y="122.8"/>
      <point x="537.4" y="122.8" type="curve"/>
      <point x="593.8" y="122.8"/>
      <point x="649.8" y="169.2"/>
      <point x="657.4" y="227.0" type="curve"/>
      <point x="667.1999999999999" y="294.0"/>
      <point x="616.4" y="353.2"/>
    </contour>
  </outline>
</glyph>
<glyph name="oslash" format="2">
  <advance width="1120.0"/>
  <unicode hex="00F8"/>
  <outline>
    <contour>
      <point x="245.4" y="-62.8" type="line"/>
      <point x="305.8" y="19.4" type="line"/>
      <point x="359.0" y="-7.8"/>
      <point x="422.40000000000003" y="-26.0"/>
      <point x="495.8" y="-26.0" type="curve" smooth="yes"/>
      <point x="766.8" y="-26.0"/>
      <point x="1018.8" y="205.2"/>
      <point x="1058.8" y="490.2" type="curve" smooth="yes"/>
      <point x="1082.2" y="658.8"/>
      <point x="1028.8000000000002" y="805.6"/>
      <point x="932.8" y="901.6" type="curve"/>
      <point x="999.8" y="991.2" type="line"/>
      <point x="876.4" y="1066.4" type="line"/>
      <point x="813.8" y="984.1999999999999" type="line"/>
      <point x="762.6" y="1011.4"/>
      <point x="698.8" y="1028.0"/>
      <point x="624.2" y="1028.0" type="curve" smooth="yes"/>
      <point x="353.2" y="1028.0"/>
      <point x="101.2" y="796.8"/>
      <point x="61.2" y="509.8" type="curve" smooth="yes"/>
      <point x="37.8" y="344.0"/>
      <point x="91.99999999999999" y="197.20000000000002"/>
      <point x="188.79999999999998" y="101.2" type="curve"/>
      <point x="121.79999999999998" y="12.4" type="line"/>
    </contour>
    <contour>
      <point x="291.0" y="246.39999999999998" type="line"/>
      <point x="238.79999999999998" y="304.8"/>
      <point x="212.6" y="388.79999999999995"/>
      <point x="225.4" y="481.0" type="curve" smooth="yes"/>
      <point x="260.2" y="734.4000000000001"/>
      <point x="521.4000000000001" y="921.2"/>
      <point x="722.8" y="841.2" type="curve"/>
    </contour>
    <contour>
      <point x="398.2" y="161.6" type="curve"/>
      <point x="830.5999999999999" y="756.4" type="line"/>
      <point x="881.6" y="697.2"/>
      <point x="907.4" y="611.1999999999999"/>
      <point x="894.6" y="519.0" type="curve" smooth="yes"/>
      <point x="859.8" y="270.40000000000003"/>
      <point x="607.4" y="79.2"/>
    </contour>
  </outline>
</glyph>
<glyph name="OE" format="2">
  <advance width="2151.0"/>
  <unicode hex="0152"/>
  <outline>
    <contour>
      <point x="705.8" y="-26.0" type="curve" smooth="yes"/>
      <point x="914.0" y="-26.0"/>
      <point x="1117.4" y="83.39999999999999"/>
      <point x="1250.8000000000002" y="250.20000000000002" type="curve"/>
      <point x="1211.4" y="0.0" type="line"/>
      <point x="1981.1999999999998" y="0.0" type="line"/>
      <point x="2006.3999999999999" y="180.0" type="line"/>
      <point x="1416.8000000000002" y="180.0" type="line"/>
      <point x="1477.4" y="610.0" type="line"/>
      <point x="1970.2" y="610.0" type="line"/>
      <point x="1995.4" y="790.0" type="line"/>
      <point x="1502.6000000000001" y="790.0" type="line"/>
      <point x="1563.2" y="1220.0" type="line"/>
      <point x="2152.0" y="1220.0" type="line"/>
      <point x="2177.2" y="1400.0" type="line"/>
      <point x="1408.4" y="1400.0" type="line"/>
      <point x="1368.8000000000002" y="1142.2" type="line"/>
      <point x="1282.4" y="1309.8"/>
      <point x="1108.4" y="1426.0"/>
      <point x="890.2" y="1426.0" type="curve" smooth="yes"/>
      <point x="515.2" y="1426.0"/>
      <point x="165.2" y="1104.8"/>
      <point x="109.2" y="709.8" type="curve" smooth="yes"/>
      <point x="52.2" y="304.8"/>
      <point x="320.8" y="-26.0"/>
    </contour>
    <contour>
      <point x="711.4" y="154.0" type="curve" smooth="yes"/>
      <point x="435.2" y="154.0"/>
      <point x="245.2" y="394.79999999999995"/>
      <point x="286.8" y="690.2" type="curve" smooth="yes"/>
      <point x="328.8" y="992.4000000000001"/>
      <point x="596.8000000000001" y="1246.0"/>
      <point x="885.4" y="1246.0" type="curve" smooth="yes"/>
      <point x="1160.8" y="1246.0"/>
      <point x="1350.8" y="1004.4"/>
      <point x="1309.2" y="709.8" type="curve" smooth="yes"/>
      <point x="1267.2" y="408.40000000000003"/>
      <point x="999.1999999999999" y="154.0"/>
    </contour>
  </outline>
</glyph>
<glyph name="oe" format="2">
  <advance width="1939.0"/>
  <unicode hex="0153"/>
  <outline>
    <contour>
      <point x="495.8" y="-26.0" type="curve" smooth="yes"/>
      <point x="666.8" y="-26.0"/>
      <point x="833.4" y="70.8"/>
      <point x="937.8" y="222.4" type="curve"/>
      <point x="993.8000000000001" y="78.8"/>
      <point x="1134.8" y="-26.0"/>
      <point x="1315.8" y="-26.0" type="curve" smooth="yes"/>
      <point x="1510.8" y="-26.0"/>
      <point x="1697.2" y="93.2"/>
      <point x="1802.2" y="271.2" type="curve"/>
      <point x="1620.8" y="323.0" type="line"/>
      <point x="1548.3999999999999" y="220.20000000000002"/>
      <point x="1440.4" y="154.0"/>
      <point x="1321.4" y="154.0" type="curve" smooth="yes"/>
      <point x="1164.4" y="155.2"/>
      <point x="1062.4" y="270.0"/>
      <point x="1060.4" y="430.79999999999995" type="curve"/>
      <point x="1865.8" y="430.79999999999995" type="line"/>
      <point x="1938.0" y="758.0"/>
      <point x="1751.2" y="1028.0"/>
      <point x="1444.2" y="1028.0" type="curve" smooth="yes"/>
      <point x="1273.2" y="1028.0"/>
      <point x="1107.4" y="931.1999999999999"/>
      <point x="1002.2" y="778.8" type="curve"/>
      <point x="946.1999999999999" y="923.1999999999999"/>
      <point x="805.2" y="1028.0"/>
      <point x="624.2" y="1028.0" type="curve" smooth="yes"/>
      <point x="353.2" y="1028.0"/>
      <point x="101.2" y="796.8"/>
      <point x="61.2" y="509.8" type="curve" smooth="yes"/>
      <point x="19.2" y="214.8"/>
      <point x="214.8" y="-26.0"/>
    </contour>
    <contour>
      <point x="501.4" y="154.0" type="curve" smooth="yes"/>
      <point x="332.79999999999995" y="154.0"/>
      <point x="212.2" y="300.79999999999995"/>
      <point x="238.8" y="490.2" type="curve" smooth="yes"/>
      <point x="265.6" y="682.0"/>
      <point x="432.8" y="848.0"/>
      <point x="619.4" y="848.0" type="curve" smooth="yes"/>
      <point x="791.1999999999999" y="848.0"/>
      <point x="907.8" y="694.0"/>
      <point x="881.2" y="509.8" type="curve" smooth="yes"/>
      <point x="854.4" y="318.8"/>
      <point x="687.6" y="154.0"/>
    </contour>
    <contour>
      <point x="1077.4" y="570.8" type="line"/>
      <point x="1122.2" y="735.2"/>
      <point x="1274.4" y="868.0"/>
      <point x="1441.2" y="868.0" type="curve" smooth="yes"/>
      <point x="1597.6000000000001" y="868.0"/>
      <point x="1709.4" y="740.8"/>
      <point x="1705.4" y="581.1999999999999" type="curve"/>
    </contour>
  </outline>
</glyph>
<glyph name="caron" format="2">
  <advance width="612.0"/>
  <unicode hex="02C7"/>
  <outline>
    <contour>
      <point x="316.0" y="1166.0" type="line"/>
      <point x="486.79999999999995" y="1166.0" type="line"/>
      <point x="619.8" y="1400.0" type="line"/>
      <point x="496.40000000000003" y="1400.0" type="line"/>
      <point x="408.2" y="1245.2" type="line"/>
      <point x="366.40000000000003" y="1400.0" type="line"/>
      <point x="248.2" y="1400.0" type="line"/>
    </contour>
  </outline>
</glyph>
<glyph name="breve" format="2">
  <advance width="1144.0"/>
  <unicode hex="02D8"/>
  <outline>
    <contour>
      <point x="670.6" y="1128.0" type="curve" smooth="yes"/>
      <point x="845.8" y="1128.0"/>
      <point x="1012.0" y="1268.8000000000002"/>
      <point x="1038.8" y="1455.2" type="curve"/>
      <point x="919.2" y="1464.8" type="line"/>
      <point x="903.2" y="1346.8"/>
      <point x="788.2" y="1248.0"/>
      <point x="667.4" y="1248.0" type="curve" smooth="yes"/>
      <point x="559.4000000000001" y="1248.0"/>
      <point x="477.2" y="1334.8000000000002"/>
      <point x="494.8" y="1455.2" type="curve"/>
      <point x="375.2" y="1464.8" type="line"/>
      <point x="350.2" y="1282.8"/>
      <point x="483.8" y="1128.0"/>
    </contour>
  </outline>
</glyph>
<glyph name="ogonek" format="2">
  <advance width="1132.0"/>
  <unicode hex="02DB"/>
  <outline>
    <contour>
      <point x="505.40000000000003" y="-398.8" type="curve" smooth="yes"/>
      <point x="577.4" y="-398.8" type="line"/>
      <point x="597.2" y="-260.0" type="line"/>
      <point x="513.0" y="-260.0" type="line" smooth="yes"/>
      <point x="395.4" y="-260.0"/>
      <point x="308.0" y="-159.20000000000002"/>
      <point x="324.6" y="-42.0" type="curve" smooth="yes"/>
      <point x="338.8" y="62.0" type="line"/>
      <point x="200.0" y="62.0" type="line"/>
      <point x="187.2" y="-29.999999999999996" type="line" smooth="yes"/>
      <point x="158.8" y="-230.8"/>
      <point x="303.4" y="-398.8"/>
    </contour>
  </outline>
</glyph>
<glyph name="gravecomb" format="2">
  <unicode hex="0300"/>
  <outline>
    <contour>
      <point x="452.2" y="1426.0" type="line"/>
      <point x="581.8" y="1138.0" type="line"/>
      <point x="668.8" y="1138.0" type="line"/>
      <point x="628.8" y="1426.0" type="line"/>
    </contour>
  </outline>
</glyph>
<glyph name="acutecomb" format="2">
  <unicode hex="0301"/>
  <outline>
    <contour>
      <point x="568.8" y="1138.0" type="line"/>
      <point x="661.8" y="1138.0" type="line"/>
      <point x="872.2" y="1426.0" type="line"/>
      <point x="688.8" y="1426.0" type="line"/>
    </contour>
  </outline>
</glyph>
<glyph name="circumflexcomb" format="2">
  <unicode hex="0302"/>
  <outline>
    <contour>
      <point x="626.4" y="1400.0" type="line"/>
      <point x="491.8" y="1166.0" type="line"/>
      <point x="616.0" y="1166.0" type="line"/>
      <point x="705.4000000000001" y="1320.8" type="line"/>
      <point x="746.0" y="1166.0" type="line"/>
      <point x="864.1999999999999" y="1166.0" type="line"/>
      <point x="797.1999999999999" y="1400.0" type="line"/>
    </contour>
  </outline>
</glyph>
<glyph name="tildecomb" format="2">
  <unicode hex="0303"/>
  <outline>
    <contour>
      <point x="899.1999999999999" y="1254.0" type="curve" smooth="yes"/>
      <point x="1020.4" y="1254.0"/>
      <point x="1106.8" y="1364.4"/>
      <point x="1081.4" y="1501.2" type="curve"/>
      <point x="966.0" y="1474.0" type="line"/>
      <point x="974.2" y="1439.2"/>
      <point x="953.0" y="1376.4"/>
      <point x="905.4" y="1376.4" type="curve" smooth="yes"/>
      <point x="853.4000000000001" y="1376.4"/>
      <point x="708.2" y="1520.0"/>
      <point x="604.1999999999999" y="1520.0" type="curve" smooth="yes"/>
      <point x="479.4" y="1520.0"/>
      <point x="398.40000000000003" y="1407.2"/>
      <point x="425.0" y="1277.2" type="curve"/>
      <point x="537.8" y="1298.4" type="line"/>
      <point x="531.6" y="1346.4"/>
      <point x="557.4000000000001" y="1381.2"/>
      <point x="588.0" y="1389.2" type="curve" smooth="yes"/>
      <point x="643.1999999999999" y="1416.0"/>
      <point x="794.0" y="1254.0"/>
    </contour>
  </outline>
</glyph>
<glyph name="dotaccentcomb" format="2">
  <unicode hex="0307"/>
  <outline>
    <contour>
      <point x="604.0" y="1176.8" type="curve" smooth="yes"/>
      <point x="652.8" y="1176.8"/>
      <point x="696.4" y="1212.8000000000002"/>
      <point x="703.1999999999999" y="1264.2" type="curve" smooth="yes"/>
      <point x="711.4" y="1324.4"/>
      <point x="669.8" y="1371.2"/>
      <point x="611.4000000000001" y="1371.2" type="curve" smooth="yes"/>
      <point x="559.8" y="1371.2"/>
      <point x="517.2" y="1334.0"/>
      <point x="510.2" y="1283.8" type="curve" smooth="yes"/>
      <point x="501.2" y="1223.2"/>
      <point x="542.8" y="1176.8"/>
    </contour>
  </outline>
</glyph>
<glyph name="dieresiscomb" format="2">
  <unicode hex="0308"/>
  <outline>
    <contour>
      <point x="604.8" y="1176.8" type="curve" smooth="yes"/>
      <point x="654.4" y="1176.8"/>
      <point x="698.8" y="1212.8000000000002"/>
      <point x="704.8" y="1264.2" type="curve" smooth="yes"/>
      <point x="713.8" y="1322.8000000000002"/>
      <point x="671.4" y="1372.0"/>
      <point x="612.2" y="1372.0" type="curve" smooth="yes"/>
      <point x="561.4" y="1372.0"/>
      <point x="517.2" y="1333.2"/>
      <point x="510.2" y="1283.8" type="curve" smooth="yes"/>
      <point x="501.2" y="1223.2"/>
      <point x="544.4" y="1176.8"/>
    </contour>
    <contour>
      <point x="951.1999999999999" y="1176.8" type="curve" smooth="yes"/>
      <point x="1000.0" y="1176.8"/>
      <point x="1044.4" y="1212.8000000000002"/>
      <point x="1051.2" y="1264.2" type="curve" smooth="yes"/>
      <point x="1059.4" y="1322.8000000000002"/>
      <point x="1017.8" y="1372.0"/>
      <point x="958.6" y="1372.0" type="curve" smooth="yes"/>
      <point x="907.8" y="1372.0"/>
      <point x="862.8" y="1333.2"/>
      <point x="855.8" y="1283.8" type="curve" smooth="yes"/>
      <point x="847.6" y="1223.2"/>
      <point x="890.0" y="1176.8"/>
    </contour>
  </outline>
</glyph>
<glyph name="ringcomb" format="2">
  <unicode hex="030A"/>
  <outline>
    <contour>
      <point x="665.4" y="1112.4" type="curve" smooth="yes"/>
      <point x="752.8" y="1112.4"/>
      <point x="833.8" y="1183.2"/>
      <point x="846.4" y="1273.4" type="curve" smooth="yes"/>
      <point x="860.0" y="1368.8000000000002"/>
      <point x="791.2" y="1450.8"/>
      <point x="692.1999999999999" y="1450.8" type="curve" smooth="yes"/>
      <point x="604.8" y="1450.8"/>
      <point x="523.8" y="1379.2"/>
      <point x="511.4" y="1293.0" type="curve" smooth="yes"/>
      <point x="497.6" y="1194.8"/>
      <point x="567.1999999999999" y="1112.4"/>
    </contour>
    <contour>
      <point x="656.0" y="1191.2" type="curve" smooth="yes"/>
      <point x="611.0" y="1191.2"/>
      <point x="580.8" y="1226.4"/>
      <point x="587.5999999999999" y="1273.4" type="curve" smooth="yes"/>
      <point x="594.8" y="1326.4"/>
      <point x="646.5999999999999" y="1371.2"/>
      <point x="701.4" y="1371.2" type="curve" smooth="yes"/>
      <point x="746.5999999999999" y="1371.2"/>
      <point x="776.8" y="1336.0"/>
      <point x="770.1999999999999" y="1293.0" type="curve" smooth="yes"/>
      <point x="762.8" y="1236.0"/>
      <point x="711.0" y="1191.2"/>
    </contour>
  </outline>
</glyph>
<glyph name="cedillacomb" format="2">
  <unicode hex="0327"/>
  <outline>
    <contour>
      <point x="287.0" y="-306.0" type="line"/>
      <point x="368.6" y="-306.0" type="line" smooth="yes"/>
      <point x="570.5999999999999" y="-306.0"/>
      <point x="751.2" y="-148.4"/>
      <point x="779.6" y="53.2" type="curve" smooth="yes"/>
      <point x="790.4" y="134.8" type="line"/>
      <point x="651.6" y="134.8" type="line"/>
      <point x="641.0" y="61.199999999999996" type="line" smooth="yes"/>
      <point x="624.4000000000001" y="-56.0"/>
      <point x="497.79999999999995" y="-167.2"/>
      <point x="380.2" y="-167.2" type="curve" smooth="yes"/>
      <point x="305.8" y="-167.2" type="line"/>
    </contour>
  </outline>
</glyph>
<glyph name="mu" format="2">
  <advance width="1087.0"/>
  <unicode hex="03BC"/>
  <outline>
    <contour>
      <point x="-51.0" y="-432.0" type="line"/>
      <point x="129.0" y="-432.0" type="line"/>
      <point x="209.2" y="106.2" type="line"/>
      <point x="259.4" y="28.2"/>
      <point x="344.40000000000003" y="-27.2"/>
      <point x="458.2" y="-27.2" type="curve" smooth="yes"/>
      <point x="581.1999999999999" y="-27.2"/>
      <point x="693.4" y="37.6"/>
      <point x="779.8000000000001" y="145.20000000000002" type="curve"/>
      <point x="756.2" y="0.0" type="line"/>
      <point x="937.2" y="0.0" type="line"/>
      <point x="1077.2" y="1000.0" type="line"/>
      <point x="897.2" y="1000.0" type="line"/>
      <point x="824.2" y="480.8" type="line" smooth="yes"/>
      <point x="799.0" y="300.0"/>
      <point x="657.2" y="148.4"/>
      <point x="489.6" y="148.4" type="curve" smooth="yes"/>
      <point x="329.59999999999997" y="148.4"/>
      <point x="230.4" y="290.4"/>
      <point x="255.8" y="471.2" type="curve" smooth="yes"/>
      <point x="330.0" y="1000.0" type="line"/>
      <point x="150.0" y="1000.0" type="line"/>
    </contour>
  </outline>
</glyph>
<glyph name="Germandbls" format="2">
  <advance width="1158.0"/>
  <unicode hex="1E9E"/>
  <outline>
    <contour>
      <point x="50.0" y="0.0" type="line"/>
      <point x="230.0" y="0.0" type="line"/>
      <point x="365.2" y="966.8" type="line" smooth="yes"/>
      <point x="386.6" y="1116.4"/>
      <point x="529.4" y="1240.8"/>
      <point x="672.2" y="1240.8" type="curve" smooth="yes"/>
      <point x="785.4" y="1240.8"/>
      <point x="882.0" y="1220.0"/>
      <point x="869.8" y="1123.0" type="curve" smooth="yes"/>
      <point x="859.0" y="1040.8"/>
      <point x="593.8" y="810.8"/>
      <point x="583.2" y="704.0" type="curve" smooth="yes"/>
      <point x="574.1999999999999" y="628.4" type="line"/>
      <point x="653.1999999999999" y="628.4" type="line" smooth="yes"/>
      <point x="788.4" y="628.4"/>
      <point x="944.2" y="567.1999999999999"/>
      <point x="921.6" y="404.2" type="curve" smooth="yes"/>
      <point x="896.8000000000001" y="228.8"/>
      <point x="712.1999999999999" y="157.2"/>
      <point x="577.8000000000001" y="157.2" type="curve" smooth="yes"/>
      <point x="496.19999999999993" y="157.2" type="line"/>
      <point x="514.0" y="0.0" type="line"/>
      <point x="581.2" y="0.0" type="line" smooth="yes"/>
      <point x="796.4" y="0.0"/>
      <point x="1046.4" y="130.8"/>
      <point x="1081.8" y="381.79999999999995" type="curve" smooth="yes"/>
      <point x="1109.8" y="582.0"/>
      <point x="936.8" y="756.0"/>
      <point x="746.8" y="724.1999999999999" type="curve"/>
      <point x="952.8" y="945.6"/>
      <point x="1039.8" y="1016.0"/>
      <point x="1051.0" y="1099.8000000000002" type="curve" smooth="yes"/>
      <point x="1076.3999999999999" y="1279.2"/>
      <point x="908.8" y="1399.2"/>
      <point x="704.8" y="1399.2" type="curve" smooth="yes"/>
      <point x="451.2" y="1399.2"/>
      <point x="217.2" y="1194.0"/>
      <point x="181.0" y="936.4" type="curve" smooth="yes"/>
    </contour>
  </outline>
</glyph>
<glyph name="endash" format="2">
  <advance width="1240.0"/>
  <unicode hex="2013"/>
  <outline>
    <contour>
      <point x="146.2" y="690.0" type="line"/>
      <point x="121.8" y="510.0" type="line"/>
      <point x="1121.8" y="510.0" type="line"/>
      <point x="1146.2" y="690.0" type="line"/>
    </contour>
  </outline>
</glyph>
<glyph name="emdash" format="2">
  <advance width="2040.0"/>
  <unicode hex="2014"/>
  <outline>
    <contour>
      <point x="146.2" y="690.0" type="line"/>
      <point x="121.8" y="510.0" type="line"/>
      <point x="1921.8" y="510.0" type="line"/>
      <point x="1946.2" y="690.0" type="line"/>
    </contour>
  </outline>
</glyph>
<glyph name="quoteleft" format="2">
  <advance width="342.0"/>
  <unicode hex="2018"/>
  <unicode hex="02BB"/>
  <outline>
    <contour>
      <point x="111.8" y="878.0" type="line"/>
      <point x="293.2" y="878.0" type="line"/>
      <point x="429.0" y="1400.0" type="line"/>
      <point x="306.8" y="1400.0" type="line"/>
    </contour>
  </outline>
</glyph>
<glyph name="dagger" format="2">
  <advance width="816.0"/>
  <unicode hex="2020"/>
  <outline>
    <contour>
      <point x="160.4" y="1070.4" type="line"/>
      <point x="398.4" y="1070.4" type="line"/>
      <point x="329.2" y="580.0" type="line"/>
      <point x="509.2" y="580.0" type="line"/>
      <point x="578.4" y="1070.4" type="line"/>
      <point x="816.4" y="1070.4" type="line"/>
      <point x="840.8" y="1250.4" type="line"/>
      <point x="602.8" y="1250.4" type="line"/>
      <point x="639.0" y="1500.0" type="line"/>
      <point x="459.0" y="1500.0" type="line"/>
      <point x="422.8" y="1250.4" type="line"/>
      <point x="184.8" y="1250.4" type="line"/>
    </contour>
  </outline>
</glyph>
<glyph name="daggerdbl" format="2">
  <advance width="816.0"/>
  <unicode hex="2021"/>
  <outline>
    <contour>
      <point x="116.8" y="762.0" type="line"/>
      <point x="354.8" y="762.0" type="line"/>
      <point x="326.0" y="560.0" type="line"/>
      <point x="506.0" y="560.0" type="line"/>
      <point x="534.8" y="762.0" type="line"/>
      <point x="772.8" y="762.0" type="line"/>
      <point x="797.2" y="940.0" type="line"/>
      <point x="559.2" y="940.0" type="line"/>
      <point x="585.2" y="1120.0" type="line"/>
      <point x="823.2" y="1120.0" type="line"/>
      <point x="848.4" y="1300.0" type="line"/>
      <point x="610.4" y="1300.0" type="line"/>
      <point x="639.0" y="1500.0" type="line"/>
      <point x="459.0" y="1500.0" type="line"/>
      <point x="430.4" y="1300.0" type="line"/>
      <point x="192.4" y="1300.0" type="line"/>
      <point x="167.2" y="1120.0" type="line"/>
      <point x="405.2" y="1120.0" type="line"/>
      <point x="379.2" y="940.0" type="line"/>
      <point x="141.2" y="940.0" type="line"/>
    </contour>
  </outline>
</glyph>
<glyph name="bullet" format="2">
  <advance width="420.0"/>
  <unicode hex="2022"/>
  <outline>
    <contour>
      <point x="215.0" y="470.4" type="curve" smooth="yes"/>
      <point x="282.4" y="470.4"/>
      <point x="343.4" y="522.4000000000001"/>
      <point x="352.8" y="591.0" type="curve" smooth="yes"/>
      <point x="363.2" y="666.8"/>
      <point x="309.6" y="730.4"/>
      <point x="231.4" y="730.4" type="curve" smooth="yes"/>
      <point x="164.4" y="730.4"/>
      <point x="105.4" y="677.1999999999999"/>
      <point x="95.2" y="611.4" type="curve" smooth="yes"/>
      <point x="84.6" y="532.0"/>
      <point x="137.20000000000002" y="470.4"/>
    </contour>
  </outline>
</glyph>
<glyph name="perthousand" format="2">
  <advance width="1934.0"/>
  <unicode hex="2030"/>
  <outline>
    <contour>
      <point x="104.2" y="0.0" type="line"/>
      <point x="315.4" y="0.0" type="line"/>
      <point x="1320.4" y="1400.0" type="line"/>
      <point x="1108.2" y="1400.0" type="line"/>
    </contour>
    <contour>
      <point x="399.8" y="830.4" type="curve"/>
      <point x="535.8" y="830.4"/>
      <point x="666.6" y="938.8"/>
      <point x="687.0" y="1082.2" type="curve"/>
      <point x="708.4000000000001" y="1232.0"/>
      <point x="601.8000000000001" y="1355.2"/>
      <point x="453.40000000000003" y="1355.2" type="curve"/>
      <point x="316.2" y="1355.2"/>
      <point x="184.6" y="1246.3999999999999"/>
      <point x="165.2" y="1101.8" type="curve"/>
      <point x="143.6" y="950.8"/>
      <point x="250.6" y="830.4"/>
    </contour>
    <contour>
      <point x="397.2" y="960.0" type="curve"/>
      <point x="328.8" y="960.0"/>
      <point x="282.4" y="1014.0"/>
      <point x="292.2" y="1082.2" type="curve"/>
      <point x="302.4" y="1161.2"/>
      <point x="376.40000000000003" y="1224.8"/>
      <point x="455.40000000000003" y="1224.8" type="curve"/>
      <point x="523.1999999999999" y="1224.8"/>
      <point x="569.8" y="1170.8"/>
      <point x="560.0" y="1101.8" type="curve"/>
      <point x="548.8" y="1024.3999999999999"/>
      <point x="475.59999999999997" y="960.0"/>
    </contour>
    <contour>
      <point x="942.2" y="44.4" type="curve"/>
      <point x="1081.2" y="44.4"/>
      <point x="1211.2" y="158.39999999999998"/>
      <point x="1230.3999999999999" y="297.0" type="curve"/>
      <point x="1250.8" y="442.79999999999995"/>
      <point x="1149.3999999999999" y="570.4"/>
      <point x="995.8" y="570.4" type="curve"/>
      <point x="859.8000000000001" y="570.4"/>
      <point x="727.4" y="460.0"/>
      <point x="707.0" y="317.40000000000003" type="curve"/>
      <point x="686.5999999999999" y="172.0"/>
      <point x="790.4" y="44.4"/>
    </contour>
    <contour>
      <point x="940.2" y="174.0" type="curve"/>
      <point x="872.4000000000001" y="174.0"/>
      <point x="824.2" y="229.2"/>
      <point x="834.8000000000001" y="297.0" type="curve"/>
      <point x="845.2" y="375.2"/>
      <point x="919.2" y="440.0"/>
      <point x="997.6" y="440.0" type="curve"/>
      <point x="1065.2" y="440.0"/>
      <point x="1112.4" y="384.8"/>
      <point x="1103.4" y="317.40000000000003" type="curve"/>
      <point x="1092.4" y="238.8"/>
      <point x="1018.4000000000001" y="174.0"/>
    </contour>
    <contour>
      <point x="1537.4" y="44.4" type="curve"/>
      <point x="1676.4" y="44.4"/>
      <point x="1806.4" y="158.39999999999998"/>
      <point x="1825.6" y="297.0" type="curve"/>
      <point x="1846.0" y="442.79999999999995"/>
      <point x="1744.6" y="570.4"/>
      <point x="1591.0" y="570.4" type="curve"/>
      <point x="1454.2" y="570.4"/>
      <point x="1322.6" y="460.0"/>
      <point x="1302.2" y="317.40000000000003" type="curve"/>
      <point x="1281.8" y="172.0"/>
      <point x="1385.6000000000001" y="44.4"/>
    </contour>
    <contour>
      <point x="1535.4" y="174.0" type="curve"/>
      <point x="1467.6000000000001" y="174.0"/>
      <point x="1419.4" y="229.2"/>
      <point x="1429.2" y="297.0" type="curve"/>
      <point x="1440.4" y="375.2"/>
      <point x="1514.4" y="440.0"/>
      <point x="1592.8" y="440.0" type="curve"/>
      <point x="1660.4" y="440.0"/>
      <point x="1707.6000000000001" y="384.8"/>
      <point x="1697.8000000000002" y="317.40000000000003" type="curve"/>
      <point x="1687.6000000000001" y="238.8"/>
      <point x="1613.6000000000001" y="174.0"/>
    </contour>
  </outline>
</glyph>
<glyph name="primeReversed" format="2">
  <advance width="482.0"/>
  <unicode hex="2035"/>
  <outline>
    <contour>
      <point x="296.2" y="878.0" type="line"/>
      <point x="414.8" y="878.0" type="line"/>
      <point x="426.0" y="1400.0" type="line"/>
      <point x="248.2" y="1400.0" type="line"/>
    </contour>
  </outline>
</glyph>
<glyph name="guilsinglleft" format="2">
  <advance width="710.0"/>
  <unicode hex="2039"/>
  <outline>
    <contour>
      <point x="388.4" y="261.0" type="line"/>
      <point x="574.1999999999999" y="261.0" type="line"/>
      <point x="324.8" y="601.0" type="line"/>
      <point x="673.8" y="939.0" type="line"/>
      <point x="479.8" y="939.0" type="line"/>
      <point x="134.0" y="601.0" type="line"/>
    </contour>
  </outline>
</glyph>
<glyph name="fraction" format="2">
  <advance width="964.0"/>
  <unicode hex="2044"/>
  <unicode hex="2215"/>
  <outline>
    <contour>
      <point x="-72.2" y="0.0" type="line"/>
      <point x="87.80000000000001" y="0.0" type="line"/>
      <point x="1092.8000000000002" y="1400.0" type="line"/>
      <point x="932.6" y="1400.0" type="line"/>
    </contour>
  </outline>
</glyph>
<glyph name="zerosuperior" format="2">
  <advance width="648.0"/>
  <unicode hex="2070"/>
  <outline>
    <contour>
      <point x="375.8" y="798.0" type="curve"/>
      <point x="509.8" y="798.0"/>
      <point x="637.8" y="936.4000000000001"/>
      <point x="663.8" y="1123.4" type="curve"/>
      <point x="691.8" y="1319.2"/>
      <point x="594.2" y="1468.0"/>
      <point x="450.2" y="1468.0" type="curve"/>
      <point x="316.2" y="1468.0"/>
      <point x="188.2" y="1328.8"/>
      <point x="162.2" y="1143.0" type="curve"/>
      <point x="134.2" y="946.0"/>
      <point x="231.8" y="798.0"/>
    </contour>
    <contour>
      <point x="371.8" y="912.4" type="curve"/>
      <point x="296.0" y="912.4"/>
      <point x="265.8" y="1021.4000000000001"/>
      <point x="279.8" y="1123.4" type="curve"/>
      <point x="294.8" y="1228.0"/>
      <point x="364.4" y="1354.4"/>
      <point x="454.2" y="1354.4" type="curve"/>
      <point x="528.6" y="1354.4"/>
      <point x="560.2" y="1244.2"/>
      <point x="546.2" y="1143.0" type="curve"/>
      <point x="532.2" y="1042.8"/>
      <point x="458.8" y="912.4"/>
    </contour>
  </outline>
</glyph>
<glyph name="foursuperior" format="2">
  <advance width="685.0"/>
  <unicode hex="2074"/>
  <outline>
    <contour>
      <point x="400.0" y="818.0" type="line"/>
      <point x="520.0" y="818.0" type="line"/>
      <point x="535.2" y="930.4" type="line"/>
      <point x="601.8" y="930.4" type="line"/>
      <point x="618.4" y="1050.4" type="line"/>
      <point x="551.8" y="1050.4" type="line"/>
      <point x="608.0" y="1449.0" type="line"/>
      <point x="464.8" y="1449.0" type="line"/>
      <point x="174.8" y="1074.8" type="line"/>
      <point x="156.2" y="930.4" type="line"/>
      <point x="415.2" y="930.4" type="line"/>
    </contour>
    <contour>
      <point x="295.8" y="1050.4" type="line"/>
      <point x="475.8" y="1283.6" type="line"/>
      <point x="440.8" y="1050.4" type="line"/>
    </contour>
  </outline>
</glyph>
<glyph name="fivesuperior" format="2">
  <advance width="688.0"/>
  <unicode hex="2075"/>
  <outline>
    <contour>
      <point x="365.8" y="798.0" type="curve" smooth="yes"/>
      <point x="487.2" y="798.0"/>
      <point x="598.4" y="883.1999999999999"/>
      <point x="615.4" y="1005.4000000000001" type="curve" smooth="yes"/>
      <point x="637.1999999999999" y="1160.4"/>
      <point x="526.8" y="1254.0"/>
      <point x="354.6" y="1240.4" type="curve"/>
      <point x="380.2" y="1341.0" type="line"/>
      <point x="615.0" y="1341.0" type="line"/>
      <point x="630.2" y="1449.0" type="line"/>
      <point x="285.2" y="1449.0" type="line"/>
      <point x="210.6" y="1101.8" type="line"/>
      <point x="286.4" y="1119.4"/>
      <point x="353.8" y="1126.2"/>
      <point x="410.8" y="1125.8000000000002" type="curve" smooth="yes"/>
      <point x="466.6" y="1122.2"/>
      <point x="505.2" y="1080.3999999999999"/>
      <point x="498.0" y="1025.8" type="curve" smooth="yes"/>
      <point x="488.59999999999997" y="961.1999999999999"/>
      <point x="426.6" y="912.4"/>
      <point x="361.8" y="912.4" type="curve" smooth="yes"/>
      <point x="305.2" y="912.4"/>
      <point x="267.8" y="950.8"/>
      <point x="275.2" y="1010.4000000000001" type="curve"/>
      <point x="157.4" y="1020.8000000000001" type="line"/>
      <point x="139.2" y="893.5999999999999"/>
      <point x="234.0" y="798.0"/>
    </contour>
  </outline>
</glyph>
<glyph name="sixsuperior" format="2">
  <advance width="706.0"/>
  <unicode hex="2076"/>
  <outline>
    <contour>
      <point x="380.8" y="798.0" type="curve" smooth="yes"/>
      <point x="500.40000000000003" y="798.0"/>
      <point x="615.0" y="879.8000000000001"/>
      <point x="632.8" y="1008.0" type="curve" smooth="yes"/>
      <point x="651.2" y="1136.4"/>
      <point x="563.4" y="1243.0"/>
      <point x="428.8" y="1243.6" type="curve"/>
      <point x="581.2" y="1446.0" type="line"/>
      <point x="437.8" y="1449.8" type="line"/>
      <point x="210.4" y="1136.2"/>
      <point x="180.0" y="1099.8"/>
      <point x="170.2" y="1028.8" type="curve" smooth="yes"/>
      <point x="152.0" y="897.4"/>
      <point x="242.60000000000002" y="798.0"/>
    </contour>
    <contour>
      <point x="376.8" y="912.4" type="curve" smooth="yes"/>
      <point x="324.8" y="912.4"/>
      <point x="282.4" y="942.4000000000001"/>
      <point x="285.4" y="1000.4000000000001" type="curve" smooth="yes"/>
      <point x="291.59999999999997" y="1067.2"/>
      <point x="352.8" y="1130.8"/>
      <point x="428.0" y="1130.8" type="curve" smooth="yes"/>
      <point x="477.2" y="1130.8"/>
      <point x="521.1999999999999" y="1094.8"/>
      <point x="517.6" y="1036.3999999999999" type="curve" smooth="yes"/>
      <point x="512.2" y="966.5999999999999"/>
      <point x="446.6" y="912.4"/>
    </contour>
  </outline>
</glyph>
<glyph name="sevensuperior" format="2">
  <advance width="649.0"/>
  <unicode hex="2077"/>
  <outline>
    <contour>
      <point x="189.20000000000002" y="818.0" type="line"/>
      <point x="330.4" y="818.0" type="line"/>
      <point x="695.8000000000001" y="1330.2" type="line"/>
      <point x="710.2" y="1447.6" type="line"/>
      <point x="253.0" y="1447.6" type="line"/>
      <point x="236.2" y="1327.6" type="line"/>
      <point x="552.4" y="1327.6" type="line"/>
    </contour>
  </outline>
</glyph>
<glyph name="eightsuperior" format="2">
  <advance width="614.5"/>
  <unicode hex="2078"/>
  <outline>
    <contour>
      <point x="358.40000000000003" y="798.0" type="curve" smooth="yes"/>
      <point x="471.2" y="798.0"/>
      <point x="571.4" y="873.1999999999999"/>
      <point x="587.4" y="985.6" type="curve" smooth="yes"/>
      <point x="596.4" y="1052.8"/>
      <point x="573.8" y="1108.6000000000001"/>
      <point x="539.0" y="1142.3999999999999" type="curve"/>
      <point x="581.1999999999999" y="1179.8"/>
      <point x="605.8" y="1226.8000000000002"/>
      <point x="612.4" y="1272.0" type="curve" smooth="yes"/>
      <point x="628.6" y="1386.8000000000002"/>
      <point x="546.4000000000001" y="1469.2"/>
      <point x="432.2" y="1469.2" type="curve" smooth="yes"/>
      <point x="329.2" y="1469.2"/>
      <point x="236.4" y="1397.2"/>
      <point x="221.20000000000002" y="1292.3999999999999" type="curve" smooth="yes"/>
      <point x="214.20000000000002" y="1237.2"/>
      <point x="232.0" y="1187.3999999999999"/>
      <point x="258.2" y="1157.2" type="curve"/>
      <point x="206.4" y="1116.2"/>
      <point x="175.2" y="1062.3999999999999"/>
      <point x="167.4" y="1005.1999999999999" type="curve" smooth="yes"/>
      <point x="150.2" y="883.5999999999999"/>
      <point x="237.60000000000002" y="798.0"/>
    </contour>
    <contour>
      <point x="354.40000000000003" y="911.2" type="curve" smooth="yes"/>
      <point x="309.40000000000003" y="911.2"/>
      <point x="278.0" y="940.8"/>
      <point x="284.2" y="985.6" type="curve" smooth="yes"/>
      <point x="292.4" y="1040.8"/>
      <point x="344.6" y="1086.4"/>
      <point x="398.40000000000003" y="1086.4" type="curve" smooth="yes"/>
      <point x="445.40000000000003" y="1086.4"/>
      <point x="476.2" y="1050.3999999999999"/>
      <point x="469.79999999999995" y="1005.1999999999999" type="curve" smooth="yes"/>
      <point x="462.4" y="951.1999999999999"/>
      <point x="410.20000000000005" y="911.2"/>
    </contour>
    <contour>
      <point x="395.8" y="1206.4" type="curve" smooth="yes"/>
      <point x="359.4" y="1206.4"/>
      <point x="334.4" y="1235.8000000000002"/>
      <point x="338.79999999999995" y="1272.0" type="curve" smooth="yes"/>
      <point x="345.2" y="1320.2"/>
      <point x="389.79999999999995" y="1354.4"/>
      <point x="436.0" y="1354.4" type="curve" smooth="yes"/>
      <point x="474.2" y="1354.4"/>
      <point x="501.0" y="1330.6"/>
      <point x="494.8" y="1292.3999999999999" type="curve" smooth="yes"/>
      <point x="489.2" y="1246.2"/>
      <point x="443.8" y="1206.4"/>
    </contour>
  </outline>
</glyph>
<glyph name="ninesuperior" format="2">
  <advance width="658.5"/>
  <unicode hex="2079"/>
  <outline>
    <contour>
      <point x="229.60000000000002" y="818.0" type="line"/>
      <point x="371.2" y="818.0" type="line"/>
      <point x="595.4" y="1122.6000000000001" type="line"/>
      <point x="607.4000000000001" y="1143.0"/>
      <point x="615.2" y="1163.4"/>
      <point x="619.4" y="1179.6000000000001" type="curve" smooth="yes"/>
      <point x="684.6" y="1323.6000000000001"/>
      <point x="591.8" y="1468.0"/>
      <point x="431.2" y="1468.0" type="curve" smooth="yes"/>
      <point x="331.79999999999995" y="1468.0"/>
      <point x="236.79999999999998" y="1410.8"/>
      <point x="201.4" y="1314.3999999999999" type="curve" smooth="yes"/>
      <point x="130.4" y="1170.8"/>
      <point x="226.0" y="1010.8000000000001"/>
      <point x="382.6" y="1023.2" type="curve"/>
    </contour>
    <contour>
      <point x="384.8" y="1134.0" type="curve" smooth="yes"/>
      <point x="344.8" y="1134.0"/>
      <point x="297.8" y="1158.6000000000001"/>
      <point x="294.8" y="1215.2" type="curve" smooth="yes"/>
      <point x="293.59999999999997" y="1288.0"/>
      <point x="357.59999999999997" y="1354.4"/>
      <point x="435.2" y="1354.4" type="curve" smooth="yes"/>
      <point x="478.8" y="1354.4"/>
      <point x="521.8000000000001" y="1328.2"/>
      <point x="526.0" y="1279.0" type="curve" smooth="yes"/>
      <point x="527.1999999999999" y="1202.8"/>
      <point x="459.2" y="1134.0"/>
    </contour>
  </outline>
</glyph>
<glyph name="zeroinferior" format="2">
  <advance width="648.0"/>
  <unicode hex="2080"/>
  <outline>
    <contour>
      <point x="259.6" y="-31.0" type="curve"/>
      <point x="393.8" y="-31.0"/>
      <point x="521.2" y="112.2"/>
      <point x="548.0" y="299.2" type="curve"/>
      <point x="575.2" y="494.8"/>
      <point x="478.6" y="649.2"/>
      <point x="334.8" y="649.2" type="curve"/>
      <point x="200.6" y="649.2"/>
      <point x="72.4" y="504.40000000000003"/>
      <point x="47.4" y="318.8" type="curve"/>
      <point x="18.4" y="121.8"/>
      <point x="115.8" y="-31.0"/>
    </contour>
    <contour>
      <point x="256.0" y="89.0" type="curve"/>
      <point x="181.20000000000002" y="89.0"/>
      <point x="149.2" y="197.20000000000002"/>
      <point x="164.0" y="299.2" type="curve"/>
      <point x="178.2" y="403.59999999999997"/>
      <point x="248.79999999999998" y="529.2"/>
      <point x="338.4" y="529.2" type="curve"/>
      <point x="413.0" y="529.2"/>
      <point x="445.2" y="419.8"/>
      <point x="431.4" y="318.8" type="curve"/>
      <point x="416.4" y="218.4"/>
      <point x="344.0" y="89.0"/>
    </contour>
  </outline>
</glyph>
<glyph name="oneinferior" format="2">
  <advance width="433.5"/>
  <unicode hex="2081"/>
  <outline>
    <contour>
      <point x="99.19999999999999" y="0.0" type="line"/>
      <point x="219.2" y="0.0" type="line"/>
      <point x="307.2" y="631.0" type="line"/>
      <point x="130.60000000000002" y="631.0" type="line"/>
      <point x="97.2" y="511.0" type="line"/>
      <point x="171.39999999999998" y="511.0" type="line"/>
    </contour>
  </outline>
</glyph>
<glyph name="twoinferior" format="2">
  <advance width="698.5"/>
  <unicode hex="2082"/>
  <outline>
    <contour>
      <point x="26.0" y="0.0" type="line"/>
      <point x="478.6" y="0.0" type="line"/>
      <point x="495.20000000000005" y="120.0" type="line"/>
      <point x="260.4" y="116.4" type="line"/>
      <point x="376.8" y="197.39999999999998"/>
      <point x="528.8000000000001" y="314.79999999999995"/>
      <point x="543.4000000000001" y="421.79999999999995" type="curve"/>
      <point x="561.8000000000001" y="552.8"/>
      <point x="469.0" y="656.4"/>
      <point x="338.20000000000005" y="656.4" type="curve"/>
      <point x="215.20000000000002" y="656.4"/>
      <point x="104.8" y="563.1999999999999"/>
      <point x="87.6" y="437.2" type="curve"/>
      <point x="205.4" y="426.79999999999995" type="line"/>
      <point x="213.8" y="488.2"/>
      <point x="276.4" y="536.4"/>
      <point x="341.8" y="536.4" type="curve"/>
      <point x="397.2" y="536.4"/>
      <point x="434.2" y="498.6"/>
      <point x="424.4" y="441.2" type="curve"/>
      <point x="370.0" y="311.40000000000003"/>
      <point x="154.0" y="185.4"/>
      <point x="37.6" y="113.4" type="curve"/>
    </contour>
  </outline>
</glyph>
<glyph name="threeinferior" format="2">
  <advance width="564.0"/>
  <unicode hex="2083"/>
  <outline>
    <contour>
      <point x="218.6" y="-31.0" type="curve" smooth="yes"/>
      <point x="327.4" y="-31.0"/>
      <point x="429.2" y="53.2"/>
      <point x="444.4" y="163.8" type="curve" smooth="yes"/>
      <point x="455.0" y="234.8"/>
      <point x="434.40000000000003" y="281.79999999999995"/>
      <point x="394.6" y="320.2" type="curve"/>
      <point x="433.8" y="351.8"/>
      <point x="460.2" y="401.2"/>
      <point x="466.8" y="449.79999999999995" type="curve" smooth="yes"/>
      <point x="483.2" y="562.6"/>
      <point x="402.40000000000003" y="649.2"/>
      <point x="288.8" y="649.2" type="curve" smooth="yes"/>
      <point x="185.79999999999998" y="649.2"/>
      <point x="93.8" y="572.1999999999999"/>
      <point x="77.8" y="465.2" type="curve"/>
      <point x="196.4" y="454.79999999999995" type="line"/>
      <point x="201.8" y="495.8"/>
      <point x="247.4" y="529.2"/>
      <point x="292.4" y="529.2" type="curve" smooth="yes"/>
      <point x="328.8" y="529.2"/>
      <point x="355.4" y="505.40000000000003"/>
      <point x="350.2" y="470.2" type="curve" smooth="yes"/>
      <point x="342.0" y="414.6"/>
      <point x="295.40000000000003" y="368.4"/>
      <point x="212.2" y="368.4" type="curve"/>
      <point x="210.4" y="279.2" type="line"/>
      <point x="297.8" y="279.2"/>
      <point x="335.0" y="237.20000000000002"/>
      <point x="327.8" y="184.20000000000002" type="curve" smooth="yes"/>
      <point x="320.4" y="128.20000000000002"/>
      <point x="269.8" y="89.0"/>
      <point x="215.0" y="89.0" type="curve" smooth="yes"/>
      <point x="169.0" y="89.0"/>
      <point x="138.2" y="118.60000000000001"/>
      <point x="145.6" y="168.8" type="curve"/>
      <point x="26.8" y="179.20000000000002" type="line"/>
      <point x="10.6" y="62.8"/>
      <point x="97.4" y="-31.0"/>
    </contour>
  </outline>
</glyph>
<glyph name="fourinferior" format="2">
  <advance width="685.0"/>
  <unicode hex="2084"/>
  <outline>
    <contour>
      <point x="285.0" y="0.0" type="line"/>
      <point x="405.0" y="0.0" type="line"/>
      <point x="420.2" y="112.4" type="line"/>
      <point x="486.79999999999995" y="112.4" type="line"/>
      <point x="503.4" y="232.4" type="line"/>
      <point x="436.8" y="232.4" type="line"/>
      <point x="493.0" y="631.0" type="line"/>
      <point x="349.8" y="631.0" type="line"/>
      <point x="59.8" y="256.8" type="line"/>
      <point x="41.2" y="112.4" type="line"/>
      <point x="300.2" y="112.4" type="line"/>
    </contour>
    <contour>
      <point x="180.8" y="232.4" type="line"/>
      <point x="360.8" y="465.6" type="line"/>
      <point x="325.8" y="232.4" type="line"/>
    </contour>
  </outline>
</glyph>
<glyph name="fiveinferior" format="2">
  <advance width="688.0"/>
  <unicode hex="2085"/>
  <outline>
    <contour>
      <point x="248.79999999999998" y="-31.0" type="curve"/>
      <point x="371.2" y="-31.0"/>
      <point x="481.79999999999995" y="59.60000000000001"/>
      <point x="498.79999999999995" y="181.8" type="curve"/>
      <point x="517.1999999999999" y="314.59999999999997"/>
      <point x="438.8" y="420.0"/>
      <point x="299.6" y="420.0" type="curve"/>
      <point x="244.4" y="416.8" type="line"/>
      <point x="263.2" y="515.4" type="line"/>
      <point x="499.2" y="515.4" type="line"/>
      <point x="514.4000000000001" y="623.8" type="line"/>
      <point x="169.39999999999998" y="623.8" type="line"/>
      <point x="89.0" y="283.2" type="line"/>
      <point x="290.2" y="300.0" type="line"/>
      <point x="351.0" y="300.0"/>
      <point x="389.4" y="257.0"/>
      <point x="382.2" y="202.20000000000002" type="curve"/>
      <point x="373.0" y="136.8"/>
      <point x="311.8" y="89.0"/>
      <point x="245.2" y="89.0" type="curve"/>
      <point x="190.4" y="89.0"/>
      <point x="151.2" y="127.2"/>
      <point x="160.4" y="186.8" type="curve"/>
      <point x="41.6" y="197.20000000000002" type="line"/>
      <point x="23.4" y="69.2"/>
      <point x="117.19999999999999" y="-31.0"/>
    </contour>
  </outline>
</glyph>
<glyph name="sixinferior" format="2">
  <advance width="682.0"/>
  <unicode hex="2086"/>
  <outline>
    <contour>
      <point x="264.6" y="-31.0" type="curve" smooth="yes"/>
      <point x="384.40000000000003" y="-31.0"/>
      <point x="499.2" y="56.400000000000006"/>
      <point x="517.8" y="184.39999999999998" type="curve" smooth="yes"/>
      <point x="535.4" y="313.0"/>
      <point x="447.6" y="420.40000000000003"/>
      <point x="312.2" y="419.2" type="curve"/>
      <point x="465.40000000000003" y="624.2" type="line"/>
      <point x="322.8" y="628.0" type="line"/>
      <point x="95.4" y="313.6"/>
      <point x="64.2" y="276.40000000000003"/>
      <point x="54.4" y="206.20000000000002" type="curve" smooth="yes"/>
      <point x="36.2" y="73.2"/>
      <point x="125.80000000000001" y="-31.0"/>
    </contour>
    <contour>
      <point x="261.0" y="89.0" type="curve" smooth="yes"/>
      <point x="210.0" y="89.0"/>
      <point x="166.6" y="118.8"/>
      <point x="170.6" y="176.0" type="curve" smooth="yes"/>
      <point x="177.0" y="242.8"/>
      <point x="237.0" y="307.2"/>
      <point x="312.2" y="307.2" type="curve" smooth="yes"/>
      <point x="362.2" y="307.2"/>
      <point x="405.40000000000003" y="271.40000000000003"/>
      <point x="401.8" y="212.79999999999998" type="curve" smooth="yes"/>
      <point x="396.40000000000003" y="143.0"/>
      <point x="331.8" y="89.0"/>
    </contour>
  </outline>
</glyph>
<glyph name="seveninferior" format="2">
  <advance width="649.0"/>
  <unicode hex="2087"/>
  <outline>
    <contour>
      <point x="71.2" y="0.0" type="line"/>
      <point x="213.20000000000002" y="0.0" type="line"/>
      <point x="580.8000000000001" y="513.6" type="line"/>
      <point x="595.2" y="631.0" type="line"/>
      <point x="138.0" y="631.0" type="line"/>
      <point x="121.4" y="511.0" type="line"/>
      <point x="438.4" y="511.0" type="line"/>
    </contour>
  </outline>
</glyph>
<glyph name="eightinferior" format="2">
  <advance width="614.5"/>
  <unicode hex="2088"/>
  <outline>
    <contour>
      <point x="241.4" y="-31.0" type="curve" smooth="yes"/>
      <point x="354.4" y="-31.0"/>
      <point x="455.59999999999997" y="50.6"/>
      <point x="470.79999999999995" y="161.20000000000002" type="curve" smooth="yes"/>
      <point x="480.59999999999997" y="229.2"/>
      <point x="457.2" y="286.2"/>
      <point x="423.2" y="318.8" type="curve"/>
      <point x="465.40000000000003" y="356.4"/>
      <point x="490.8" y="403.2"/>
      <point x="497.4" y="448.4" type="curve" smooth="yes"/>
      <point x="513.0" y="564.2"/>
      <point x="430.8" y="650.0"/>
      <point x="317.40000000000003" y="650.0" type="curve" smooth="yes"/>
      <point x="214.4" y="650.0"/>
      <point x="121.4" y="573.8"/>
      <point x="106.2" y="468.8" type="curve" smooth="yes"/>
      <point x="98.4" y="412.8"/>
      <point x="116.2" y="364.0"/>
      <point x="142.39999999999998" y="334.4" type="curve"/>
      <point x="91.6" y="293.6"/>
      <point x="59.4" y="238.8"/>
      <point x="50.8" y="181.60000000000002" type="curve" smooth="yes"/>
      <point x="34.4" y="60.199999999999996"/>
      <point x="120.80000000000001" y="-31.0"/>
    </contour>
    <contour>
      <point x="237.8" y="87.6" type="curve" smooth="yes"/>
      <point x="194.4" y="87.6"/>
      <point x="162.2" y="117.2"/>
      <point x="168.4" y="161.20000000000002" type="curve" smooth="yes"/>
      <point x="175.8" y="217.2"/>
      <point x="228.8" y="262.8"/>
      <point x="282.6" y="262.8" type="curve" smooth="yes"/>
      <point x="328.8" y="262.8"/>
      <point x="360.4" y="226.8"/>
      <point x="353.2" y="181.60000000000002" type="curve" smooth="yes"/>
      <point x="345.79999999999995" y="126.8"/>
      <point x="294.40000000000003" y="87.6"/>
    </contour>
    <contour>
      <point x="279.2" y="382.8" type="curve" smooth="yes"/>
      <point x="243.59999999999997" y="382.8"/>
      <point x="218.6" y="413.2"/>
      <point x="223.8" y="448.4" type="curve" smooth="yes"/>
      <point x="230.20000000000002" y="496.59999999999997"/>
      <point x="274.2" y="530.0"/>
      <point x="320.2" y="530.0" type="curve" smooth="yes"/>
      <point x="359.40000000000003" y="530.0"/>
      <point x="385.2" y="506.2"/>
      <point x="379.8" y="468.8" type="curve" smooth="yes"/>
      <point x="373.4" y="422.8"/>
      <point x="328.0" y="382.8"/>
    </contour>
  </outline>
</glyph>
<glyph name="nineinferior" format="2">
  <advance width="659.0"/>
  <unicode hex="2089"/>
  <outline>
    <contour>
      <point x="114.60000000000001" y="0.0" type="line"/>
      <point x="256.2" y="0.0" type="line"/>
      <point x="484.40000000000003" y="310.2" type="line"/>
      <point x="594.8" y="465.79999999999995"/>
      <point x="499.2" y="656.4"/>
      <point x="317.40000000000003" y="656.4" type="curve" smooth="yes"/>
      <point x="217.8" y="656.4"/>
      <point x="122.6" y="593.8"/>
      <point x="87.4" y="497.40000000000003" type="curve" smooth="yes"/>
      <point x="15.399999999999997" y="353.8"/>
      <point x="111.00000000000001" y="192.8"/>
      <point x="267.6" y="205.2" type="curve"/>
    </contour>
    <contour>
      <point x="269.8" y="317.0" type="curve" smooth="yes"/>
      <point x="230.8" y="317.0"/>
      <point x="182.79999999999998" y="340.59999999999997"/>
      <point x="179.79999999999998" y="398.0" type="curve" smooth="yes"/>
      <point x="178.6" y="470.0"/>
      <point x="242.8" y="536.4"/>
      <point x="320.2" y="536.4" type="curve" smooth="yes"/>
      <point x="364.0" y="536.4"/>
      <point x="406.8" y="510.2"/>
      <point x="411.0" y="461.0" type="curve" smooth="yes"/>
      <point x="412.2" y="385.6"/>
      <point x="344.4" y="317.0"/>
    </contour>
  </outline>
</glyph>
<glyph name="euro" format="2">
  <advance width="1149.0"/>
  <unicode hex="20AC"/>
  <outline>
    <contour>
      <point x="1001.5999999999999" y="-15.399999999999999" type="curve"/>
      <point x="1018.1999999999999" y="171.4" type="line"/>
      <point x="752.4" y="109.80000000000001"/>
      <point x="532.8" y="249.8"/>
      <point x="478.8" y="497.4" type="curve"/>
      <point x="787.8" y="502.0" type="line"/>
      <point x="806.2" y="632.4" type="line"/>
      <point x="463.4" y="632.4" type="line"/>
      <point x="480.8" y="766.0" type="line"/>
      <point x="824.8" y="766.0" type="line"/>
      <point x="843.2" y="896.4" type="line"/>
      <point x="537.1999999999999" y="891.8" type="line"/>
      <point x="657.8" y="1134.6000000000001"/>
      <point x="922.4000000000001" y="1294.8000000000002"/>
      <point x="1177.2" y="1232.0" type="curve"/>
      <point x="1192.8" y="1415.8" type="line"/>
      <point x="845.2" y="1479.8"/>
      <point x="485.2" y="1257.2"/>
      <point x="341.4" y="901.1999999999999" type="curve"/>
      <point x="135.2" y="896.4" type="line"/>
      <point x="116.8" y="766.0" type="line"/>
      <point x="300.0" y="766.0" type="line"/>
      <point x="281.4" y="632.4" type="line"/>
      <point x="98.2" y="632.4" type="line"/>
      <point x="79.8" y="502.0" type="line"/>
      <point x="288.59999999999997" y="506.8" type="line"/>
      <point x="333.8" y="156.8"/>
      <point x="631.2" y="-80.2"/>
    </contour>
  </outline>
</glyph>
<glyph name="leftArrow" format="2">
  <advance width="1384.0"/>
  <unicode hex="2190"/>
  <outline>
    <contour>
      <point x="556.8" y="241.2" type="line"/>
      <point x="697.4" y="368.4" type="line"/>
      <point x="444.2" y="660.0" type="line"/>
      <point x="1326.4" y="660.0" type="line"/>
      <point x="1351.6000000000001" y="840.0" type="line"/>
      <point x="473.79999999999995" y="840.0" type="line"/>
      <point x="805.4" y="1132.4" type="line"/>
      <point x="691.8" y="1258.8" type="line"/>
      <point x="115.0" y="750.0" type="line"/>
    </contour>
  </outline>
</glyph>
<glyph name="upArrow" format="2">
  <advance width="1179.0"/>
  <unicode hex="2191"/>
  <outline>
    <contour>
      <point x="448.79999999999995" y="136.8" type="line"/>
      <point x="628.8" y="136.8" type="line"/>
      <point x="754.4" y="1018.4" type="line"/>
      <point x="1007.8" y="726.4" type="line"/>
      <point x="1149.4" y="854.4" type="line"/>
      <point x="707.6" y="1363.2" type="line"/>
      <point x="130.2" y="854.4" type="line"/>
      <point x="243.8" y="726.4" type="line"/>
      <point x="574.4" y="1018.4" type="line"/>
    </contour>
  </outline>
</glyph>
<glyph name="rightArrow" format="2">
  <advance width="1385.0"/>
  <unicode hex="2192"/>
  <outline>
    <contour>
      <point x="762.2" y="241.2" type="line"/>
      <point x="1339.8" y="750.0" type="line"/>
      <point x="898.2" y="1258.8" type="line"/>
      <point x="757.4" y="1132.4" type="line"/>
      <point x="1008.6" y="840.0" type="line"/>
      <point x="127.2" y="840.0" type="line"/>
      <point x="102.8" y="660.0" type="line"/>
      <point x="979.8000000000001" y="660.0" type="line"/>
      <point x="649.4" y="368.4" type="line"/>
    </contour>
  </outline>
</glyph>
<glyph name="downArrow" format="2">
  <advance width="1178.0"/>
  <unicode hex="2193"/>
  <outline>
    <contour>
      <point x="540.4" y="138.4" type="line"/>
      <point x="1118.8" y="647.2" type="line"/>
      <point x="1005.8" y="774.4" type="line"/>
      <point x="674.4" y="483.2" type="line"/>
      <point x="799.1999999999999" y="1362.4" type="line"/>
      <point x="619.1999999999999" y="1362.4" type="line"/>
      <point x="494.4" y="483.2" type="line"/>
      <point x="241.39999999999998" y="774.4" type="line"/>
      <point x="100.8" y="647.2" type="line"/>
    </contour>
  </outline>
</glyph>
<glyph name="leftRightArrow" format="2">
  <advance width="1745.0"/>
  <unicode hex="2194"/>
  <outline>
    <contour>
      <point x="556.8" y="241.2" type="line"/>
      <point x="697.4" y="368.4" type="line"/>
      <point x="444.2" y="660.0" type="line"/>
      <point x="1339.8" y="660.0" type="line"/>
      <point x="1009.4" y="368.4" type="line"/>
      <point x="1122.2" y="241.2" type="line"/>
      <point x="1699.8" y="750.0" type="line"/>
      <point x="1258.2" y="1258.8" type="line"/>
      <point x="1117.4" y="1132.4" type="line"/>
      <point x="1368.6000000000001" y="840.0" type="line"/>
      <point x="473.79999999999995" y="840.0" type="line"/>
      <point x="805.4" y="1132.4" type="line"/>
      <point x="691.8" y="1258.8" type="line"/>
      <point x="115.0" y="750.0" type="line"/>
    </contour>
  </outline>
</glyph>
<glyph name="upDownArrow" format="2">
  <advance width="1179.0"/>
  <unicode hex="2195"/>
  <outline>
    <contour>
      <point x="516.1999999999999" y="-42.8" type="line"/>
      <point x="1094.4" y="466.8" type="line"/>
      <point x="980.8000000000001" y="594.8" type="line"/>
      <point x="649.4" y="302.0" type="line"/>
      <point x="778.1999999999999" y="1198.0" type="line"/>
      <point x="1031.6000000000001" y="906.0" type="line"/>
      <point x="1174.0" y="1034.0" type="line"/>
      <point x="732.1999999999999" y="1542.8" type="line"/>
      <point x="154.8" y="1034.0" type="line"/>
      <point x="267.59999999999997" y="906.0" type="line"/>
      <point x="598.1999999999999" y="1198.0" type="line"/>
      <point x="469.40000000000003" y="302.0" type="line"/>
      <point x="216.79999999999998" y="594.8" type="line"/>
      <point x="75.2" y="466.8" type="line"/>
    </contour>
  </outline>
</glyph>
<glyph name="northWestArrow" format="2">
  <advance width="1090.0"/>
  <unicode hex="2196"/>
  <outline>
    <contour>
      <point x="856.1999999999999" y="285.8" type="line"/>
      <point x="997.8" y="412.2" type="line"/>
      <point x="460.8" y="1034.2" type="line"/>
      <point x="875.0" y="1034.2" type="line"/>
      <point x="900.4" y="1214.2" type="line"/>
      <point x="180.4" y="1214.2" type="line"/>
      <point x="79.2" y="494.2" type="line"/>
      <point x="259.2" y="494.2" type="line"/>
      <point x="319.4" y="907.8" type="line"/>
    </contour>
  </outline>
</glyph>
<glyph name="northEastArrow" format="2">
  <advance width="1089.0"/>
  <unicode hex="2197"/>
  <outline>
    <contour>
      <point x="180.6" y="286.0" type="line"/>
      <point x="888.4000000000001" y="906.8" type="line"/>
      <point x="828.4000000000001" y="494.0" type="line"/>
      <point x="1008.4000000000001" y="494.0" type="line"/>
      <point x="1109.4" y="1214.0" type="line"/>
      <point x="388.2" y="1214.0" type="line"/>
      <point x="363.0" y="1034.0" type="line"/>
      <point x="774.8" y="1034.0" type="line"/>
      <point x="67.8" y="413.2" type="line"/>
    </contour>
  </outline>
</glyph>
<glyph name="southEastArrow" format="2">
  <advance width="1089.0"/>
  <unicode hex="2198"/>
  <outline>
    <contour>
      <point x="259.0" y="286.0" type="line"/>
      <point x="979.0" y="286.0" type="line"/>
      <point x="1080.0" y="1006.0" type="line"/>
      <point x="900.0" y="1006.0" type="line"/>
      <point x="840.8000000000001" y="593.2" type="line"/>
      <point x="303.8" y="1214.0" type="line"/>
      <point x="162.4" y="1086.8" type="line"/>
      <point x="699.2" y="466.0" type="line"/>
      <point x="284.2" y="466.0" type="line"/>
    </contour>
  </outline>
</glyph>
<glyph name="southWestArrow" format="2">
  <advance width="1089.0"/>
  <unicode hex="2199"/>
  <outline>
    <contour>
      <point x="49.8" y="286.0" type="line"/>
      <point x="769.8" y="286.0" type="line"/>
      <point x="795.0" y="466.0" type="line"/>
      <point x="384.4" y="466.0" type="line"/>
      <point x="1091.6000000000001" y="1086.8" type="line"/>
      <point x="978.6" y="1214.0" type="line"/>
      <point x="271.6" y="593.2" type="line"/>
      <point x="331.8" y="1006.0" type="line"/>
      <point x="150.8" y="1006.0" type="line"/>
    </contour>
  </outline>
</glyph>
<glyph name="partialdiff" format="2">
  <advance width="1165.0"/>
  <unicode hex="2202"/>
  <outline>
    <contour>
      <point x="519.0" y="-26.0" type="curve"/>
      <point x="808.8" y="-26.0"/>
      <point x="1041.2" y="193.2"/>
      <point x="1085.8" y="506.99999999999994" type="curve"/>
      <point x="1159.6" y="1044.4"/>
      <point x="917.2" y="1508.8"/>
      <point x="486.4" y="1508.8" type="curve"/>
      <point x="472.2" y="1328.8" type="line"/>
      <point x="746.8000000000001" y="1328.8"/>
      <point x="860.0" y="1091.8"/>
      <point x="883.0" y="864.8" type="curve"/>
      <point x="832.1999999999999" y="932.4000000000001"/>
      <point x="747.4000000000001" y="979.2"/>
      <point x="640.6" y="979.2" type="curve"/>
      <point x="368.2" y="979.2"/>
      <point x="116.2" y="758.8"/>
      <point x="78.2" y="485.8" type="curve"/>
      <point x="38.2" y="204.0"/>
      <point x="236.8" y="-26.0"/>
    </contour>
    <contour>
      <point x="523.8000000000001" y="154.0" type="curve"/>
      <point x="350.4" y="154.0"/>
      <point x="231.2" y="296.4"/>
      <point x="254.8" y="466.2" type="curve"/>
      <point x="280.6" y="646.4000000000001"/>
      <point x="449.2" y="799.2"/>
      <point x="634.8000000000001" y="799.2" type="curve"/>
      <point x="808.8" y="799.2"/>
      <point x="928.8" y="658.4"/>
      <point x="904.2" y="485.8" type="curve"/>
      <point x="879.2" y="308.40000000000003"/>
      <point x="710.8" y="154.0"/>
    </contour>
  </outline>
</glyph>
